<?xml version="1.0" encoding="UTF-8" standalone="no"?>
<!DOCTYPE svg PUBLIC "-//W3C//DTD SVG 1.1//EN"
 "http://www.w3.org/Graphics/SVG/1.1/DTD/svg11.dtd">
<!-- Generated by graphviz version 2.38.0 (20140413.2041)
 -->
<!-- Title: libsc::k60::PitTimer Pages: 1 -->
<svg width="123pt" height="86pt"
 viewBox="0.00 0.00 123.00 86.00" xmlns="http://www.w3.org/2000/svg" xmlns:xlink="http://www.w3.org/1999/xlink">
<g id="graph0" class="graph" transform="scale(1 1) rotate(0) translate(4 82)">
<title>libsc::k60::PitTimer</title>
<polygon fill="white" stroke="none" points="-4,4 -4,-82 119,-82 119,4 -4,4"/>
<!-- Node1 -->
<g id="node1" class="node"><title>Node1</title>
<polygon fill="#bfbfbf" stroke="black" points="-7.10543e-15,-0.5 -7.10543e-15,-20.5 115,-20.5 115,-0.5 -7.10543e-15,-0.5"/>
<text text-anchor="middle" x="57.5" y="-7.7" font-family="Open Sans" font-size="11.00">libsc::k60::PitTimer</text>
</g>
<!-- Node2 -->
<g id="node2" class="node"><title>Node2</title>
<g id="a_node2"><a xlink:href="classlibsc_1_1k60_1_1_timer.xhtml" target="_top" xlink:title="libsc::k60::Timer">
<polygon fill="white" stroke="black" points="7,-57.5 7,-77.5 108,-77.5 108,-57.5 7,-57.5"/>
<text text-anchor="middle" x="57.5" y="-64.7" font-family="Open Sans" font-size="11.00">libsc::k60::Timer</text>
</a>
</g>
</g>
<!-- Node2&#45;&gt;Node1 -->
<g id="edge1" class="edge"><title>Node2&#45;&gt;Node1</title>
<path fill="none" stroke="midnightblue" d="M57.5,-47.383C57.5,-38.3738 57.5,-28.0373 57.5,-20.7795"/>
<polygon fill="midnightblue" stroke="midnightblue" points="54.0001,-47.4178 57.5,-57.4179 61.0001,-47.4179 54.0001,-47.4178"/>
</g>
</g>
</svg>
