<?xml version="1.0" encoding="UTF-8" standalone="no"?>
<!DOCTYPE svg PUBLIC "-//W3C//DTD SVG 1.1//EN"
 "http://www.w3.org/Graphics/SVG/1.1/DTD/svg11.dtd">
<!-- Generated by graphviz version 2.38.0 (20140413.2041)
 -->
<!-- Title: libbase::k60::Pwm Pages: 1 -->
<svg width="288pt" height="86pt"
 viewBox="0.00 0.00 288.00 86.00" xmlns="http://www.w3.org/2000/svg" xmlns:xlink="http://www.w3.org/1999/xlink">
<g id="graph0" class="graph" transform="scale(1 1) rotate(0) translate(4 82)">
<title>libbase::k60::Pwm</title>
<polygon fill="white" stroke="none" points="-4,4 -4,-82 284,-82 284,4 -4,4"/>
<!-- Node1 -->
<g id="node1" class="node"><title>Node1</title>
<polygon fill="#bfbfbf" stroke="black" points="84,-57.5 84,-77.5 195,-77.5 195,-57.5 84,-57.5"/>
<text text-anchor="middle" x="139.5" y="-64.7" font-family="Open Sans" font-size="11.00">libbase::k60::Pwm</text>
</g>
<!-- Node2 -->
<g id="node2" class="node"><title>Node2</title>
<g id="a_node2"><a xlink:href="classlibbase_1_1k60_1_1_ftm_pwm.xhtml" target="_top" xlink:title="libbase::k60::FtmPwm">
<polygon fill="white" stroke="black" points="0,-0.5 0,-20.5 131,-20.5 131,-0.5 0,-0.5"/>
<text text-anchor="middle" x="65.5" y="-7.7" font-family="Open Sans" font-size="11.00">libbase::k60::FtmPwm</text>
</a>
</g>
</g>
<!-- Node1&#45;&gt;Node2 -->
<g id="edge1" class="edge"><title>Node1&#45;&gt;Node2</title>
<path fill="none" stroke="midnightblue" d="M119.173,-51.392C105.894,-41.5222 88.9911,-28.9596 77.7377,-20.5956"/>
<polygon fill="midnightblue" stroke="midnightblue" points="117.167,-54.2617 127.28,-57.4179 121.342,-48.6435 117.167,-54.2617"/>
</g>
<!-- Node3 -->
<g id="node3" class="node"><title>Node3</title>
<g id="a_node3"><a xlink:href="classlibbase_1_1k60_1_1_soft_pwm.xhtml" target="_top" xlink:title="Generate PWM signal using PIT and GPIO, only guarantee precision down to us level. ">
<polygon fill="white" stroke="black" points="149,-0.5 149,-20.5 280,-20.5 280,-0.5 149,-0.5"/>
<text text-anchor="middle" x="214.5" y="-7.7" font-family="Open Sans" font-size="11.00">libbase::k60::SoftPwm</text>
</a>
</g>
</g>
<!-- Node1&#45;&gt;Node3 -->
<g id="edge2" class="edge"><title>Node1&#45;&gt;Node3</title>
<path fill="none" stroke="midnightblue" d="M160.102,-51.392C173.561,-41.5222 190.691,-28.9596 202.097,-20.5956"/>
<polygon fill="midnightblue" stroke="midnightblue" points="157.879,-48.6818 151.885,-57.4179 162.019,-54.3266 157.879,-48.6818"/>
</g>
</g>
</svg>
