<?xml version="1.0" encoding="UTF-8" standalone="no"?>
<!DOCTYPE svg PUBLIC "-//W3C//DTD SVG 1.1//EN"
 "http://www.w3.org/Graphics/SVG/1.1/DTD/svg11.dtd">
<!-- Generated by graphviz version 2.38.0 (20140413.2041)
 -->
<!-- Title: libsc::k60::Motor Pages: 1 -->
<svg width="296pt" height="86pt"
 viewBox="0.00 0.00 296.00 86.00" xmlns="http://www.w3.org/2000/svg" xmlns:xlink="http://www.w3.org/1999/xlink">
<g id="graph0" class="graph" transform="scale(1 1) rotate(0) translate(4 82)">
<title>libsc::k60::Motor</title>
<polygon fill="white" stroke="none" points="-4,4 -4,-82 292,-82 292,4 -4,4"/>
<!-- Node1 -->
<g id="node1" class="node"><title>Node1</title>
<polygon fill="#bfbfbf" stroke="black" points="99.5,-57.5 99.5,-77.5 203.5,-77.5 203.5,-57.5 99.5,-57.5"/>
<text text-anchor="middle" x="151.5" y="-64.7" font-family="Open Sans" font-size="11.00">libsc::k60::Motor</text>
</g>
<!-- Node2 -->
<g id="node2" class="node"><title>Node2</title>
<g id="a_node2"><a xlink:href="classlibsc_1_1k60_1_1_alternate_motor.xhtml" target="_top" xlink:title="libsc::k60::AlternateMotor">
<polygon fill="white" stroke="black" points="0,-0.5 0,-20.5 151,-20.5 151,-0.5 0,-0.5"/>
<text text-anchor="middle" x="75.5" y="-7.7" font-family="Open Sans" font-size="11.00">libsc::k60::AlternateMotor</text>
</a>
</g>
</g>
<!-- Node1&#45;&gt;Node2 -->
<g id="edge1" class="edge"><title>Node1&#45;&gt;Node2</title>
<path fill="none" stroke="midnightblue" d="M130.624,-51.392C116.985,-41.5222 99.626,-28.9596 88.0685,-20.5956"/>
<polygon fill="midnightblue" stroke="midnightblue" points="128.797,-54.3906 138.95,-57.4179 132.901,-48.7197 128.797,-54.3906"/>
</g>
<!-- Node3 -->
<g id="node3" class="node"><title>Node3</title>
<g id="a_node3"><a xlink:href="classlibsc_1_1k60_1_1_dir_motor.xhtml" target="_top" xlink:title="libsc::k60::DirMotor">
<polygon fill="white" stroke="black" points="169,-0.5 169,-20.5 288,-20.5 288,-0.5 169,-0.5"/>
<text text-anchor="middle" x="228.5" y="-7.7" font-family="Open Sans" font-size="11.00">libsc::k60::DirMotor</text>
</a>
</g>
</g>
<!-- Node1&#45;&gt;Node3 -->
<g id="edge2" class="edge"><title>Node1&#45;&gt;Node3</title>
<path fill="none" stroke="midnightblue" d="M172.651,-51.392C186.469,-41.5222 204.057,-28.9596 215.766,-20.5956"/>
<polygon fill="midnightblue" stroke="midnightblue" points="170.318,-48.7574 164.215,-57.4179 174.387,-54.4535 170.318,-48.7574"/>
</g>
</g>
</svg>
