<?xml version="1.0" encoding="UTF-8" standalone="no"?>
<!DOCTYPE svg PUBLIC "-//W3C//DTD SVG 1.1//EN"
 "http://www.w3.org/Graphics/SVG/1.1/DTD/svg11.dtd">
<!-- Generated by graphviz version 2.38.0 (20140413.2041)
 -->
<!-- Title: libutil::IncrementalPidController&lt; InT_, OutT_ &gt; Pages: 1 -->
<svg width="223pt" height="114pt"
 viewBox="0.00 0.00 223.00 114.00" xmlns="http://www.w3.org/2000/svg" xmlns:xlink="http://www.w3.org/1999/xlink">
<g id="graph0" class="graph" transform="scale(1 1) rotate(0) translate(4 110)">
<title>libutil::IncrementalPidController&lt; InT_, OutT_ &gt;</title>
<polygon fill="white" stroke="none" points="-4,4 -4,-110 219,-110 219,4 -4,4"/>
<!-- Node1 -->
<g id="node1" class="node"><title>Node1</title>
<polygon fill="#bfbfbf" stroke="black" points="0,-0.5 0,-34.5 215,-34.5 215,-0.5 0,-0.5"/>
<text text-anchor="start" x="8" y="-20.9" font-family="Inconsolata" font-size="12.00">libutil::IncrementalPidController</text>
<text text-anchor="middle" x="107.5" y="-7.9" font-family="Inconsolata" font-size="12.00">&lt; InT_, OutT_ &gt;</text>
</g>
<!-- Node2 -->
<g id="node2" class="node"><title>Node2</title>
<g id="a_node2"><a xlink:href="classlibutil_1_1_pid_controller.xhtml" target="_top" xlink:title="libutil::PidController\l\&lt; InT_, OutT_ \&gt;">
<polygon fill="white" stroke="black" points="33,-71.5 33,-105.5 182,-105.5 182,-71.5 33,-71.5"/>
<text text-anchor="start" x="41" y="-91.9" font-family="Inconsolata" font-size="12.00">libutil::PidController</text>
<text text-anchor="middle" x="107.5" y="-78.9" font-family="Inconsolata" font-size="12.00">&lt; InT_, OutT_ &gt;</text>
</a>
</g>
</g>
<!-- Node2&#45;&gt;Node1 -->
<g id="edge1" class="edge"><title>Node2&#45;&gt;Node1</title>
<path fill="none" stroke="midnightblue" d="M107.5,-61.2468C107.5,-52.3917 107.5,-42.7667 107.5,-34.8958"/>
<polygon fill="midnightblue" stroke="midnightblue" points="104,-61.4965 107.5,-71.4966 111,-61.4966 104,-61.4965"/>
</g>
</g>
</svg>
