<?xml version="1.0" encoding="UTF-8" standalone="no"?>
<!DOCTYPE svg PUBLIC "-//W3C//DTD SVG 1.1//EN"
 "http://www.w3.org/Graphics/SVG/1.1/DTD/svg11.dtd">
<!-- Generated by graphviz version 2.38.0 (20140413.2041)
 -->
<!-- Title: libsc::Delay Pages: 1 -->
<svg width="419pt" height="88pt"
 viewBox="0.00 0.00 419.00 88.00" xmlns="http://www.w3.org/2000/svg" xmlns:xlink="http://www.w3.org/1999/xlink">
<g id="graph0" class="graph" transform="scale(1 1) rotate(0) translate(4 84)">
<title>libsc::Delay</title>
<polygon fill="white" stroke="none" points="-4,4 -4,-84 415,-84 415,4 -4,4"/>
<!-- Node1 -->
<g id="node1" class="node"><title>Node1</title>
<polygon fill="#bfbfbf" stroke="black" points="164,-58.5 164,-79.5 253,-79.5 253,-58.5 164,-58.5"/>
<text text-anchor="middle" x="208.5" y="-65.9" font-family="Inconsolata" font-size="12.00">libsc::Delay</text>
</g>
<!-- Node2 -->
<g id="node2" class="node"><title>Node2</title>
<g id="a_node2"><a xlink:href="classlibsc_1_1k60_1_1_dwt_delay.xhtml" target="_top" xlink:title="libsc::k60::DwtDelay">
<polygon fill="white" stroke="black" points="0,-0.5 0,-21.5 137,-21.5 137,-0.5 0,-0.5"/>
<text text-anchor="middle" x="68.5" y="-7.9" font-family="Inconsolata" font-size="12.00">libsc::k60::DwtDelay</text>
</a>
</g>
</g>
<!-- Node1&#45;&gt;Node2 -->
<g id="edge1" class="edge"><title>Node1&#45;&gt;Node2</title>
<path fill="none" stroke="midnightblue" d="M175.135,-54.6541C149.605,-44.4419 115.022,-30.6086 92.2528,-21.5011"/>
<polygon fill="midnightblue" stroke="midnightblue" points="173.848,-57.909 184.433,-58.3733 176.448,-51.4096 173.848,-57.909"/>
</g>
<!-- Node3 -->
<g id="node3" class="node"><title>Node3</title>
<g id="a_node3"><a xlink:href="classlibsc_1_1_pit_delay.xhtml" target="_top" xlink:title="libsc::PitDelay">
<polygon fill="white" stroke="black" points="155,-0.5 155,-21.5 262,-21.5 262,-0.5 155,-0.5"/>
<text text-anchor="middle" x="208.5" y="-7.9" font-family="Inconsolata" font-size="12.00">libsc::PitDelay</text>
</a>
</g>
</g>
<!-- Node1&#45;&gt;Node3 -->
<g id="edge2" class="edge"><title>Node1&#45;&gt;Node3</title>
<path fill="none" stroke="midnightblue" d="M208.5,-48.1575C208.5,-39.155 208.5,-28.9199 208.5,-21.6427"/>
<polygon fill="midnightblue" stroke="midnightblue" points="205,-48.2455 208.5,-58.2455 212,-48.2456 205,-48.2455"/>
</g>
<!-- Node4 -->
<g id="node4" class="node"><title>Node4</title>
<g id="a_node4"><a xlink:href="classlibsc_1_1_sys_tick_delay.xhtml" target="_top" xlink:title="libsc::SysTickDelay">
<polygon fill="white" stroke="black" points="280,-0.5 280,-21.5 411,-21.5 411,-0.5 280,-0.5"/>
<text text-anchor="middle" x="345.5" y="-7.9" font-family="Inconsolata" font-size="12.00">libsc::SysTickDelay</text>
</a>
</g>
</g>
<!-- Node1&#45;&gt;Node4 -->
<g id="edge3" class="edge"><title>Node1&#45;&gt;Node4</title>
<path fill="none" stroke="midnightblue" d="M241.481,-54.5189C266.431,-44.3201 300.073,-30.5685 322.256,-21.5011"/>
<polygon fill="midnightblue" stroke="midnightblue" points="239.983,-51.3497 232.051,-58.3733 242.632,-57.8293 239.983,-51.3497"/>
</g>
</g>
</svg>
