<?xml version="1.0" encoding="UTF-8" standalone="no"?>
<!DOCTYPE svg PUBLIC "-//W3C//DTD SVG 1.1//EN"
 "http://www.w3.org/Graphics/SVG/1.1/DTD/svg11.dtd">
<!-- Generated by graphviz version 2.38.0 (20140413.2041)
 -->
<!-- Title: libsc::k60::JyMcuBt106 Pages: 1 -->
<svg width="157pt" height="88pt"
 viewBox="0.00 0.00 157.00 88.00" xmlns="http://www.w3.org/2000/svg" xmlns:xlink="http://www.w3.org/1999/xlink">
<g id="graph0" class="graph" transform="scale(1 1) rotate(0) translate(4 84)">
<title>libsc::k60::JyMcuBt106</title>
<polygon fill="white" stroke="none" points="-4,4 -4,-84 153,-84 153,4 -4,4"/>
<!-- Node1 -->
<g id="node1" class="node"><title>Node1</title>
<polygon fill="#bfbfbf" stroke="black" points="-1.42109e-14,-0.5 -1.42109e-14,-21.5 149,-21.5 149,-0.5 -1.42109e-14,-0.5"/>
<text text-anchor="middle" x="74.5" y="-7.9" font-family="Inconsolata" font-size="12.00">libsc::k60::JyMcuBt106</text>
</g>
<!-- Node2 -->
<g id="node2" class="node"><title>Node2</title>
<g id="a_node2"><a xlink:href="classlibsc_1_1k60_1_1_uart_device.xhtml" target="_top" xlink:title="libsc::k60::UartDevice">
<polygon fill="white" stroke="black" points="-1.42109e-14,-58.5 -1.42109e-14,-79.5 149,-79.5 149,-58.5 -1.42109e-14,-58.5"/>
<text text-anchor="middle" x="74.5" y="-65.9" font-family="Inconsolata" font-size="12.00">libsc::k60::UartDevice</text>
</a>
</g>
</g>
<!-- Node2&#45;&gt;Node1 -->
<g id="edge1" class="edge"><title>Node2&#45;&gt;Node1</title>
<path fill="none" stroke="midnightblue" d="M74.5,-48.1575C74.5,-39.155 74.5,-28.9199 74.5,-21.6427"/>
<polygon fill="midnightblue" stroke="midnightblue" points="71.0001,-48.2455 74.5,-58.2455 78.0001,-48.2456 71.0001,-48.2455"/>
</g>
</g>
</svg>
