<?xml version="1.0" encoding="UTF-8" standalone="no"?>
<!DOCTYPE svg PUBLIC "-//W3C//DTD SVG 1.1//EN"
 "http://www.w3.org/Graphics/SVG/1.1/DTD/svg11.dtd">
<!-- Generated by graphviz version 2.38.0 (20140413.2041)
 -->
<!-- Title: libbase::k60::SpiMasterInterface Pages: 1 -->
<svg width="360pt" height="88pt"
 viewBox="0.00 0.00 360.00 88.00" xmlns="http://www.w3.org/2000/svg" xmlns:xlink="http://www.w3.org/1999/xlink">
<g id="graph0" class="graph" transform="scale(1 1) rotate(0) translate(4 84)">
<title>libbase::k60::SpiMasterInterface</title>
<polygon fill="white" stroke="none" points="-4,4 -4,-84 356,-84 356,4 -4,4"/>
<!-- Node1 -->
<g id="node1" class="node"><title>Node1</title>
<polygon fill="#bfbfbf" stroke="black" points="77,-58.5 77,-79.5 286,-79.5 286,-58.5 77,-58.5"/>
<text text-anchor="middle" x="181.5" y="-65.9" font-family="Inconsolata" font-size="12.00">libbase::k60::SpiMasterInterface</text>
</g>
<!-- Node2 -->
<g id="node2" class="node"><title>Node2</title>
<g id="a_node2"><a xlink:href="classlibbase_1_1k60_1_1_soft_spi_master.xhtml" target="_top" xlink:title="libbase::k60::SoftSpiMaster">
<polygon fill="white" stroke="black" points="0,-0.5 0,-21.5 179,-21.5 179,-0.5 0,-0.5"/>
<text text-anchor="middle" x="89.5" y="-7.9" font-family="Inconsolata" font-size="12.00">libbase::k60::SoftSpiMaster</text>
</a>
</g>
</g>
<!-- Node1&#45;&gt;Node2 -->
<g id="edge1" class="edge"><title>Node1&#45;&gt;Node2</title>
<path fill="none" stroke="midnightblue" d="M156.478,-52.769C140.175,-42.8456 119.399,-30.1994 105.342,-21.6427"/>
<polygon fill="midnightblue" stroke="midnightblue" points="155.113,-56.0357 165.475,-58.2455 158.753,-50.0563 155.113,-56.0357"/>
</g>
<!-- Node3 -->
<g id="node3" class="node"><title>Node3</title>
<g id="a_node3"><a xlink:href="classlibbase_1_1k60_1_1_spi_master.xhtml" target="_top" xlink:title="libbase::k60::SpiMaster">
<polygon fill="white" stroke="black" points="197,-0.5 197,-21.5 352,-21.5 352,-0.5 197,-0.5"/>
<text text-anchor="middle" x="274.5" y="-7.9" font-family="Inconsolata" font-size="12.00">libbase::k60::SpiMaster</text>
</a>
</g>
</g>
<!-- Node1&#45;&gt;Node3 -->
<g id="edge2" class="edge"><title>Node1&#45;&gt;Node3</title>
<path fill="none" stroke="midnightblue" d="M206.334,-53.0465C222.881,-43.0824 244.143,-30.2794 258.486,-21.6427"/>
<polygon fill="midnightblue" stroke="midnightblue" points="204.461,-50.0886 197.699,-58.2455 208.072,-56.0854 204.461,-50.0886"/>
</g>
</g>
</svg>
