<?xml version="1.0" encoding="UTF-8" standalone="no"?>
<!DOCTYPE svg PUBLIC "-//W3C//DTD SVG 1.1//EN"
 "http://www.w3.org/Graphics/SVG/1.1/DTD/svg11.dtd">
<!-- Generated by graphviz version 2.38.0 (20140413.2041)
 -->
<!-- Title: libbase::kl26::Pwm Pages: 1 -->
<svg width="318pt" height="88pt"
 viewBox="0.00 0.00 318.00 88.00" xmlns="http://www.w3.org/2000/svg" xmlns:xlink="http://www.w3.org/1999/xlink">
<g id="graph0" class="graph" transform="scale(1 1) rotate(0) translate(4 84)">
<title>libbase::kl26::Pwm</title>
<polygon fill="white" stroke="none" points="-4,4 -4,-84 314,-84 314,4 -4,4"/>
<!-- Node1 -->
<g id="node1" class="node"><title>Node1</title>
<polygon fill="#bfbfbf" stroke="black" points="94,-58.5 94,-79.5 219,-79.5 219,-58.5 94,-58.5"/>
<text text-anchor="middle" x="156.5" y="-65.9" font-family="Inconsolata" font-size="12.00">libbase::kl26::Pwm</text>
</g>
<!-- Node2 -->
<g id="node2" class="node"><title>Node2</title>
<g id="a_node2"><a xlink:href="classlibbase_1_1kl26_1_1_soft_pwm.xhtml" target="_top" xlink:title="Generate PWM signal using PIT and GPIO, only guarantee precision down to us level. ">
<polygon fill="white" stroke="black" points="0,-0.5 0,-21.5 149,-21.5 149,-0.5 0,-0.5"/>
<text text-anchor="middle" x="74.5" y="-7.9" font-family="Inconsolata" font-size="12.00">libbase::kl26::SoftPwm</text>
</a>
</g>
</g>
<!-- Node1&#45;&gt;Node2 -->
<g id="edge1" class="edge"><title>Node1&#45;&gt;Node2</title>
<path fill="none" stroke="midnightblue" d="M133.789,-52.49C119.321,-42.6096 101.032,-30.1194 88.6196,-21.6427"/>
<polygon fill="midnightblue" stroke="midnightblue" points="131.985,-55.4962 142.217,-58.2455 135.933,-49.7156 131.985,-55.4962"/>
</g>
<!-- Node3 -->
<g id="node3" class="node"><title>Node3</title>
<g id="a_node3"><a xlink:href="classlibbase_1_1kl26_1_1_tpm_pwm.xhtml" target="_top" xlink:title="libbase::kl26::TpmPwm">
<polygon fill="white" stroke="black" points="167,-0.5 167,-21.5 310,-21.5 310,-0.5 167,-0.5"/>
<text text-anchor="middle" x="238.5" y="-7.9" font-family="Inconsolata" font-size="12.00">libbase::kl26::TpmPwm</text>
</a>
</g>
</g>
<!-- Node1&#45;&gt;Node3 -->
<g id="edge2" class="edge"><title>Node1&#45;&gt;Node3</title>
<path fill="none" stroke="midnightblue" d="M179.211,-52.49C193.679,-42.6096 211.968,-30.1194 224.38,-21.6427"/>
<polygon fill="midnightblue" stroke="midnightblue" points="177.067,-49.7156 170.783,-58.2455 181.015,-55.4962 177.067,-49.7156"/>
</g>
</g>
</svg>
