<?xml version="1.0" encoding="UTF-8" standalone="no"?>
<!DOCTYPE svg PUBLIC "-//W3C//DTD SVG 1.1//EN"
 "http://www.w3.org/Graphics/SVG/1.1/DTD/svg11.dtd">
<!-- Generated by graphviz version 2.38.0 (20140413.2041)
 -->
<!-- Title: libsc::k60::UartDevice Pages: 1 -->
<svg width="286pt" height="86pt"
 viewBox="0.00 0.00 285.50 86.00" xmlns="http://www.w3.org/2000/svg" xmlns:xlink="http://www.w3.org/1999/xlink">
<g id="graph0" class="graph" transform="scale(1 1) rotate(0) translate(4 82)">
<title>libsc::k60::UartDevice</title>
<polygon fill="white" stroke="none" points="-4,4 -4,-82 281.5,-82 281.5,4 -4,4"/>
<!-- Node1 -->
<g id="node1" class="node"><title>Node1</title>
<polygon fill="#bfbfbf" stroke="black" points="72.5,-57.5 72.5,-77.5 200.5,-77.5 200.5,-57.5 72.5,-57.5"/>
<text text-anchor="middle" x="136.5" y="-64.7" font-family="Open Sans" font-size="11.00">libsc::k60::UartDevice</text>
</g>
<!-- Node2 -->
<g id="node2" class="node"><title>Node2</title>
<g id="a_node2"><a xlink:href="classlibsc_1_1k60_1_1_ftdi_ft232r.xhtml" target="_top" xlink:title="libsc::k60::FtdiFt232r">
<polygon fill="white" stroke="black" points="0,-0.5 0,-20.5 125,-20.5 125,-0.5 0,-0.5"/>
<text text-anchor="middle" x="62.5" y="-7.7" font-family="Open Sans" font-size="11.00">libsc::k60::FtdiFt232r</text>
</a>
</g>
</g>
<!-- Node1&#45;&gt;Node2 -->
<g id="edge1" class="edge"><title>Node1&#45;&gt;Node2</title>
<path fill="none" stroke="midnightblue" d="M116.173,-51.392C102.894,-41.5222 85.9911,-28.9596 74.7377,-20.5956"/>
<polygon fill="midnightblue" stroke="midnightblue" points="114.167,-54.2617 124.28,-57.4179 118.342,-48.6435 114.167,-54.2617"/>
</g>
<!-- Node3 -->
<g id="node3" class="node"><title>Node3</title>
<g id="a_node3"><a xlink:href="classlibsc_1_1k60_1_1_jy_mcu_bt106.xhtml" target="_top" xlink:title="libsc::k60::JyMcuBt106">
<polygon fill="white" stroke="black" points="143.5,-0.5 143.5,-20.5 277.5,-20.5 277.5,-0.5 143.5,-0.5"/>
<text text-anchor="middle" x="210.5" y="-7.7" font-family="Open Sans" font-size="11.00">libsc::k60::JyMcuBt106</text>
</a>
</g>
</g>
<!-- Node1&#45;&gt;Node3 -->
<g id="edge2" class="edge"><title>Node1&#45;&gt;Node3</title>
<path fill="none" stroke="midnightblue" d="M156.827,-51.392C170.106,-41.5222 187.009,-28.9596 198.262,-20.5956"/>
<polygon fill="midnightblue" stroke="midnightblue" points="154.658,-48.6435 148.72,-57.4179 158.833,-54.2617 154.658,-48.6435"/>
</g>
</g>
</svg>
