<?xml version="1.0" encoding="UTF-8" standalone="no"?>
<!DOCTYPE svg PUBLIC "-//W3C//DTD SVG 1.1//EN"
 "http://www.w3.org/Graphics/SVG/1.1/DTD/svg11.dtd">
<!-- Generated by graphviz version 2.38.0 (20140413.2041)
 -->
<!-- Title: libsc::k60::UartDevice Pages: 1 -->
<svg width="324pt" height="88pt"
 viewBox="0.00 0.00 324.00 88.00" xmlns="http://www.w3.org/2000/svg" xmlns:xlink="http://www.w3.org/1999/xlink">
<g id="graph0" class="graph" transform="scale(1 1) rotate(0) translate(4 84)">
<title>libsc::k60::UartDevice</title>
<polygon fill="white" stroke="none" points="-4,4 -4,-84 320,-84 320,4 -4,4"/>
<!-- Node1 -->
<g id="node1" class="node"><title>Node1</title>
<polygon fill="#bfbfbf" stroke="black" points="83,-58.5 83,-79.5 232,-79.5 232,-58.5 83,-58.5"/>
<text text-anchor="middle" x="157.5" y="-65.9" font-family="Inconsolata" font-size="12.00">libsc::k60::UartDevice</text>
</g>
<!-- Node2 -->
<g id="node2" class="node"><title>Node2</title>
<g id="a_node2"><a xlink:href="classlibsc_1_1k60_1_1_ftdi_ft232r.xhtml" target="_top" xlink:title="libsc::k60::FtdiFt232r">
<polygon fill="white" stroke="black" points="0,-0.5 0,-21.5 149,-21.5 149,-0.5 0,-0.5"/>
<text text-anchor="middle" x="74.5" y="-7.9" font-family="Inconsolata" font-size="12.00">libsc::k60::FtdiFt232r</text>
</a>
</g>
</g>
<!-- Node1&#45;&gt;Node2 -->
<g id="edge1" class="edge"><title>Node1&#45;&gt;Node2</title>
<path fill="none" stroke="midnightblue" d="M134.512,-52.49C119.868,-42.6096 101.356,-30.1194 88.7918,-21.6427"/>
<polygon fill="midnightblue" stroke="midnightblue" points="132.795,-55.5539 143.043,-58.2455 136.71,-49.7511 132.795,-55.5539"/>
</g>
<!-- Node3 -->
<g id="node3" class="node"><title>Node3</title>
<g id="a_node3"><a xlink:href="classlibsc_1_1k60_1_1_jy_mcu_bt106.xhtml" target="_top" xlink:title="libsc::k60::JyMcuBt106">
<polygon fill="white" stroke="black" points="167,-0.5 167,-21.5 316,-21.5 316,-0.5 167,-0.5"/>
<text text-anchor="middle" x="241.5" y="-7.9" font-family="Inconsolata" font-size="12.00">libsc::k60::JyMcuBt106</text>
</a>
</g>
</g>
<!-- Node1&#45;&gt;Node3 -->
<g id="edge2" class="edge"><title>Node1&#45;&gt;Node3</title>
<path fill="none" stroke="midnightblue" d="M180.765,-52.49C195.586,-42.6096 214.321,-30.1194 227.036,-21.6427"/>
<polygon fill="midnightblue" stroke="midnightblue" points="178.511,-49.7863 172.132,-58.2455 182.394,-55.6107 178.511,-49.7863"/>
</g>
</g>
</svg>
