<?xml version="1.0" encoding="UTF-8" standalone="no"?>
<!DOCTYPE svg PUBLIC "-//W3C//DTD SVG 1.1//EN"
 "http://www.w3.org/Graphics/SVG/1.1/DTD/svg11.dtd">
<!-- Generated by graphviz version 2.38.0 (20140413.2041)
 -->
<!-- Title: libbase::k60::Pwm Pages: 1 -->
<svg width="306pt" height="88pt"
 viewBox="0.00 0.00 306.00 88.00" xmlns="http://www.w3.org/2000/svg" xmlns:xlink="http://www.w3.org/1999/xlink">
<g id="graph0" class="graph" transform="scale(1 1) rotate(0) translate(4 84)">
<title>libbase::k60::Pwm</title>
<polygon fill="white" stroke="none" points="-4,4 -4,-84 302,-84 302,4 -4,4"/>
<!-- Node1 -->
<g id="node1" class="node"><title>Node1</title>
<polygon fill="#bfbfbf" stroke="black" points="88,-58.5 88,-79.5 207,-79.5 207,-58.5 88,-58.5"/>
<text text-anchor="middle" x="147.5" y="-65.9" font-family="Inconsolata" font-size="12.00">libbase::k60::Pwm</text>
</g>
<!-- Node2 -->
<g id="node2" class="node"><title>Node2</title>
<g id="a_node2"><a xlink:href="classlibbase_1_1k60_1_1_ftm_pwm.xhtml" target="_top" xlink:title="libbase::k60::FtmPwm">
<polygon fill="white" stroke="black" points="0,-0.5 0,-21.5 137,-21.5 137,-0.5 0,-0.5"/>
<text text-anchor="middle" x="68.5" y="-7.9" font-family="Inconsolata" font-size="12.00">libbase::k60::FtmPwm</text>
</a>
</g>
</g>
<!-- Node1&#45;&gt;Node2 -->
<g id="edge1" class="edge"><title>Node1&#45;&gt;Node2</title>
<path fill="none" stroke="midnightblue" d="M125.224,-52.2097C111.349,-42.3743 93.9485,-30.0394 82.1031,-21.6427"/>
<polygon fill="midnightblue" stroke="midnightblue" points="123.557,-55.3178 133.739,-58.2455 127.605,-49.6071 123.557,-55.3178"/>
</g>
<!-- Node3 -->
<g id="node3" class="node"><title>Node3</title>
<g id="a_node3"><a xlink:href="classlibbase_1_1k60_1_1_soft_pwm.xhtml" target="_top" xlink:title="Generate PWM signal using PIT and GPIO, only guarantee precision down to us level. ">
<polygon fill="white" stroke="black" points="155,-0.5 155,-21.5 298,-21.5 298,-0.5 155,-0.5"/>
<text text-anchor="middle" x="226.5" y="-7.9" font-family="Inconsolata" font-size="12.00">libbase::k60::SoftPwm</text>
</a>
</g>
</g>
<!-- Node1&#45;&gt;Node3 -->
<g id="edge2" class="edge"><title>Node1&#45;&gt;Node3</title>
<path fill="none" stroke="midnightblue" d="M169.776,-52.2097C183.651,-42.3743 201.051,-30.0394 212.897,-21.6427"/>
<polygon fill="midnightblue" stroke="midnightblue" points="167.395,-49.6071 161.261,-58.2455 171.443,-55.3178 167.395,-49.6071"/>
</g>
</g>
</svg>
