<?xml version="1.0" encoding="UTF-8" standalone="no"?>
<!DOCTYPE svg PUBLIC "-//W3C//DTD SVG 1.1//EN"
 "http://www.w3.org/Graphics/SVG/1.1/DTD/svg11.dtd">
<!-- Generated by graphviz version 2.38.0 (20140413.2041)
 -->
<!-- Title: libsc::k60::Encoder Pages: 1 -->
<svg width="284pt" height="86pt"
 viewBox="0.00 0.00 283.50 86.00" xmlns="http://www.w3.org/2000/svg" xmlns:xlink="http://www.w3.org/1999/xlink">
<g id="graph0" class="graph" transform="scale(1 1) rotate(0) translate(4 82)">
<title>libsc::k60::Encoder</title>
<polygon fill="white" stroke="none" points="-4,4 -4,-82 279.5,-82 279.5,4 -4,4"/>
<!-- Node1 -->
<g id="node1" class="node"><title>Node1</title>
<polygon fill="#bfbfbf" stroke="black" points="80.5,-57.5 80.5,-77.5 193.5,-77.5 193.5,-57.5 80.5,-57.5"/>
<text text-anchor="middle" x="137" y="-64.7" font-family="Open Sans" font-size="11.00">libsc::k60::Encoder</text>
</g>
<!-- Node2 -->
<g id="node2" class="node"><title>Node2</title>
<g id="a_node2"><a xlink:href="classlibsc_1_1k60_1_1_ab_encoder.xhtml" target="_top" xlink:title="libsc::k60::AbEncoder">
<polygon fill="white" stroke="black" points="0,-0.5 0,-20.5 128,-20.5 128,-0.5 0,-0.5"/>
<text text-anchor="middle" x="64" y="-7.7" font-family="Open Sans" font-size="11.00">libsc::k60::AbEncoder</text>
</a>
</g>
</g>
<!-- Node1&#45;&gt;Node2 -->
<g id="edge1" class="edge"><title>Node1&#45;&gt;Node2</title>
<path fill="none" stroke="midnightblue" d="M116.626,-51.15C103.672,-41.3899 87.3257,-29.0742 76.3164,-20.7795"/>
<polygon fill="midnightblue" stroke="midnightblue" points="114.853,-54.1957 124.946,-57.4179 119.065,-48.6049 114.853,-54.1957"/>
</g>
<!-- Node3 -->
<g id="node3" class="node"><title>Node3</title>
<g id="a_node3"><a xlink:href="classlibsc_1_1k60_1_1_dir_encoder.xhtml" target="_top" xlink:title="libsc::k60::DirEncoder">
<polygon fill="white" stroke="black" points="146.5,-0.5 146.5,-20.5 275.5,-20.5 275.5,-0.5 146.5,-0.5"/>
<text text-anchor="middle" x="211" y="-7.7" font-family="Open Sans" font-size="11.00">libsc::k60::DirEncoder</text>
</a>
</g>
</g>
<!-- Node1&#45;&gt;Node3 -->
<g id="edge2" class="edge"><title>Node1&#45;&gt;Node3</title>
<path fill="none" stroke="midnightblue" d="M157.327,-51.392C170.606,-41.5222 187.509,-28.9596 198.762,-20.5956"/>
<polygon fill="midnightblue" stroke="midnightblue" points="155.158,-48.6435 149.22,-57.4179 159.333,-54.2617 155.158,-48.6435"/>
</g>
</g>
</svg>
