<?xml version="1.0" encoding="UTF-8" standalone="no"?>
<!DOCTYPE svg PUBLIC "-//W3C//DTD SVG 1.1//EN"
 "http://www.w3.org/Graphics/SVG/1.1/DTD/svg11.dtd">
<!-- Generated by graphviz version 2.38.0 (20140413.2041)
 -->
<!-- Title: libsc::k60::Servo Pages: 1 -->
<svg width="452pt" height="86pt"
 viewBox="0.00 0.00 451.50 86.00" xmlns="http://www.w3.org/2000/svg" xmlns:xlink="http://www.w3.org/1999/xlink">
<g id="graph0" class="graph" transform="scale(1 1) rotate(0) translate(4 82)">
<title>libsc::k60::Servo</title>
<polygon fill="white" stroke="none" points="-4,4 -4,-82 447.5,-82 447.5,4 -4,4"/>
<!-- Node1 -->
<g id="node1" class="node"><title>Node1</title>
<polygon fill="#bfbfbf" stroke="black" points="186.5,-57.5 186.5,-77.5 287.5,-77.5 287.5,-57.5 186.5,-57.5"/>
<text text-anchor="middle" x="237" y="-64.7" font-family="Open Sans" font-size="11.00">libsc::k60::Servo</text>
</g>
<!-- Node2 -->
<g id="node2" class="node"><title>Node2</title>
<g id="a_node2"><a xlink:href="classlibsc_1_1k60_1_1_futaba_s3010.xhtml" target="_top" xlink:title="libsc::k60::FutabaS3010">
<polygon fill="white" stroke="black" points="0,-0.5 0,-20.5 140,-20.5 140,-0.5 0,-0.5"/>
<text text-anchor="middle" x="70" y="-7.7" font-family="Open Sans" font-size="11.00">libsc::k60::FutabaS3010</text>
</a>
</g>
</g>
<!-- Node1&#45;&gt;Node2 -->
<g id="edge1" class="edge"><title>Node1&#45;&gt;Node2</title>
<path fill="none" stroke="midnightblue" d="M199.821,-54.2554C168.784,-44.0336 125.257,-29.6983 97.3401,-20.5042"/>
<polygon fill="midnightblue" stroke="midnightblue" points="198.83,-57.614 209.423,-57.4179 201.02,-50.9653 198.83,-57.614"/>
</g>
<!-- Node3 -->
<g id="node3" class="node"><title>Node3</title>
<g id="a_node3"><a xlink:href="classlibsc_1_1k60_1_1_tower_pro_mg995.xhtml" target="_top" xlink:title="libsc::k60::TowerProMg995">
<polygon fill="white" stroke="black" points="158,-0.5 158,-20.5 316,-20.5 316,-0.5 158,-0.5"/>
<text text-anchor="middle" x="237" y="-7.7" font-family="Open Sans" font-size="11.00">libsc::k60::TowerProMg995</text>
</a>
</g>
</g>
<!-- Node1&#45;&gt;Node3 -->
<g id="edge2" class="edge"><title>Node1&#45;&gt;Node3</title>
<path fill="none" stroke="midnightblue" d="M237,-47.383C237,-38.3738 237,-28.0373 237,-20.7795"/>
<polygon fill="midnightblue" stroke="midnightblue" points="233.5,-47.4178 237,-57.4179 240.5,-47.4179 233.5,-47.4178"/>
</g>
<!-- Node4 -->
<g id="node4" class="node"><title>Node4</title>
<g id="a_node4"><a xlink:href="classlibsc_1_1k60_1_1_trs_d05.xhtml" target="_top" xlink:title="libsc::k60::TrsD05">
<polygon fill="white" stroke="black" points="334.5,-0.5 334.5,-20.5 443.5,-20.5 443.5,-0.5 334.5,-0.5"/>
<text text-anchor="middle" x="389" y="-7.7" font-family="Open Sans" font-size="11.00">libsc::k60::TrsD05</text>
</a>
</g>
</g>
<!-- Node1&#45;&gt;Node4 -->
<g id="edge3" class="edge"><title>Node1&#45;&gt;Node4</title>
<path fill="none" stroke="midnightblue" d="M271.576,-53.989C299.774,-43.7858 338.927,-29.6186 364.116,-20.5042"/>
<polygon fill="midnightblue" stroke="midnightblue" points="270.312,-50.7241 262.1,-57.4179 272.694,-57.3064 270.312,-50.7241"/>
</g>
</g>
</svg>
