<?xml version="1.0" encoding="UTF-8" standalone="no"?>
<!DOCTYPE svg PUBLIC "-//W3C//DTD SVG 1.1//EN"
 "http://www.w3.org/Graphics/SVG/1.1/DTD/svg11.dtd">
<!-- Generated by graphviz version 2.38.0 (20140413.2041)
 -->
<!-- Title: libbase::kl26::QuadDecoderInterface Pages: 1 -->
<svg width="414pt" height="101pt"
 viewBox="0.00 0.00 414.00 101.00" xmlns="http://www.w3.org/2000/svg" xmlns:xlink="http://www.w3.org/1999/xlink">
<g id="graph0" class="graph" transform="scale(1 1) rotate(0) translate(4 97)">
<title>libbase::kl26::QuadDecoderInterface</title>
<polygon fill="white" stroke="none" points="-4,4 -4,-97 410,-97 410,4 -4,4"/>
<!-- Node1 -->
<g id="node1" class="node"><title>Node1</title>
<polygon fill="#bfbfbf" stroke="black" points="118,-58.5 118,-92.5 291,-92.5 291,-58.5 118,-58.5"/>
<text text-anchor="start" x="126" y="-78.9" font-family="Inconsolata" font-size="12.00">libbase::kl26::QuadDecoder</text>
<text text-anchor="middle" x="204.5" y="-65.9" font-family="Inconsolata" font-size="12.00">Interface</text>
</g>
<!-- Node2 -->
<g id="node2" class="node"><title>Node2</title>
<g id="a_node2"><a xlink:href="classlibbase_1_1kl26_1_1_soft_quad_decoder.xhtml" target="_top" xlink:title="Software emulated quadrature decoding using pin interrupt and GPIO. ">
<polygon fill="white" stroke="black" points="0,-0.5 0,-21.5 197,-21.5 197,-0.5 0,-0.5"/>
<text text-anchor="middle" x="98.5" y="-7.9" font-family="Inconsolata" font-size="12.00">libbase::kl26::SoftQuadDecoder</text>
</a>
</g>
</g>
<!-- Node1&#45;&gt;Node2 -->
<g id="edge1" class="edge"><title>Node1&#45;&gt;Node2</title>
<path fill="none" stroke="midnightblue" d="M168.54,-53.2974C150.314,-42.5508 129.079,-30.0301 114.81,-21.6169"/>
<polygon fill="midnightblue" stroke="midnightblue" points="166.811,-56.3405 177.202,-58.4047 170.366,-50.3106 166.811,-56.3405"/>
</g>
<!-- Node3 -->
<g id="node3" class="node"><title>Node3</title>
<g id="a_node3"><a xlink:href="classlibbase_1_1kl26_1_1_tpm_quad_decoder.xhtml" target="_top" xlink:title="libbase::kl26::TpmQuadDecoder">
<polygon fill="white" stroke="black" points="215,-0.5 215,-21.5 406,-21.5 406,-0.5 215,-0.5"/>
<text text-anchor="middle" x="310.5" y="-7.9" font-family="Inconsolata" font-size="12.00">libbase::kl26::TpmQuadDecoder</text>
</a>
</g>
</g>
<!-- Node1&#45;&gt;Node3 -->
<g id="edge2" class="edge"><title>Node1&#45;&gt;Node3</title>
<path fill="none" stroke="midnightblue" d="M240.46,-53.2974C258.686,-42.5508 279.921,-30.0301 294.19,-21.6169"/>
<polygon fill="midnightblue" stroke="midnightblue" points="238.634,-50.3106 231.798,-58.4047 242.189,-56.3405 238.634,-50.3106"/>
</g>
</g>
</svg>
