<?xml version="1.0" encoding="UTF-8" standalone="no"?>
<!DOCTYPE svg PUBLIC "-//W3C//DTD SVG 1.1//EN"
 "http://www.w3.org/Graphics/SVG/1.1/DTD/svg11.dtd">
<!-- Generated by graphviz version 2.38.0 (20140413.2041)
 -->
<!-- Title: libbase::kl26::I2cMasterInterface Pages: 1 -->
<svg width="372pt" height="101pt"
 viewBox="0.00 0.00 372.00 101.00" xmlns="http://www.w3.org/2000/svg" xmlns:xlink="http://www.w3.org/1999/xlink">
<g id="graph0" class="graph" transform="scale(1 1) rotate(0) translate(4 97)">
<title>libbase::kl26::I2cMasterInterface</title>
<polygon fill="white" stroke="none" points="-4,4 -4,-97 368,-97 368,4 -4,4"/>
<!-- Node1 -->
<g id="node1" class="node"><title>Node1</title>
<polygon fill="#bfbfbf" stroke="black" points="95,-58.5 95,-92.5 256,-92.5 256,-58.5 95,-58.5"/>
<text text-anchor="start" x="103" y="-78.9" font-family="Inconsolata" font-size="12.00">libbase::kl26::I2cMaster</text>
<text text-anchor="middle" x="175.5" y="-65.9" font-family="Inconsolata" font-size="12.00">Interface</text>
</g>
<!-- Node2 -->
<g id="node2" class="node"><title>Node2</title>
<g id="a_node2"><a xlink:href="classlibbase_1_1kl26_1_1_i2c_master.xhtml" target="_top" xlink:title="libbase::kl26::I2cMaster">
<polygon fill="white" stroke="black" points="0,-0.5 0,-21.5 161,-21.5 161,-0.5 0,-0.5"/>
<text text-anchor="middle" x="80.5" y="-7.9" font-family="Inconsolata" font-size="12.00">libbase::kl26::I2cMaster</text>
</a>
</g>
</g>
<!-- Node1&#45;&gt;Node2 -->
<g id="edge1" class="edge"><title>Node1&#45;&gt;Node2</title>
<path fill="none" stroke="midnightblue" d="M142.378,-52.7095C126.247,-42.0968 107.673,-29.8772 95.1177,-21.6169"/>
<polygon fill="midnightblue" stroke="midnightblue" points="140.757,-55.8325 151.035,-58.4047 144.605,-49.9845 140.757,-55.8325"/>
</g>
<!-- Node3 -->
<g id="node3" class="node"><title>Node3</title>
<g id="a_node3"><a xlink:href="classlibbase_1_1kl26_1_1_soft_i2c_master.xhtml" target="_top" xlink:title="libbase::kl26::SoftI2cMaster">
<polygon fill="white" stroke="black" points="179,-0.5 179,-21.5 364,-21.5 364,-0.5 179,-0.5"/>
<text text-anchor="middle" x="271.5" y="-7.9" font-family="Inconsolata" font-size="12.00">libbase::kl26::SoftI2cMaster</text>
</a>
</g>
</g>
<!-- Node1&#45;&gt;Node3 -->
<g id="edge2" class="edge"><title>Node1&#45;&gt;Node3</title>
<path fill="none" stroke="midnightblue" d="M208.97,-52.7095C225.271,-42.0968 244.041,-29.8772 256.728,-21.6169"/>
<polygon fill="midnightblue" stroke="midnightblue" points="206.693,-50.0155 200.222,-58.4047 210.512,-55.8818 206.693,-50.0155"/>
</g>
</g>
</svg>
