<?xml version="1.0" encoding="UTF-8" standalone="no"?>
<!DOCTYPE svg PUBLIC "-//W3C//DTD SVG 1.1//EN"
 "http://www.w3.org/Graphics/SVG/1.1/DTD/svg11.dtd">
<!-- Generated by graphviz version 2.38.0 (20140413.2041)
 -->
<!-- Title: libbase::k60::QuadDecoderInterface Pages: 1 -->
<svg width="402pt" height="101pt"
 viewBox="0.00 0.00 402.00 101.00" xmlns="http://www.w3.org/2000/svg" xmlns:xlink="http://www.w3.org/1999/xlink">
<g id="graph0" class="graph" transform="scale(1 1) rotate(0) translate(4 97)">
<title>libbase::k60::QuadDecoderInterface</title>
<polygon fill="white" stroke="none" points="-4,4 -4,-97 398,-97 398,4 -4,4"/>
<!-- Node1 -->
<g id="node1" class="node"><title>Node1</title>
<polygon fill="#bfbfbf" stroke="black" points="112,-58.5 112,-92.5 279,-92.5 279,-58.5 112,-58.5"/>
<text text-anchor="start" x="120" y="-78.9" font-family="Inconsolata" font-size="12.00">libbase::k60::QuadDecoder</text>
<text text-anchor="middle" x="195.5" y="-65.9" font-family="Inconsolata" font-size="12.00">Interface</text>
</g>
<!-- Node2 -->
<g id="node2" class="node"><title>Node2</title>
<g id="a_node2"><a xlink:href="classlibbase_1_1k60_1_1_ftm_quad_decoder.xhtml" target="_top" xlink:title="libbase::k60::FtmQuadDecoder">
<polygon fill="white" stroke="black" points="0,-0.5 0,-21.5 185,-21.5 185,-0.5 0,-0.5"/>
<text text-anchor="middle" x="92.5" y="-7.9" font-family="Inconsolata" font-size="12.00">libbase::k60::FtmQuadDecoder</text>
</a>
</g>
</g>
<!-- Node1&#45;&gt;Node2 -->
<g id="edge1" class="edge"><title>Node1&#45;&gt;Node2</title>
<path fill="none" stroke="midnightblue" d="M160.074,-53.0038C142.473,-42.3235 122.088,-29.9537 108.349,-21.6169"/>
<polygon fill="midnightblue" stroke="midnightblue" points="158.61,-56.2093 168.975,-58.4047 162.241,-50.2248 158.61,-56.2093"/>
</g>
<!-- Node3 -->
<g id="node3" class="node"><title>Node3</title>
<g id="a_node3"><a xlink:href="classlibbase_1_1k60_1_1_soft_quad_decoder.xhtml" target="_top" xlink:title="Software emulated quadrature decoding using pin interrupt and GPIO. ">
<polygon fill="white" stroke="black" points="203,-0.5 203,-21.5 394,-21.5 394,-0.5 203,-0.5"/>
<text text-anchor="middle" x="298.5" y="-7.9" font-family="Inconsolata" font-size="12.00">libbase::k60::SoftQuadDecoder</text>
</a>
</g>
</g>
<!-- Node1&#45;&gt;Node3 -->
<g id="edge2" class="edge"><title>Node1&#45;&gt;Node3</title>
<path fill="none" stroke="midnightblue" d="M230.926,-53.0038C248.527,-42.3235 268.912,-29.9537 282.651,-21.6169"/>
<polygon fill="midnightblue" stroke="midnightblue" points="228.759,-50.2248 222.025,-58.4047 232.39,-56.2093 228.759,-50.2248"/>
</g>
</g>
</svg>
