<?xml version="1.0" encoding="UTF-8" standalone="no"?>
<!DOCTYPE svg PUBLIC "-//W3C//DTD SVG 1.1//EN"
 "http://www.w3.org/Graphics/SVG/1.1/DTD/svg11.dtd">
<!-- Generated by graphviz version 2.38.0 (20140413.2041)
 -->
<!-- Title: libbase::k60::QuadDecoderInterface Pages: 1 -->
<svg width="380pt" height="98pt"
 viewBox="0.00 0.00 380.00 98.00" xmlns="http://www.w3.org/2000/svg" xmlns:xlink="http://www.w3.org/1999/xlink">
<g id="graph0" class="graph" transform="scale(1 1) rotate(0) translate(4 94)">
<title>libbase::k60::QuadDecoderInterface</title>
<polygon fill="white" stroke="none" points="-4,4 -4,-94 376,-94 376,4 -4,4"/>
<!-- Node1 -->
<g id="node1" class="node"><title>Node1</title>
<polygon fill="#bfbfbf" stroke="black" points="107,-57.5 107,-89.5 264,-89.5 264,-57.5 107,-57.5"/>
<text text-anchor="start" x="115" y="-76.7" font-family="Open Sans" font-size="11.00">libbase::k60::QuadDecoder</text>
<text text-anchor="middle" x="185.5" y="-64.7" font-family="Open Sans" font-size="11.00">Interface</text>
</g>
<!-- Node2 -->
<g id="node2" class="node"><title>Node2</title>
<g id="a_node2"><a xlink:href="classlibbase_1_1k60_1_1_ftm_quad_decoder.xhtml" target="_top" xlink:title="libbase::k60::FtmQuadDecoder">
<polygon fill="white" stroke="black" points="0,-0.5 0,-20.5 177,-20.5 177,-0.5 0,-0.5"/>
<text text-anchor="middle" x="88.5" y="-7.7" font-family="Open Sans" font-size="11.00">libbase::k60::FtmQuadDecoder</text>
</a>
</g>
</g>
<!-- Node1&#45;&gt;Node2 -->
<g id="edge1" class="edge"><title>Node1&#45;&gt;Node2</title>
<path fill="none" stroke="midnightblue" d="M152.957,-52.0348C135.966,-41.35 116.035,-28.8161 102.884,-20.5459"/>
<polygon fill="midnightblue" stroke="midnightblue" points="151.194,-55.0606 161.522,-57.4213 154.92,-49.135 151.194,-55.0606"/>
</g>
<!-- Node3 -->
<g id="node3" class="node"><title>Node3</title>
<g id="a_node3"><a xlink:href="classlibbase_1_1k60_1_1_soft_quad_decoder.xhtml" target="_top" xlink:title="libbase::k60::SoftQuadDecoder">
<polygon fill="white" stroke="black" points="195,-0.5 195,-20.5 372,-20.5 372,-0.5 195,-0.5"/>
<text text-anchor="middle" x="283.5" y="-7.7" font-family="Open Sans" font-size="11.00">libbase::k60::SoftQuadDecoder</text>
</a>
</g>
</g>
<!-- Node1&#45;&gt;Node3 -->
<g id="edge2" class="edge"><title>Node1&#45;&gt;Node3</title>
<path fill="none" stroke="midnightblue" d="M218.378,-52.0348C235.544,-41.35 255.681,-28.8161 268.967,-20.5459"/>
<polygon fill="midnightblue" stroke="midnightblue" points="216.365,-49.1655 209.725,-57.4213 220.064,-55.1083 216.365,-49.1655"/>
</g>
</g>
</svg>
