<?xml version="1.0" encoding="UTF-8" standalone="no"?>
<!DOCTYPE svg PUBLIC "-//W3C//DTD SVG 1.1//EN"
 "http://www.w3.org/Graphics/SVG/1.1/DTD/svg11.dtd">
<!-- Generated by graphviz version 2.38.0 (20140413.2041)
 -->
<!-- Title: libsc::Servo Pages: 1 -->
<svg width="401pt" height="88pt"
 viewBox="0.00 0.00 401.00 88.00" xmlns="http://www.w3.org/2000/svg" xmlns:xlink="http://www.w3.org/1999/xlink">
<g id="graph0" class="graph" transform="scale(1 1) rotate(0) translate(4 84)">
<title>libsc::Servo</title>
<polygon fill="white" stroke="none" points="-4,4 -4,-84 397,-84 397,4 -4,4"/>
<!-- Node1 -->
<g id="node1" class="node"><title>Node1</title>
<polygon fill="#bfbfbf" stroke="black" points="167,-58.5 167,-79.5 256,-79.5 256,-58.5 167,-58.5"/>
<text text-anchor="middle" x="211.5" y="-65.9" font-family="Inconsolata" font-size="12.00">libsc::Servo</text>
</g>
<!-- Node2 -->
<g id="node2" class="node"><title>Node2</title>
<g id="a_node2"><a xlink:href="classlibsc_1_1_futaba_s3010.xhtml" target="_top" xlink:title="Futaba S3010 RC servo. ">
<polygon fill="white" stroke="black" points="0,-0.5 0,-21.5 125,-21.5 125,-0.5 0,-0.5"/>
<text text-anchor="middle" x="62.5" y="-7.9" font-family="Inconsolata" font-size="12.00">libsc::FutabaS3010</text>
</a>
</g>
</g>
<!-- Node1&#45;&gt;Node2 -->
<g id="edge1" class="edge"><title>Node1&#45;&gt;Node2</title>
<path fill="none" stroke="midnightblue" d="M176.349,-54.7888C149.143,-44.5639 112.119,-30.6488 87.7798,-21.5011"/>
<polygon fill="midnightblue" stroke="midnightblue" points="175.294,-58.1313 185.886,-58.3733 177.757,-51.5788 175.294,-58.1313"/>
</g>
<!-- Node3 -->
<g id="node3" class="node"><title>Node3</title>
<g id="a_node3"><a xlink:href="classlibsc_1_1_tower_pro_mg995.xhtml" target="_top" xlink:title="TowerPro MG995 RC servo. ">
<polygon fill="white" stroke="black" points="143,-0.5 143,-21.5 280,-21.5 280,-0.5 143,-0.5"/>
<text text-anchor="middle" x="211.5" y="-7.9" font-family="Inconsolata" font-size="12.00">libsc::TowerProMg995</text>
</a>
</g>
</g>
<!-- Node1&#45;&gt;Node3 -->
<g id="edge2" class="edge"><title>Node1&#45;&gt;Node3</title>
<path fill="none" stroke="midnightblue" d="M211.5,-48.1575C211.5,-39.155 211.5,-28.9199 211.5,-21.6427"/>
<polygon fill="midnightblue" stroke="midnightblue" points="208,-48.2455 211.5,-58.2455 215,-48.2456 208,-48.2455"/>
</g>
<!-- Node4 -->
<g id="node4" class="node"><title>Node4</title>
<g id="a_node4"><a xlink:href="classlibsc_1_1_trs_d05.xhtml" target="_top" xlink:title="TRS&#45;D05 RC servo. ">
<polygon fill="white" stroke="black" points="298,-0.5 298,-21.5 393,-21.5 393,-0.5 298,-0.5"/>
<text text-anchor="middle" x="345.5" y="-7.9" font-family="Inconsolata" font-size="12.00">libsc::TrsD05</text>
</a>
</g>
</g>
<!-- Node1&#45;&gt;Node4 -->
<g id="edge3" class="edge"><title>Node1&#45;&gt;Node4</title>
<path fill="none" stroke="midnightblue" d="M244.083,-54.3833C268.454,-44.1985 301.164,-30.5284 322.765,-21.5011"/>
<polygon fill="midnightblue" stroke="midnightblue" points="242.413,-51.2879 234.535,-58.3733 245.112,-57.7466 242.413,-51.2879"/>
</g>
</g>
</svg>
