<?xml version="1.0" encoding="UTF-8" standalone="no"?>
<!DOCTYPE svg PUBLIC "-//W3C//DTD SVG 1.1//EN"
 "http://www.w3.org/Graphics/SVG/1.1/DTD/svg11.dtd">
<!-- Generated by graphviz version 2.38.0 (20140413.2041)
 -->
<!-- Title: libsc::Timer Pages: 1 -->
<svg width="437pt" height="88pt"
 viewBox="0.00 0.00 437.00 88.00" xmlns="http://www.w3.org/2000/svg" xmlns:xlink="http://www.w3.org/1999/xlink">
<g id="graph0" class="graph" transform="scale(1 1) rotate(0) translate(4 84)">
<title>libsc::Timer</title>
<polygon fill="white" stroke="none" points="-4,4 -4,-84 433,-84 433,4 -4,4"/>
<!-- Node1 -->
<g id="node1" class="node"><title>Node1</title>
<polygon fill="#bfbfbf" stroke="black" points="182,-58.5 182,-79.5 271,-79.5 271,-58.5 182,-58.5"/>
<text text-anchor="middle" x="226.5" y="-65.9" font-family="Inconsolata" font-size="12.00">libsc::Timer</text>
</g>
<!-- Node2 -->
<g id="node2" class="node"><title>Node2</title>
<g id="a_node2"><a xlink:href="classlibsc_1_1kl26_1_1_lptmr_timer.xhtml" target="_top" xlink:title="libsc::kl26::LptmrTimer">
<polygon fill="white" stroke="black" points="0,-0.5 0,-21.5 155,-21.5 155,-0.5 0,-0.5"/>
<text text-anchor="middle" x="77.5" y="-7.9" font-family="Inconsolata" font-size="12.00">libsc::kl26::LptmrTimer</text>
</a>
</g>
</g>
<!-- Node1&#45;&gt;Node2 -->
<g id="edge1" class="edge"><title>Node1&#45;&gt;Node2</title>
<path fill="none" stroke="midnightblue" d="M191.349,-54.7888C164.143,-44.5639 127.119,-30.6488 102.78,-21.5011"/>
<polygon fill="midnightblue" stroke="midnightblue" points="190.294,-58.1313 200.886,-58.3733 192.757,-51.5788 190.294,-58.1313"/>
</g>
<!-- Node3 -->
<g id="node3" class="node"><title>Node3</title>
<g id="a_node3"><a xlink:href="classlibsc_1_1_pit_timer.xhtml" target="_top" xlink:title="libsc::PitTimer">
<polygon fill="white" stroke="black" points="173,-0.5 173,-21.5 280,-21.5 280,-0.5 173,-0.5"/>
<text text-anchor="middle" x="226.5" y="-7.9" font-family="Inconsolata" font-size="12.00">libsc::PitTimer</text>
</a>
</g>
</g>
<!-- Node1&#45;&gt;Node3 -->
<g id="edge2" class="edge"><title>Node1&#45;&gt;Node3</title>
<path fill="none" stroke="midnightblue" d="M226.5,-48.1575C226.5,-39.155 226.5,-28.9199 226.5,-21.6427"/>
<polygon fill="midnightblue" stroke="midnightblue" points="223,-48.2455 226.5,-58.2455 230,-48.2456 223,-48.2455"/>
</g>
<!-- Node4 -->
<g id="node4" class="node"><title>Node4</title>
<g id="a_node4"><a xlink:href="classlibsc_1_1_sys_tick_timer.xhtml" target="_top" xlink:title="libsc::SysTickTimer">
<polygon fill="white" stroke="black" points="298,-0.5 298,-21.5 429,-21.5 429,-0.5 298,-0.5"/>
<text text-anchor="middle" x="363.5" y="-7.9" font-family="Inconsolata" font-size="12.00">libsc::SysTickTimer</text>
</a>
</g>
</g>
<!-- Node1&#45;&gt;Node4 -->
<g id="edge3" class="edge"><title>Node1&#45;&gt;Node4</title>
<path fill="none" stroke="midnightblue" d="M259.481,-54.5189C284.431,-44.3201 318.073,-30.5685 340.256,-21.5011"/>
<polygon fill="midnightblue" stroke="midnightblue" points="257.983,-51.3497 250.051,-58.3733 260.632,-57.8293 257.983,-51.3497"/>
</g>
</g>
</svg>
