<?xml version="1.0" encoding="UTF-8" standalone="no"?>
<!DOCTYPE svg PUBLIC "-//W3C//DTD SVG 1.1//EN"
 "http://www.w3.org/Graphics/SVG/1.1/DTD/svg11.dtd">
<!-- Generated by graphviz version 2.38.0 (20140413.2041)
 -->
<!-- Title: libbase::k60::I2cMasterInterface Pages: 1 -->
<svg width="360pt" height="88pt"
 viewBox="0.00 0.00 360.00 88.00" xmlns="http://www.w3.org/2000/svg" xmlns:xlink="http://www.w3.org/1999/xlink">
<g id="graph0" class="graph" transform="scale(1 1) rotate(0) translate(4 84)">
<title>libbase::k60::I2cMasterInterface</title>
<polygon fill="white" stroke="none" points="-4,4 -4,-84 356,-84 356,4 -4,4"/>
<!-- Node1 -->
<g id="node1" class="node"><title>Node1</title>
<polygon fill="#bfbfbf" stroke="black" points="65,-58.5 65,-79.5 274,-79.5 274,-58.5 65,-58.5"/>
<text text-anchor="middle" x="169.5" y="-65.9" font-family="Inconsolata" font-size="12.00">libbase::k60::I2cMasterInterface</text>
</g>
<!-- Node2 -->
<g id="node2" class="node"><title>Node2</title>
<g id="a_node2"><a xlink:href="classlibbase_1_1k60_1_1_i2c_master.xhtml" target="_top" xlink:title="libbase::k60::I2cMaster">
<polygon fill="white" stroke="black" points="0,-0.5 0,-21.5 155,-21.5 155,-0.5 0,-0.5"/>
<text text-anchor="middle" x="77.5" y="-7.9" font-family="Inconsolata" font-size="12.00">libbase::k60::I2cMaster</text>
</a>
</g>
</g>
<!-- Node1&#45;&gt;Node2 -->
<g id="edge1" class="edge"><title>Node1&#45;&gt;Node2</title>
<path fill="none" stroke="midnightblue" d="M144.478,-52.769C128.175,-42.8456 107.399,-30.1994 93.3415,-21.6427"/>
<polygon fill="midnightblue" stroke="midnightblue" points="143.113,-56.0357 153.475,-58.2455 146.753,-50.0563 143.113,-56.0357"/>
</g>
<!-- Node3 -->
<g id="node3" class="node"><title>Node3</title>
<g id="a_node3"><a xlink:href="classlibbase_1_1k60_1_1_soft_i2c_master.xhtml" target="_top" xlink:title="libbase::k60::SoftI2cMaster">
<polygon fill="white" stroke="black" points="173,-0.5 173,-21.5 352,-21.5 352,-0.5 173,-0.5"/>
<text text-anchor="middle" x="262.5" y="-7.9" font-family="Inconsolata" font-size="12.00">libbase::k60::SoftI2cMaster</text>
</a>
</g>
</g>
<!-- Node1&#45;&gt;Node3 -->
<g id="edge2" class="edge"><title>Node1&#45;&gt;Node3</title>
<path fill="none" stroke="midnightblue" d="M194.334,-53.0465C210.881,-43.0824 232.143,-30.2794 246.486,-21.6427"/>
<polygon fill="midnightblue" stroke="midnightblue" points="192.461,-50.0886 185.699,-58.2455 196.072,-56.0854 192.461,-50.0886"/>
</g>
</g>
</svg>
