<?xml version="1.0" encoding="UTF-8" standalone="no"?>
<!DOCTYPE svg PUBLIC "-//W3C//DTD SVG 1.1//EN"
 "http://www.w3.org/Graphics/SVG/1.1/DTD/svg11.dtd">
<!-- Generated by graphviz version 2.38.0 (20140413.2041)
 -->
<!-- Title: libbase::k60::FtmQuadDecoder Pages: 1 -->
<svg width="185pt" height="98pt"
 viewBox="0.00 0.00 185.00 98.00" xmlns="http://www.w3.org/2000/svg" xmlns:xlink="http://www.w3.org/1999/xlink">
<g id="graph0" class="graph" transform="scale(1 1) rotate(0) translate(4 94)">
<title>libbase::k60::FtmQuadDecoder</title>
<polygon fill="white" stroke="none" points="-4,4 -4,-94 181,-94 181,4 -4,4"/>
<!-- Node1 -->
<g id="node1" class="node"><title>Node1</title>
<polygon fill="#bfbfbf" stroke="black" points="-1.42109e-14,-0.5 -1.42109e-14,-20.5 177,-20.5 177,-0.5 -1.42109e-14,-0.5"/>
<text text-anchor="middle" x="88.5" y="-7.7" font-family="Open Sans" font-size="11.00">libbase::k60::FtmQuadDecoder</text>
</g>
<!-- Node2 -->
<g id="node2" class="node"><title>Node2</title>
<g id="a_node2"><a xlink:href="classlibbase_1_1k60_1_1_quad_decoder_interface.xhtml" target="_top" xlink:title="libbase::k60::QuadDecoder\lInterface">
<polygon fill="white" stroke="black" points="10,-57.5 10,-89.5 167,-89.5 167,-57.5 10,-57.5"/>
<text text-anchor="start" x="18" y="-76.7" font-family="Open Sans" font-size="11.00">libbase::k60::QuadDecoder</text>
<text text-anchor="middle" x="88.5" y="-64.7" font-family="Open Sans" font-size="11.00">Interface</text>
</a>
</g>
</g>
<!-- Node2&#45;&gt;Node1 -->
<g id="edge1" class="edge"><title>Node2&#45;&gt;Node1</title>
<path fill="none" stroke="midnightblue" d="M88.5,-47.2294C88.5,-37.7622 88.5,-27.6021 88.5,-20.5459"/>
<polygon fill="midnightblue" stroke="midnightblue" points="85.0001,-47.4213 88.5,-57.4213 92.0001,-47.4214 85.0001,-47.4213"/>
</g>
</g>
</svg>
