<?xml version="1.0" encoding="UTF-8" standalone="no"?>
<!DOCTYPE svg PUBLIC "-//W3C//DTD SVG 1.1//EN"
 "http://www.w3.org/Graphics/SVG/1.1/DTD/svg11.dtd">
<!-- Generated by graphviz version 2.38.0 (20140413.2041)
 -->
<!-- Title: libutil::PidController&lt; InT_, OutT_ &gt; Pages: 1 -->
<svg width="346pt" height="92pt"
 viewBox="0.00 0.00 346.00 92.00" xmlns="http://www.w3.org/2000/svg" xmlns:xlink="http://www.w3.org/1999/xlink">
<g id="graph0" class="graph" transform="scale(1 1) rotate(0) translate(4 88)">
<title>libutil::PidController&lt; InT_, OutT_ &gt;</title>
<polygon fill="white" stroke="none" points="-4,4 -4,-88 342,-88 342,4 -4,4"/>
<!-- Node1 -->
<g id="node1" class="node"><title>Node1</title>
<polygon fill="#bfbfbf" stroke="black" points="0,-25.5 0,-57.5 120,-57.5 120,-25.5 0,-25.5"/>
<text text-anchor="start" x="8" y="-44.7" font-family="Open Sans" font-size="11.00">libutil::PidController</text>
<text text-anchor="middle" x="60" y="-32.7" font-family="Open Sans" font-size="11.00">&lt; InT_, OutT_ &gt;</text>
</g>
<!-- Node2 -->
<g id="node2" class="node"><title>Node2</title>
<g id="a_node2"><a xlink:href="classlibutil_1_1_incremental_pid_controller.xhtml" target="_top" xlink:title="libutil::IncrementalPidController\l\&lt; InT_, OutT_ \&gt;">
<polygon fill="white" stroke="black" points="156,-51.5 156,-83.5 338,-83.5 338,-51.5 156,-51.5"/>
<text text-anchor="start" x="164" y="-70.7" font-family="Open Sans" font-size="11.00">libutil::IncrementalPidController</text>
<text text-anchor="middle" x="247" y="-58.7" font-family="Open Sans" font-size="11.00">&lt; InT_, OutT_ &gt;</text>
</a>
</g>
</g>
<!-- Node1&#45;&gt;Node2 -->
<g id="edge1" class="edge"><title>Node1&#45;&gt;Node2</title>
<path fill="none" stroke="midnightblue" d="M130.124,-51.2148C138.517,-52.3943 147.184,-53.6124 155.824,-54.8267"/>
<polygon fill="midnightblue" stroke="midnightblue" points="130.434,-47.7239 120.044,-49.798 129.459,-54.6558 130.434,-47.7239"/>
</g>
<!-- Node3 -->
<g id="node3" class="node"><title>Node3</title>
<g id="a_node3"><a xlink:href="classlibutil_1_1_positional_pid_controller.xhtml" target="_top" xlink:title="libutil::PositionalPidController\l\&lt; InT_, OutT_ \&gt;">
<polygon fill="white" stroke="black" points="161.5,-0.5 161.5,-32.5 332.5,-32.5 332.5,-0.5 161.5,-0.5"/>
<text text-anchor="start" x="169.5" y="-19.7" font-family="Open Sans" font-size="11.00">libutil::PositionalPidController</text>
<text text-anchor="middle" x="247" y="-7.7" font-family="Open Sans" font-size="11.00">&lt; InT_, OutT_ &gt;</text>
</a>
</g>
</g>
<!-- Node1&#45;&gt;Node3 -->
<g id="edge2" class="edge"><title>Node1&#45;&gt;Node3</title>
<path fill="none" stroke="midnightblue" d="M130.053,-32.1686C140.216,-30.7951 150.784,-29.3671 161.22,-27.9568"/>
<polygon fill="midnightblue" stroke="midnightblue" points="129.485,-28.7134 120.044,-33.5211 130.422,-35.6503 129.485,-28.7134"/>
</g>
</g>
</svg>
