<?xml version="1.0" encoding="UTF-8" standalone="no"?>
<!DOCTYPE svg PUBLIC "-//W3C//DTD SVG 1.1//EN"
 "http://www.w3.org/Graphics/SVG/1.1/DTD/svg11.dtd">
<!-- Generated by graphviz version 2.38.0 (20140413.2041)
 -->
<!-- Title: libsc::Encoder Pages: 1 -->
<svg width="258pt" height="88pt"
 viewBox="0.00 0.00 258.00 88.00" xmlns="http://www.w3.org/2000/svg" xmlns:xlink="http://www.w3.org/1999/xlink">
<g id="graph0" class="graph" transform="scale(1 1) rotate(0) translate(4 84)">
<title>libsc::Encoder</title>
<polygon fill="white" stroke="none" points="-4,4 -4,-84 254,-84 254,4 -4,4"/>
<!-- Node1 -->
<g id="node1" class="node"><title>Node1</title>
<polygon fill="#bfbfbf" stroke="black" points="73,-58.5 73,-79.5 174,-79.5 174,-58.5 73,-58.5"/>
<text text-anchor="middle" x="123.5" y="-65.9" font-family="Inconsolata" font-size="12.00">libsc::Encoder</text>
</g>
<!-- Node2 -->
<g id="node2" class="node"><title>Node2</title>
<g id="a_node2"><a xlink:href="classlibsc_1_1_ab_encoder.xhtml" target="_top" xlink:title="Phase A/B encoder. ">
<polygon fill="white" stroke="black" points="0,-0.5 0,-21.5 113,-21.5 113,-0.5 0,-0.5"/>
<text text-anchor="middle" x="56.5" y="-7.9" font-family="Inconsolata" font-size="12.00">libsc::AbEncoder</text>
</a>
</g>
</g>
<!-- Node1&#45;&gt;Node2 -->
<g id="edge1" class="edge"><title>Node1&#45;&gt;Node2</title>
<path fill="none" stroke="midnightblue" d="M103.932,-51.645C92.2802,-41.9058 77.8916,-29.8795 68.0368,-21.6427"/>
<polygon fill="midnightblue" stroke="midnightblue" points="101.912,-54.5179 111.829,-58.2455 106.401,-49.1469 101.912,-54.5179"/>
</g>
<!-- Node3 -->
<g id="node3" class="node"><title>Node3</title>
<g id="a_node3"><a xlink:href="classlibsc_1_1_dir_encoder.xhtml" target="_top" xlink:title="libsc::DirEncoder">
<polygon fill="white" stroke="black" points="131,-0.5 131,-21.5 250,-21.5 250,-0.5 131,-0.5"/>
<text text-anchor="middle" x="190.5" y="-7.9" font-family="Inconsolata" font-size="12.00">libsc::DirEncoder</text>
</a>
</g>
</g>
<!-- Node1&#45;&gt;Node3 -->
<g id="edge2" class="edge"><title>Node1&#45;&gt;Node3</title>
<path fill="none" stroke="midnightblue" d="M143.068,-51.645C154.72,-41.9058 169.108,-29.8795 178.963,-21.6427"/>
<polygon fill="midnightblue" stroke="midnightblue" points="140.599,-49.1469 135.171,-58.2455 145.088,-54.5179 140.599,-49.1469"/>
</g>
</g>
</svg>
