<?xml version="1.0" encoding="UTF-8" standalone="no"?>
<!DOCTYPE svg PUBLIC "-//W3C//DTD SVG 1.1//EN"
 "http://www.w3.org/Graphics/SVG/1.1/DTD/svg11.dtd">
<!-- Generated by graphviz version 2.38.0 (20140413.2041)
 -->
<!-- Title: libsc::Motor Pages: 1 -->
<svg width="276pt" height="88pt"
 viewBox="0.00 0.00 276.00 88.00" xmlns="http://www.w3.org/2000/svg" xmlns:xlink="http://www.w3.org/1999/xlink">
<g id="graph0" class="graph" transform="scale(1 1) rotate(0) translate(4 84)">
<title>libsc::Motor</title>
<polygon fill="white" stroke="none" points="-4,4 -4,-84 272,-84 272,4 -4,4"/>
<!-- Node1 -->
<g id="node1" class="node"><title>Node1</title>
<polygon fill="#bfbfbf" stroke="black" points="98,-58.5 98,-79.5 187,-79.5 187,-58.5 98,-58.5"/>
<text text-anchor="middle" x="142.5" y="-65.9" font-family="Inconsolata" font-size="12.00">libsc::Motor</text>
</g>
<!-- Node2 -->
<g id="node2" class="node"><title>Node2</title>
<g id="a_node2"><a xlink:href="classlibsc_1_1_alternate_motor.xhtml" target="_top" xlink:title="libsc::AlternateMotor">
<polygon fill="white" stroke="black" points="0,-0.5 0,-21.5 143,-21.5 143,-0.5 0,-0.5"/>
<text text-anchor="middle" x="71.5" y="-7.9" font-family="Inconsolata" font-size="12.00">libsc::AlternateMotor</text>
</a>
</g>
</g>
<!-- Node1&#45;&gt;Node2 -->
<g id="edge1" class="edge"><title>Node1&#45;&gt;Node2</title>
<path fill="none" stroke="midnightblue" d="M122.123,-51.928C109.713,-42.1397 94.27,-29.9595 83.7255,-21.6427"/>
<polygon fill="midnightblue" stroke="midnightblue" points="120.114,-54.8007 130.133,-58.2455 124.449,-49.3046 120.114,-54.8007"/>
</g>
<!-- Node3 -->
<g id="node3" class="node"><title>Node3</title>
<g id="a_node3"><a xlink:href="classlibsc_1_1_dir_motor.xhtml" target="_top" xlink:title="libsc::DirMotor">
<polygon fill="white" stroke="black" points="161,-0.5 161,-21.5 268,-21.5 268,-0.5 161,-0.5"/>
<text text-anchor="middle" x="214.5" y="-7.9" font-family="Inconsolata" font-size="12.00">libsc::DirMotor</text>
</a>
</g>
</g>
<!-- Node1&#45;&gt;Node3 -->
<g id="edge2" class="edge"><title>Node1&#45;&gt;Node3</title>
<path fill="none" stroke="midnightblue" d="M163.164,-51.928C175.749,-42.1397 191.409,-29.9595 202.102,-21.6427"/>
<polygon fill="midnightblue" stroke="midnightblue" points="160.786,-49.3434 155.041,-58.2455 165.084,-54.8688 160.786,-49.3434"/>
</g>
</g>
</svg>
