<?xml version="1.0" encoding="UTF-8" standalone="no"?>
<!DOCTYPE svg PUBLIC "-//W3C//DTD SVG 1.1//EN"
 "http://www.w3.org/Graphics/SVG/1.1/DTD/svg11.dtd">
<!-- Generated by graphviz version 2.38.0 (20140413.2041)
 -->
<!-- Title: libsc::k60::Timer Pages: 1 -->
<svg width="280pt" height="86pt"
 viewBox="0.00 0.00 280.00 86.00" xmlns="http://www.w3.org/2000/svg" xmlns:xlink="http://www.w3.org/1999/xlink">
<g id="graph0" class="graph" transform="scale(1 1) rotate(0) translate(4 82)">
<title>libsc::k60::Timer</title>
<polygon fill="white" stroke="none" points="-4,4 -4,-82 276,-82 276,4 -4,4"/>
<!-- Node1 -->
<g id="node1" class="node"><title>Node1</title>
<polygon fill="#bfbfbf" stroke="black" points="79,-57.5 79,-77.5 180,-77.5 180,-57.5 79,-57.5"/>
<text text-anchor="middle" x="129.5" y="-64.7" font-family="Open Sans" font-size="11.00">libsc::k60::Timer</text>
</g>
<!-- Node2 -->
<g id="node2" class="node"><title>Node2</title>
<g id="a_node2"><a xlink:href="classlibsc_1_1k60_1_1_pit_timer.xhtml" target="_top" xlink:title="libsc::k60::PitTimer">
<polygon fill="white" stroke="black" points="0,-0.5 0,-20.5 115,-20.5 115,-0.5 0,-0.5"/>
<text text-anchor="middle" x="57.5" y="-7.7" font-family="Open Sans" font-size="11.00">libsc::k60::PitTimer</text>
</a>
</g>
</g>
<!-- Node1&#45;&gt;Node2 -->
<g id="edge1" class="edge"><title>Node1&#45;&gt;Node2</title>
<path fill="none" stroke="midnightblue" d="M109.405,-51.15C96.6287,-41.3899 80.5062,-29.0742 69.6477,-20.7795"/>
<polygon fill="midnightblue" stroke="midnightblue" points="107.539,-54.1288 117.611,-57.4179 111.789,-48.5661 107.539,-54.1288"/>
</g>
<!-- Node3 -->
<g id="node3" class="node"><title>Node3</title>
<g id="a_node3"><a xlink:href="classlibsc_1_1k60_1_1_sys_tick_timer.xhtml" target="_top" xlink:title="libsc::k60::SysTickTimer">
<polygon fill="white" stroke="black" points="133,-0.5 133,-20.5 272,-20.5 272,-0.5 133,-0.5"/>
<text text-anchor="middle" x="202.5" y="-7.7" font-family="Open Sans" font-size="11.00">libsc::k60::SysTickTimer</text>
</a>
</g>
</g>
<!-- Node1&#45;&gt;Node3 -->
<g id="edge2" class="edge"><title>Node1&#45;&gt;Node3</title>
<path fill="none" stroke="midnightblue" d="M149.874,-51.15C162.828,-41.3899 179.174,-29.0742 190.184,-20.7795"/>
<polygon fill="midnightblue" stroke="midnightblue" points="147.435,-48.6049 141.554,-57.4179 151.647,-54.1957 147.435,-48.6049"/>
</g>
</g>
</svg>
