<?xml version="1.0" encoding="UTF-8" standalone="no"?>
<!DOCTYPE svg PUBLIC "-//W3C//DTD SVG 1.1//EN"
 "http://www.w3.org/Graphics/SVG/1.1/DTD/svg11.dtd">
<!-- Generated by graphviz version 2.38.0 (20140413.2041)
 -->
<!-- Title: libbase::kl26::SpiMasterInterface Pages: 1 -->
<svg width="193pt" height="101pt"
 viewBox="0.00 0.00 193.00 101.00" xmlns="http://www.w3.org/2000/svg" xmlns:xlink="http://www.w3.org/1999/xlink">
<g id="graph0" class="graph" transform="scale(1 1) rotate(0) translate(4 97)">
<title>libbase::kl26::SpiMasterInterface</title>
<polygon fill="white" stroke="none" points="-4,4 -4,-97 189,-97 189,4 -4,4"/>
<!-- Node1 -->
<g id="node1" class="node"><title>Node1</title>
<polygon fill="#bfbfbf" stroke="black" points="12,-58.5 12,-92.5 173,-92.5 173,-58.5 12,-58.5"/>
<text text-anchor="start" x="20" y="-78.9" font-family="Inconsolata" font-size="12.00">libbase::kl26::SpiMaster</text>
<text text-anchor="middle" x="92.5" y="-65.9" font-family="Inconsolata" font-size="12.00">Interface</text>
</g>
<!-- Node2 -->
<g id="node2" class="node"><title>Node2</title>
<g id="a_node2"><a xlink:href="classlibbase_1_1kl26_1_1_soft_spi_master.xhtml" target="_top" xlink:title="libbase::kl26::SoftSpiMaster">
<polygon fill="white" stroke="black" points="-1.42109e-14,-0.5 -1.42109e-14,-21.5 185,-21.5 185,-0.5 -1.42109e-14,-0.5"/>
<text text-anchor="middle" x="92.5" y="-7.9" font-family="Inconsolata" font-size="12.00">libbase::kl26::SoftSpiMaster</text>
</a>
</g>
</g>
<!-- Node1&#45;&gt;Node2 -->
<g id="edge1" class="edge"><title>Node1&#45;&gt;Node2</title>
<path fill="none" stroke="midnightblue" d="M92.5,-48.2756C92.5,-38.9065 92.5,-28.9184 92.5,-21.8"/>
<polygon fill="midnightblue" stroke="midnightblue" points="89.0001,-48.4047 92.5,-58.4047 96.0001,-48.4047 89.0001,-48.4047"/>
</g>
</g>
</svg>
