<?xml version="1.0" encoding="UTF-8" standalone="no"?>
<!DOCTYPE svg PUBLIC "-//W3C//DTD SVG 1.1//EN"
 "http://www.w3.org/Graphics/SVG/1.1/DTD/svg11.dtd">
<!-- Generated by graphviz version 2.38.0 (20140413.2041)
 -->
<!-- Title: libsc::k60::Delay Pages: 1 -->
<svg width="418pt" height="86pt"
 viewBox="0.00 0.00 418.00 86.00" xmlns="http://www.w3.org/2000/svg" xmlns:xlink="http://www.w3.org/1999/xlink">
<g id="graph0" class="graph" transform="scale(1 1) rotate(0) translate(4 82)">
<title>libsc::k60::Delay</title>
<polygon fill="white" stroke="none" points="-4,4 -4,-82 414,-82 414,4 -4,4"/>
<!-- Node1 -->
<g id="node1" class="node"><title>Node1</title>
<polygon fill="#bfbfbf" stroke="black" points="146.5,-57.5 146.5,-77.5 247.5,-77.5 247.5,-57.5 146.5,-57.5"/>
<text text-anchor="middle" x="197" y="-64.7" font-family="Open Sans" font-size="11.00">libsc::k60::Delay</text>
</g>
<!-- Node2 -->
<g id="node2" class="node"><title>Node2</title>
<g id="a_node2"><a xlink:href="classlibsc_1_1k60_1_1_dwt_delay.xhtml" target="_top" xlink:title="libsc::k60::DwtDelay">
<polygon fill="white" stroke="black" points="0,-0.5 0,-20.5 122,-20.5 122,-0.5 0,-0.5"/>
<text text-anchor="middle" x="61" y="-7.7" font-family="Open Sans" font-size="11.00">libsc::k60::DwtDelay</text>
</a>
</g>
</g>
<!-- Node1&#45;&gt;Node2 -->
<g id="edge1" class="edge"><title>Node1&#45;&gt;Node2</title>
<path fill="none" stroke="midnightblue" d="M165.097,-53.598C140.031,-43.4609 105.749,-29.5969 83.491,-20.5956"/>
<polygon fill="midnightblue" stroke="midnightblue" points="163.96,-56.9134 174.542,-57.4179 166.584,-50.424 163.96,-56.9134"/>
</g>
<!-- Node3 -->
<g id="node3" class="node"><title>Node3</title>
<g id="a_node3"><a xlink:href="classlibsc_1_1k60_1_1_pit_delay.xhtml" target="_top" xlink:title="libsc::k60::PitDelay">
<polygon fill="white" stroke="black" points="140,-0.5 140,-20.5 254,-20.5 254,-0.5 140,-0.5"/>
<text text-anchor="middle" x="197" y="-7.7" font-family="Open Sans" font-size="11.00">libsc::k60::PitDelay</text>
</a>
</g>
</g>
<!-- Node1&#45;&gt;Node3 -->
<g id="edge2" class="edge"><title>Node1&#45;&gt;Node3</title>
<path fill="none" stroke="midnightblue" d="M197,-47.383C197,-38.3738 197,-28.0373 197,-20.7795"/>
<polygon fill="midnightblue" stroke="midnightblue" points="193.5,-47.4178 197,-57.4179 200.5,-47.4179 193.5,-47.4178"/>
</g>
<!-- Node4 -->
<g id="node4" class="node"><title>Node4</title>
<g id="a_node4"><a xlink:href="classlibsc_1_1k60_1_1_sys_tick_delay.xhtml" target="_top" xlink:title="libsc::k60::SysTickDelay">
<polygon fill="white" stroke="black" points="272,-0.5 272,-20.5 410,-20.5 410,-0.5 272,-0.5"/>
<text text-anchor="middle" x="341" y="-7.7" font-family="Open Sans" font-size="11.00">libsc::k60::SysTickDelay</text>
</a>
</g>
</g>
<!-- Node1&#45;&gt;Node4 -->
<g id="edge3" class="edge"><title>Node1&#45;&gt;Node4</title>
<path fill="none" stroke="midnightblue" d="M230.428,-53.7324C256.999,-43.5837 293.515,-29.6367 317.186,-20.5956"/>
<polygon fill="midnightblue" stroke="midnightblue" points="228.872,-50.5801 220.779,-57.4179 231.369,-57.1194 228.872,-50.5801"/>
</g>
</g>
</svg>
