<?xml version="1.0" encoding="UTF-8" standalone="no"?>
<!DOCTYPE svg PUBLIC "-//W3C//DTD SVG 1.1//EN"
 "http://www.w3.org/Graphics/SVG/1.1/DTD/svg11.dtd">
<!-- Generated by graphviz version 2.38.0 (20140413.2041)
 -->
<!-- Title: libsc::k60::TowerProMg995 Pages: 1 -->
<svg width="166pt" height="86pt"
 viewBox="0.00 0.00 166.00 86.00" xmlns="http://www.w3.org/2000/svg" xmlns:xlink="http://www.w3.org/1999/xlink">
<g id="graph0" class="graph" transform="scale(1 1) rotate(0) translate(4 82)">
<title>libsc::k60::TowerProMg995</title>
<polygon fill="white" stroke="none" points="-4,4 -4,-82 162,-82 162,4 -4,4"/>
<!-- Node1 -->
<g id="node1" class="node"><title>Node1</title>
<polygon fill="#bfbfbf" stroke="black" points="-1.42109e-14,-0.5 -1.42109e-14,-20.5 158,-20.5 158,-0.5 -1.42109e-14,-0.5"/>
<text text-anchor="middle" x="79" y="-7.7" font-family="Open Sans" font-size="11.00">libsc::k60::TowerProMg995</text>
</g>
<!-- Node2 -->
<g id="node2" class="node"><title>Node2</title>
<g id="a_node2"><a xlink:href="classlibsc_1_1k60_1_1_servo.xhtml" target="_top" xlink:title="libsc::k60::Servo">
<polygon fill="white" stroke="black" points="28.5,-57.5 28.5,-77.5 129.5,-77.5 129.5,-57.5 28.5,-57.5"/>
<text text-anchor="middle" x="79" y="-64.7" font-family="Open Sans" font-size="11.00">libsc::k60::Servo</text>
</a>
</g>
</g>
<!-- Node2&#45;&gt;Node1 -->
<g id="edge1" class="edge"><title>Node2&#45;&gt;Node1</title>
<path fill="none" stroke="midnightblue" d="M79,-47.383C79,-38.3738 79,-28.0373 79,-20.7795"/>
<polygon fill="midnightblue" stroke="midnightblue" points="75.5001,-47.4178 79,-57.4179 82.5001,-47.4179 75.5001,-47.4178"/>
</g>
</g>
</svg>
