<?xml version="1.0" encoding="UTF-8" standalone="no"?>
<!DOCTYPE svg PUBLIC "-//W3C//DTD SVG 1.1//EN"
 "http://www.w3.org/Graphics/SVG/1.1/DTD/svg11.dtd">
<!-- Generated by graphviz version 2.38.0 (20140413.2041)
 -->
<!-- Title: libsc::kl26::UartDevice Pages: 1 -->
<svg width="336pt" height="88pt"
 viewBox="0.00 0.00 336.00 88.00" xmlns="http://www.w3.org/2000/svg" xmlns:xlink="http://www.w3.org/1999/xlink">
<g id="graph0" class="graph" transform="scale(1 1) rotate(0) translate(4 84)">
<title>libsc::kl26::UartDevice</title>
<polygon fill="white" stroke="none" points="-4,4 -4,-84 332,-84 332,4 -4,4"/>
<!-- Node1 -->
<g id="node1" class="node"><title>Node1</title>
<polygon fill="#bfbfbf" stroke="black" points="86,-58.5 86,-79.5 241,-79.5 241,-58.5 86,-58.5"/>
<text text-anchor="middle" x="163.5" y="-65.9" font-family="Inconsolata" font-size="12.00">libsc::kl26::UartDevice</text>
</g>
<!-- Node2 -->
<g id="node2" class="node"><title>Node2</title>
<g id="a_node2"><a xlink:href="classlibsc_1_1kl26_1_1_ftdi_ft232r.xhtml" target="_top" xlink:title="libsc::kl26::FtdiFt232r">
<polygon fill="white" stroke="black" points="0,-0.5 0,-21.5 155,-21.5 155,-0.5 0,-0.5"/>
<text text-anchor="middle" x="77.5" y="-7.9" font-family="Inconsolata" font-size="12.00">libsc::kl26::FtdiFt232r</text>
</a>
</g>
</g>
<!-- Node1&#45;&gt;Node2 -->
<g id="edge1" class="edge"><title>Node1&#45;&gt;Node2</title>
<path fill="none" stroke="midnightblue" d="M140.11,-52.769C124.87,-42.8456 105.449,-30.1994 92.3084,-21.6427"/>
<polygon fill="midnightblue" stroke="midnightblue" points="138.23,-55.7218 148.52,-58.2455 142.05,-49.8558 138.23,-55.7218"/>
</g>
<!-- Node3 -->
<g id="node3" class="node"><title>Node3</title>
<g id="a_node3"><a xlink:href="classlibsc_1_1kl26_1_1_jy_mcu_bt106.xhtml" target="_top" xlink:title="libsc::kl26::JyMcuBt106">
<polygon fill="white" stroke="black" points="173,-0.5 173,-21.5 328,-21.5 328,-0.5 173,-0.5"/>
<text text-anchor="middle" x="250.5" y="-7.9" font-family="Inconsolata" font-size="12.00">libsc::kl26::JyMcuBt106</text>
</a>
</g>
</g>
<!-- Node1&#45;&gt;Node3 -->
<g id="edge2" class="edge"><title>Node1&#45;&gt;Node3</title>
<path fill="none" stroke="midnightblue" d="M187.162,-52.769C202.579,-42.8456 222.226,-30.1994 235.519,-21.6427"/>
<polygon fill="midnightblue" stroke="midnightblue" points="185.169,-49.89 178.654,-58.2455 188.957,-55.7761 185.169,-49.89"/>
</g>
</g>
</svg>
