<?xml version="1.0" encoding="UTF-8" standalone="no"?>
<!DOCTYPE svg PUBLIC "-//W3C//DTD SVG 1.1//EN"
 "http://www.w3.org/Graphics/SVG/1.1/DTD/svg11.dtd">
<!-- Generated by graphviz version 2.38.0 (20140413.2041)
 -->
<!-- Title: /home/ming/School/HKUST/ROBO1019/SmartCar/Lib/libsccc/inc Pages: 1 -->
<svg width="338pt" height="113pt"
 viewBox="0.00 0.00 338.00 113.00" xmlns="http://www.w3.org/2000/svg" xmlns:xlink="http://www.w3.org/1999/xlink">
<g id="graph0" class="graph" transform="scale(1 1) rotate(0) translate(4 109)">
<title>/home/ming/School/HKUST/ROBO1019/SmartCar/Lib/libsccc/inc</title>
<polygon fill="white" stroke="none" points="-4,4 -4,-109 334,-109 334,4 -4,4"/>
<g id="clust1" class="cluster"><title>clusterdir_4e19840718bef8d70217a93cb38dcbf3</title>
<g id="a_clust1"><a xlink:href="dir_4e19840718bef8d70217a93cb38dcbf3.xhtml" target="_top" xlink:title="libsccc">
<polygon fill="#ddddee" stroke="black" points="8,-8 8,-97 322,-97 322,-8 8,-8"/>
<text text-anchor="middle" x="165" y="-83.4" font-family="Inconsolata" font-size="12.00">libsccc</text>
</a>
</g>
</g>
<g id="clust2" class="cluster"><title>clusterdir_379b54eba79f3b187780d0b06b784551</title>
<g id="a_clust2"><a xlink:href="dir_379b54eba79f3b187780d0b06b784551.xhtml" target="_top">
<polygon fill="#eeeeff" stroke="black" points="16,-16 16,-68 314,-68 314,-16 16,-16"/>
</a>
</g>
</g>
<!-- dir_379b54eba79f3b187780d0b06b784551 -->
<g id="node1" class="node"><title>dir_379b54eba79f3b187780d0b06b784551</title>
<text text-anchor="middle" x="279" y="-38.9" font-family="Inconsolata" font-size="12.00">inc</text>
</g>
<!-- dir_5403db1c56a18016ff298b9d0aebeed2 -->
<g id="node2" class="node"><title>dir_5403db1c56a18016ff298b9d0aebeed2</title>
<g id="a_node2"><a xlink:href="dir_5403db1c56a18016ff298b9d0aebeed2.xhtml" target="_top" xlink:title="libbase">
<polygon fill="white" stroke="red" points="233.5,-60 174.5,-60 174.5,-24 233.5,-24 233.5,-60"/>
<text text-anchor="middle" x="204" y="-38.9" font-family="Inconsolata" font-size="12.00">libbase</text>
</a>
</g>
</g>
<!-- dir_f9406967c0dfff9cbcdc5dd2f6bb2b3b -->
<g id="node3" class="node"><title>dir_f9406967c0dfff9cbcdc5dd2f6bb2b3b</title>
<g id="a_node3"><a xlink:href="dir_f9406967c0dfff9cbcdc5dd2f6bb2b3b.xhtml" target="_top" xlink:title="libsc">
<polygon fill="white" stroke="red" points="156,-60 102,-60 102,-24 156,-24 156,-60"/>
<text text-anchor="middle" x="129" y="-38.9" font-family="Inconsolata" font-size="12.00">libsc</text>
</a>
</g>
</g>
<!-- dir_2e7d26d57d8543ea61cf4321dcdecb02 -->
<g id="node4" class="node"><title>dir_2e7d26d57d8543ea61cf4321dcdecb02</title>
<g id="a_node4"><a xlink:href="dir_2e7d26d57d8543ea61cf4321dcdecb02.xhtml" target="_top" xlink:title="libutil">
<polygon fill="white" stroke="black" points="83.5,-60 24.5,-60 24.5,-24 83.5,-24 83.5,-60"/>
<text text-anchor="middle" x="54" y="-38.9" font-family="Inconsolata" font-size="12.00">libutil</text>
</a>
</g>
</g>
</g>
</svg>
