<?xml version="1.0" encoding="UTF-8" standalone="no"?>
<!DOCTYPE svg PUBLIC "-//W3C//DTD SVG 1.1//EN"
 "http://www.w3.org/Graphics/SVG/1.1/DTD/svg11.dtd">
<!-- Generated by graphviz version 2.38.0 (20140413.2041)
 -->
<!-- Title: /home/ming/School/HKUST/ROBO1019/SmartCar/Lib/libsccc/inc/libbase Pages: 1 -->
<svg width="260pt" height="113pt"
 viewBox="0.00 0.00 260.00 113.00" xmlns="http://www.w3.org/2000/svg" xmlns:xlink="http://www.w3.org/1999/xlink">
<g id="graph0" class="graph" transform="scale(1 1) rotate(0) translate(4 109)">
<title>/home/ming/School/HKUST/ROBO1019/SmartCar/Lib/libsccc/inc/libbase</title>
<polygon fill="white" stroke="none" points="-4,4 -4,-109 256,-109 256,4 -4,4"/>
<g id="clust1" class="cluster"><title>clusterdir_379b54eba79f3b187780d0b06b784551</title>
<g id="a_clust1"><a xlink:href="dir_379b54eba79f3b187780d0b06b784551.xhtml" target="_top" xlink:title="inc">
<polygon fill="#ddddee" stroke="black" points="8,-8 8,-97 244,-97 244,-8 8,-8"/>
<text text-anchor="middle" x="126" y="-83.4" font-family="Inconsolata" font-size="12.00">inc</text>
</a>
</g>
</g>
<g id="clust2" class="cluster"><title>clusterdir_5403db1c56a18016ff298b9d0aebeed2</title>
<g id="a_clust2"><a xlink:href="dir_5403db1c56a18016ff298b9d0aebeed2.xhtml" target="_top">
<polygon fill="#eeeeff" stroke="black" points="16,-16 16,-68 236,-68 236,-16 16,-16"/>
</a>
</g>
</g>
<!-- dir_5403db1c56a18016ff298b9d0aebeed2 -->
<g id="node1" class="node"><title>dir_5403db1c56a18016ff298b9d0aebeed2</title>
<text text-anchor="middle" x="198" y="-38.9" font-family="Inconsolata" font-size="12.00">libbase</text>
</g>
<!-- dir_9897dd703b1a386d0e0d921574790e52 -->
<g id="node2" class="node"><title>dir_9897dd703b1a386d0e0d921574790e52</title>
<g id="a_node2"><a xlink:href="dir_9897dd703b1a386d0e0d921574790e52.xhtml" target="_top" xlink:title="k60">
<polygon fill="white" stroke="red" points="150,-60 96,-60 96,-24 150,-24 150,-60"/>
<text text-anchor="middle" x="123" y="-38.9" font-family="Inconsolata" font-size="12.00">k60</text>
</a>
</g>
</g>
<!-- dir_0e297c69baff4cb29d1b1136e83df3e7 -->
<g id="node3" class="node"><title>dir_0e297c69baff4cb29d1b1136e83df3e7</title>
<g id="a_node3"><a xlink:href="dir_0e297c69baff4cb29d1b1136e83df3e7.xhtml" target="_top" xlink:title="kl26">
<polygon fill="white" stroke="red" points="78,-60 24,-60 24,-24 78,-24 78,-60"/>
<text text-anchor="middle" x="51" y="-38.9" font-family="Inconsolata" font-size="12.00">kl26</text>
</a>
</g>
</g>
</g>
</svg>
