<?xml version="1.0" encoding="UTF-8" standalone="no"?>
<!DOCTYPE svg PUBLIC "-//W3C//DTD SVG 1.1//EN"
 "http://www.w3.org/Graphics/SVG/1.1/DTD/svg11.dtd">
<!-- Generated by graphviz version 2.38.0 (20140413.2041)
 -->
<!-- Title: /home/ming/School/HKUST/ROBO1019/SmartCar/Lib/smartcarcpp/inc Pages: 1 -->
<svg width="326pt" height="112pt"
 viewBox="0.00 0.00 326.00 112.00" xmlns="http://www.w3.org/2000/svg" xmlns:xlink="http://www.w3.org/1999/xlink">
<g id="graph0" class="graph" transform="scale(1 1) rotate(0) translate(4 108)">
<title>/home/ming/School/HKUST/ROBO1019/SmartCar/Lib/smartcarcpp/inc</title>
<polygon fill="white" stroke="none" points="-4,4 -4,-108 322,-108 322,4 -4,4"/>
<g id="clust1" class="cluster"><title>clusterdir_ee8f57ac408677bf728a35cea06936da</title>
<g id="a_clust1"><a xlink:href="dir_ee8f57ac408677bf728a35cea06936da.xhtml" target="_top" xlink:title="smartcarcpp">
<polygon fill="#ddddee" stroke="black" points="8,-8 8,-96 310,-96 310,-8 8,-8"/>
<text text-anchor="middle" x="159" y="-83.2" font-family="Open Sans" font-size="11.00">smartcarcpp</text>
</a>
</g>
</g>
<g id="clust2" class="cluster"><title>clusterdir_491c2e2a8f3e6e6ec04f334ae6788af5</title>
<g id="a_clust2"><a xlink:href="dir_491c2e2a8f3e6e6ec04f334ae6788af5.xhtml" target="_top">
<polygon fill="#eeeeff" stroke="black" points="16,-16 16,-68 302,-68 302,-16 16,-16"/>
</a>
</g>
</g>
<!-- dir_491c2e2a8f3e6e6ec04f334ae6788af5 -->
<g id="node1" class="node"><title>dir_491c2e2a8f3e6e6ec04f334ae6788af5</title>
<text text-anchor="middle" x="267" y="-39.2" font-family="Open Sans" font-size="11.00">inc</text>
</g>
<!-- dir_60e7a7ad4aefef3c01e268c262e7d700 -->
<g id="node2" class="node"><title>dir_60e7a7ad4aefef3c01e268c262e7d700</title>
<g id="a_node2"><a xlink:href="dir_60e7a7ad4aefef3c01e268c262e7d700.xhtml" target="_top" xlink:title="libbase">
<polygon fill="white" stroke="red" points="222,-60 168,-60 168,-24 222,-24 222,-60"/>
<text text-anchor="middle" x="195" y="-39.2" font-family="Open Sans" font-size="11.00">libbase</text>
</a>
</g>
</g>
<!-- dir_8ec505fa301ec6214a37554bb36d164d -->
<g id="node3" class="node"><title>dir_8ec505fa301ec6214a37554bb36d164d</title>
<g id="a_node3"><a xlink:href="dir_8ec505fa301ec6214a37554bb36d164d.xhtml" target="_top" xlink:title="libsc">
<polygon fill="white" stroke="red" points="150,-60 96,-60 96,-24 150,-24 150,-60"/>
<text text-anchor="middle" x="123" y="-39.2" font-family="Open Sans" font-size="11.00">libsc</text>
</a>
</g>
</g>
<!-- dir_22e03f8c710ca27eb019fb04c615d494 -->
<g id="node4" class="node"><title>dir_22e03f8c710ca27eb019fb04c615d494</title>
<g id="a_node4"><a xlink:href="dir_22e03f8c710ca27eb019fb04c615d494.xhtml" target="_top" xlink:title="libutil">
<polygon fill="white" stroke="black" points="78,-60 24,-60 24,-24 78,-24 78,-60"/>
<text text-anchor="middle" x="51" y="-39.2" font-family="Open Sans" font-size="11.00">libutil</text>
</a>
</g>
</g>
</g>
</svg>
