<?xml version="1.0" encoding="UTF-8" standalone="no"?>
<!DOCTYPE svg PUBLIC "-//W3C//DTD SVG 1.1//EN"
 "http://www.w3.org/Graphics/SVG/1.1/DTD/svg11.dtd">
<!-- Generated by graphviz version 2.38.0 (20140413.2041)
 -->
<!-- Title: /home/ming/School/HKUST/ROBO1019/SmartCar/Lib/libsccc/inc/libsc Pages: 1 -->
<svg width="254pt" height="113pt"
 viewBox="0.00 0.00 254.00 113.00" xmlns="http://www.w3.org/2000/svg" xmlns:xlink="http://www.w3.org/1999/xlink">
<g id="graph0" class="graph" transform="scale(1 1) rotate(0) translate(4 109)">
<title>/home/ming/School/HKUST/ROBO1019/SmartCar/Lib/libsccc/inc/libsc</title>
<polygon fill="white" stroke="none" points="-4,4 -4,-109 250,-109 250,4 -4,4"/>
<g id="clust1" class="cluster"><title>clusterdir_379b54eba79f3b187780d0b06b784551</title>
<g id="a_clust1"><a xlink:href="dir_379b54eba79f3b187780d0b06b784551.xhtml" target="_top" xlink:title="inc">
<polygon fill="#ddddee" stroke="black" points="8,-8 8,-97 238,-97 238,-8 8,-8"/>
<text text-anchor="middle" x="123" y="-83.4" font-family="Inconsolata" font-size="12.00">inc</text>
</a>
</g>
</g>
<g id="clust2" class="cluster"><title>clusterdir_f9406967c0dfff9cbcdc5dd2f6bb2b3b</title>
<g id="a_clust2"><a xlink:href="dir_f9406967c0dfff9cbcdc5dd2f6bb2b3b.xhtml" target="_top">
<polygon fill="#eeeeff" stroke="black" points="16,-16 16,-68 230,-68 230,-16 16,-16"/>
</a>
</g>
</g>
<!-- dir_f9406967c0dfff9cbcdc5dd2f6bb2b3b -->
<g id="node1" class="node"><title>dir_f9406967c0dfff9cbcdc5dd2f6bb2b3b</title>
<text text-anchor="middle" x="195" y="-38.9" font-family="Inconsolata" font-size="12.00">libsc</text>
</g>
<!-- dir_8c1342a76edd9f5d5beed3ae1ba20343 -->
<g id="node2" class="node"><title>dir_8c1342a76edd9f5d5beed3ae1ba20343</title>
<g id="a_node2"><a xlink:href="dir_8c1342a76edd9f5d5beed3ae1ba20343.xhtml" target="_top" xlink:title="k60">
<polygon fill="white" stroke="red" points="150,-60 96,-60 96,-24 150,-24 150,-60"/>
<text text-anchor="middle" x="123" y="-38.9" font-family="Inconsolata" font-size="12.00">k60</text>
</a>
</g>
</g>
<!-- dir_139fc902711774a896c31fa15da65afb -->
<g id="node3" class="node"><title>dir_139fc902711774a896c31fa15da65afb</title>
<g id="a_node3"><a xlink:href="dir_139fc902711774a896c31fa15da65afb.xhtml" target="_top" xlink:title="kl26">
<polygon fill="white" stroke="red" points="78,-60 24,-60 24,-24 78,-24 78,-60"/>
<text text-anchor="middle" x="51" y="-38.9" font-family="Inconsolata" font-size="12.00">kl26</text>
</a>
</g>
</g>
</g>
</svg>
