<?xml version="1.0" encoding="UTF-8" standalone="no"?>
<!DOCTYPE svg PUBLIC "-//W3C//DTD SVG 1.1//EN"
 "http://www.w3.org/Graphics/SVG/1.1/DTD/svg11.dtd">
<!-- Generated by graphviz version 2.38.0 (20140413.2041)
 -->
<!-- Title: /home/ming/School/HKUST/ROBO1019/SmartCar/Lib/smartcarcpp/inc/libbase/k60 Pages: 1 -->
<svg width="254pt" height="112pt"
 viewBox="0.00 0.00 254.00 112.00" xmlns="http://www.w3.org/2000/svg" xmlns:xlink="http://www.w3.org/1999/xlink">
<g id="graph0" class="graph" transform="scale(1 1) rotate(0) translate(4 108)">
<title>/home/ming/School/HKUST/ROBO1019/SmartCar/Lib/smartcarcpp/inc/libbase/k60</title>
<polygon fill="white" stroke="none" points="-4,4 -4,-108 250,-108 250,4 -4,4"/>
<g id="clust1" class="cluster"><title>clusterdir_60e7a7ad4aefef3c01e268c262e7d700</title>
<g id="a_clust1"><a xlink:href="dir_60e7a7ad4aefef3c01e268c262e7d700.xhtml" target="_top" xlink:title="libbase">
<polygon fill="#ddddee" stroke="black" points="8,-8 8,-96 238,-96 238,-8 8,-8"/>
<text text-anchor="middle" x="123" y="-83.2" font-family="Open Sans" font-size="11.00">libbase</text>
</a>
</g>
</g>
<g id="clust2" class="cluster"><title>clusterdir_59f367e2ebee1b7b5a9be332b84f761a</title>
<g id="a_clust2"><a xlink:href="dir_59f367e2ebee1b7b5a9be332b84f761a.xhtml" target="_top">
<polygon fill="#eeeeff" stroke="black" points="16,-16 16,-68 230,-68 230,-16 16,-16"/>
</a>
</g>
</g>
<!-- dir_59f367e2ebee1b7b5a9be332b84f761a -->
<g id="node1" class="node"><title>dir_59f367e2ebee1b7b5a9be332b84f761a</title>
<text text-anchor="middle" x="195" y="-39.2" font-family="Open Sans" font-size="11.00">k60</text>
</g>
<!-- dir_4e111f71a7d2e81ef372afd79e5a49c9 -->
<g id="node2" class="node"><title>dir_4e111f71a7d2e81ef372afd79e5a49c9</title>
<g id="a_node2"><a xlink:href="dir_4e111f71a7d2e81ef372afd79e5a49c9.xhtml" target="_top" xlink:title="cmsis">
<polygon fill="white" stroke="black" points="150,-60 96,-60 96,-24 150,-24 150,-60"/>
<text text-anchor="middle" x="123" y="-39.2" font-family="Open Sans" font-size="11.00">cmsis</text>
</a>
</g>
</g>
<!-- dir_f4fb519318d1abe39b2ce930c27b74a8 -->
<g id="node3" class="node"><title>dir_f4fb519318d1abe39b2ce930c27b74a8</title>
<g id="a_node3"><a xlink:href="dir_f4fb519318d1abe39b2ce930c27b74a8.xhtml" target="_top" xlink:title="pinout">
<polygon fill="white" stroke="black" points="78,-60 24,-60 24,-24 78,-24 78,-60"/>
<text text-anchor="middle" x="51" y="-39.2" font-family="Open Sans" font-size="11.00">pinout</text>
</a>
</g>
</g>
</g>
</svg>
