<?xml version="1.0" encoding="UTF-8" standalone="no"?>
<!DOCTYPE svg PUBLIC "-//W3C//DTD SVG 1.1//EN"
 "http://www.w3.org/Graphics/SVG/1.1/DTD/svg11.dtd">
<!-- Generated by graphviz version 2.38.0 (20140413.2041)
 -->
<!-- Title: /home/ming/School/HKUST/ROBO1019/SmartCar/Lib/libsccc/inc Pages: 1 -->
<svg width="326pt" height="112pt"
 viewBox="0.00 0.00 326.00 112.00" xmlns="http://www.w3.org/2000/svg" xmlns:xlink="http://www.w3.org/1999/xlink">
<g id="graph0" class="graph" transform="scale(1 1) rotate(0) translate(4 108)">
<title>/home/ming/School/HKUST/ROBO1019/SmartCar/Lib/libsccc/inc</title>
<polygon fill="white" stroke="none" points="-4,4 -4,-108 322,-108 322,4 -4,4"/>
<g id="clust1" class="cluster"><title>clusterdir_4e19840718bef8d70217a93cb38dcbf3</title>
<g id="a_clust1"><a xlink:href="dir_4e19840718bef8d70217a93cb38dcbf3.xhtml" target="_top" xlink:title="libsccc">
<polygon fill="#ddddee" stroke="black" points="8,-8 8,-96 310,-96 310,-8 8,-8"/>
<text text-anchor="middle" x="159" y="-83.2" font-family="Open Sans" font-size="11.00">libsccc</text>
</a>
</g>
</g>
<g id="clust2" class="cluster"><title>clusterdir_379b54eba79f3b187780d0b06b784551</title>
<g id="a_clust2"><a xlink:href="dir_379b54eba79f3b187780d0b06b784551.xhtml" target="_top">
<polygon fill="#eeeeff" stroke="black" points="16,-16 16,-68 302,-68 302,-16 16,-16"/>
</a>
</g>
</g>
<!-- dir_379b54eba79f3b187780d0b06b784551 -->
<g id="node1" class="node"><title>dir_379b54eba79f3b187780d0b06b784551</title>
<text text-anchor="middle" x="267" y="-39.2" font-family="Open Sans" font-size="11.00">inc</text>
</g>
<!-- dir_5403db1c56a18016ff298b9d0aebeed2 -->
<g id="node2" class="node"><title>dir_5403db1c56a18016ff298b9d0aebeed2</title>
<g id="a_node2"><a xlink:href="dir_5403db1c56a18016ff298b9d0aebeed2.xhtml" target="_top" xlink:title="libbase">
<polygon fill="white" stroke="red" points="222,-60 168,-60 168,-24 222,-24 222,-60"/>
<text text-anchor="middle" x="195" y="-39.2" font-family="Open Sans" font-size="11.00">libbase</text>
</a>
</g>
</g>
<!-- dir_f9406967c0dfff9cbcdc5dd2f6bb2b3b -->
<g id="node3" class="node"><title>dir_f9406967c0dfff9cbcdc5dd2f6bb2b3b</title>
<g id="a_node3"><a xlink:href="dir_f9406967c0dfff9cbcdc5dd2f6bb2b3b.xhtml" target="_top" xlink:title="libsc">
<polygon fill="white" stroke="red" points="150,-60 96,-60 96,-24 150,-24 150,-60"/>
<text text-anchor="middle" x="123" y="-39.2" font-family="Open Sans" font-size="11.00">libsc</text>
</a>
</g>
</g>
<!-- dir_2e7d26d57d8543ea61cf4321dcdecb02 -->
<g id="node4" class="node"><title>dir_2e7d26d57d8543ea61cf4321dcdecb02</title>
<g id="a_node4"><a xlink:href="dir_2e7d26d57d8543ea61cf4321dcdecb02.xhtml" target="_top" xlink:title="libutil">
<polygon fill="white" stroke="black" points="78,-60 24,-60 24,-24 78,-24 78,-60"/>
<text text-anchor="middle" x="51" y="-39.2" font-family="Open Sans" font-size="11.00">libutil</text>
</a>
</g>
</g>
</g>
</svg>
