<?xml version="1.0" encoding="UTF-8" standalone="no"?>
<!DOCTYPE svg PUBLIC "-//W3C//DTD SVG 1.1//EN"
 "http://www.w3.org/Graphics/SVG/1.1/DTD/svg11.dtd">
<!-- Generated by graphviz version 2.38.0 (20140413.2041)
 -->
<!-- Title: Graphical Class Hierarchy Pages: 1 -->
<svg width="299pt" height="68pt"
 viewBox="0.00 0.00 299.00 68.00" xmlns="http://www.w3.org/2000/svg" xmlns:xlink="http://www.w3.org/1999/xlink">
<g id="graph0" class="graph" transform="scale(1 1) rotate(0) translate(4 64)">
<title>Graphical Class Hierarchy</title>
<polygon fill="white" stroke="none" points="-4,4 -4,-64 295,-64 295,4 -4,4"/>
<!-- Node1 -->
<g id="node1" class="node"><title>Node1</title>
<g id="a_node1"><a xlink:href="classlibsc_1_1k60_1_1_motor.xhtml" target="_top" xlink:title="libsc::k60::Motor">
<polygon fill="white" stroke="black" points="0,-19.5 0,-39.5 104,-39.5 104,-19.5 0,-19.5"/>
<text text-anchor="middle" x="52" y="-26.7" font-family="Open Sans" font-size="11.00">libsc::k60::Motor</text>
</a>
</g>
</g>
<!-- Node2 -->
<g id="node2" class="node"><title>Node2</title>
<g id="a_node2"><a xlink:href="classlibsc_1_1k60_1_1_alternate_motor.xhtml" target="_top" xlink:title="libsc::k60::AlternateMotor">
<polygon fill="white" stroke="black" points="140,-39.5 140,-59.5 291,-59.5 291,-39.5 140,-39.5"/>
<text text-anchor="middle" x="215.5" y="-46.7" font-family="Open Sans" font-size="11.00">libsc::k60::AlternateMotor</text>
</a>
</g>
</g>
<!-- Node1&#45;&gt;Node2 -->
<g id="edge1" class="edge"><title>Node1&#45;&gt;Node2</title>
<path fill="none" stroke="midnightblue" d="M114.158,-37.0738C122.548,-38.1128 131.239,-39.189 139.837,-40.2538"/>
<polygon fill="midnightblue" stroke="midnightblue" points="114.454,-33.5837 104.1,-35.8281 113.594,-40.5307 114.454,-33.5837"/>
</g>
<!-- Node3 -->
<g id="node3" class="node"><title>Node3</title>
<g id="a_node3"><a xlink:href="classlibsc_1_1k60_1_1_dir_motor.xhtml" target="_top" xlink:title="libsc::k60::DirMotor">
<polygon fill="white" stroke="black" points="156,-0.5 156,-20.5 275,-20.5 275,-0.5 156,-0.5"/>
<text text-anchor="middle" x="215.5" y="-7.7" font-family="Open Sans" font-size="11.00">libsc::k60::DirMotor</text>
</a>
</g>
</g>
<!-- Node1&#45;&gt;Node3 -->
<g id="edge2" class="edge"><title>Node1&#45;&gt;Node3</title>
<path fill="none" stroke="midnightblue" d="M114.331,-22.2845C127.948,-20.6826 142.347,-18.9886 155.852,-17.3997"/>
<polygon fill="midnightblue" stroke="midnightblue" points="113.622,-18.8438 104.1,-23.4883 114.44,-25.7958 113.622,-18.8438"/>
</g>
</g>
</svg>
