<?xml version="1.0" encoding="UTF-8" standalone="no"?>
<!DOCTYPE svg PUBLIC "-//W3C//DTD SVG 1.1//EN"
 "http://www.w3.org/Graphics/SVG/1.1/DTD/svg11.dtd">
<!-- Generated by graphviz version 2.38.0 (20140413.2041)
 -->
<!-- Title: Graphical Class Hierarchy Pages: 1 -->
<svg width="381pt" height="41pt"
 viewBox="0.00 0.00 381.00 41.00" xmlns="http://www.w3.org/2000/svg" xmlns:xlink="http://www.w3.org/1999/xlink">
<g id="graph0" class="graph" transform="scale(1 1) rotate(0) translate(4 37)">
<title>Graphical Class Hierarchy</title>
<polygon fill="white" stroke="none" points="-4,4 -4,-37 377,-37 377,4 -4,4"/>
<!-- Node1 -->
<g id="node1" class="node"><title>Node1</title>
<g id="a_node1"><a xlink:href="structlibbase_1_1k60_1_1_i2c_master_interface_1_1_config.xhtml" target="_top" xlink:title="libbase::k60::I2cMasterInterface\l::Config">
<polygon fill="white" stroke="black" points="0,-0.5 0,-32.5 181,-32.5 181,-0.5 0,-0.5"/>
<text text-anchor="start" x="8" y="-19.7" font-family="Open Sans" font-size="11.00">libbase::k60::I2cMasterInterface</text>
<text text-anchor="middle" x="90.5" y="-7.7" font-family="Open Sans" font-size="11.00">::Config</text>
</a>
</g>
</g>
<!-- Node2 -->
<g id="node2" class="node"><title>Node2</title>
<g id="a_node2"><a xlink:href="structlibbase_1_1k60_1_1_soft_i2c_master_1_1_config.xhtml" target="_top" xlink:title="libbase::k60::SoftI2cMaster\l::Config">
<polygon fill="white" stroke="black" points="217,-0.5 217,-32.5 373,-32.5 373,-0.5 217,-0.5"/>
<text text-anchor="start" x="225" y="-19.7" font-family="Open Sans" font-size="11.00">libbase::k60::SoftI2cMaster</text>
<text text-anchor="middle" x="295" y="-7.7" font-family="Open Sans" font-size="11.00">::Config</text>
</a>
</g>
</g>
<!-- Node1&#45;&gt;Node2 -->
<g id="edge1" class="edge"><title>Node1&#45;&gt;Node2</title>
<path fill="none" stroke="midnightblue" d="M191.237,-16.5C199.802,-16.5 208.382,-16.5 216.73,-16.5"/>
<polygon fill="midnightblue" stroke="midnightblue" points="191.204,-13.0001 181.204,-16.5 191.204,-20.0001 191.204,-13.0001"/>
</g>
</g>
</svg>
