<?xml version="1.0" encoding="UTF-8" standalone="no"?>
<!DOCTYPE svg PUBLIC "-//W3C//DTD SVG 1.1//EN"
 "http://www.w3.org/Graphics/SVG/1.1/DTD/svg11.dtd">
<!-- Generated by graphviz version 2.38.0 (20140413.2041)
 -->
<!-- Title: Graphical Class Hierarchy Pages: 1 -->
<svg width="318pt" height="96pt"
 viewBox="0.00 0.00 318.00 96.00" xmlns="http://www.w3.org/2000/svg" xmlns:xlink="http://www.w3.org/1999/xlink">
<g id="graph0" class="graph" transform="scale(1 1) rotate(0) translate(4 92)">
<title>Graphical Class Hierarchy</title>
<polygon fill="white" stroke="none" points="-4,4 -4,-92 314,-92 314,4 -4,4"/>
<!-- Node1 -->
<g id="node1" class="node"><title>Node1</title>
<g id="a_node1"><a xlink:href="structlibbase_1_1kl26_1_1_pwm_1_1_config.xhtml" target="_top" xlink:title="libbase::kl26::Pwm\l::Config">
<polygon fill="white" stroke="black" points="0,-26.5 0,-60.5 125,-60.5 125,-26.5 0,-26.5"/>
<text text-anchor="start" x="8" y="-46.9" font-family="Inconsolata" font-size="12.00">libbase::kl26::Pwm</text>
<text text-anchor="middle" x="62.5" y="-33.9" font-family="Inconsolata" font-size="12.00">::Config</text>
</a>
</g>
</g>
<!-- Node2 -->
<g id="node2" class="node"><title>Node2</title>
<g id="a_node2"><a xlink:href="structlibbase_1_1kl26_1_1_soft_pwm_1_1_config.xhtml" target="_top" xlink:title="libbase::kl26::SoftPwm\l::Config">
<polygon fill="white" stroke="black" points="161,-53.5 161,-87.5 310,-87.5 310,-53.5 161,-53.5"/>
<text text-anchor="start" x="169" y="-73.9" font-family="Inconsolata" font-size="12.00">libbase::kl26::SoftPwm</text>
<text text-anchor="middle" x="235.5" y="-60.9" font-family="Inconsolata" font-size="12.00">::Config</text>
</a>
</g>
</g>
<!-- Node1&#45;&gt;Node2 -->
<g id="edge1" class="edge"><title>Node1&#45;&gt;Node2</title>
<path fill="none" stroke="midnightblue" d="M135.131,-54.8101C143.652,-56.1556 152.362,-57.5309 160.911,-58.8806"/>
<polygon fill="midnightblue" stroke="midnightblue" points="135.658,-51.3502 125.235,-53.2476 134.567,-58.2645 135.658,-51.3502"/>
</g>
<!-- Node3 -->
<g id="node3" class="node"><title>Node3</title>
<g id="a_node3"><a xlink:href="structlibbase_1_1kl26_1_1_tpm_pwm_1_1_config.xhtml" target="_top" xlink:title="libbase::kl26::TpmPwm\l::Config">
<polygon fill="white" stroke="black" points="164,-0.5 164,-34.5 307,-34.5 307,-0.5 164,-0.5"/>
<text text-anchor="start" x="172" y="-20.9" font-family="Inconsolata" font-size="12.00">libbase::kl26::TpmPwm</text>
<text text-anchor="middle" x="235.5" y="-7.9" font-family="Inconsolata" font-size="12.00">::Config</text>
</a>
</g>
</g>
<!-- Node1&#45;&gt;Node3 -->
<g id="edge2" class="edge"><title>Node1&#45;&gt;Node3</title>
<path fill="none" stroke="midnightblue" d="M135.356,-32.5746C144.786,-31.1408 154.443,-29.6724 163.852,-28.2417"/>
<polygon fill="midnightblue" stroke="midnightblue" points="134.595,-29.1499 125.235,-34.1134 135.647,-36.0704 134.595,-29.1499"/>
</g>
</g>
</svg>
