<?xml version="1.0" encoding="UTF-8" standalone="no"?>
<!DOCTYPE svg PUBLIC "-//W3C//DTD SVG 1.1//EN"
 "http://www.w3.org/Graphics/SVG/1.1/DTD/svg11.dtd">
<!-- Generated by graphviz version 2.38.0 (20140413.2041)
 -->
<!-- Title: Graphical Class Hierarchy Pages: 1 -->
<svg width="264pt" height="70pt"
 viewBox="0.00 0.00 264.00 70.00" xmlns="http://www.w3.org/2000/svg" xmlns:xlink="http://www.w3.org/1999/xlink">
<g id="graph0" class="graph" transform="scale(1 1) rotate(0) translate(4 66)">
<title>Graphical Class Hierarchy</title>
<polygon fill="white" stroke="none" points="-4,4 -4,-66 260,-66 260,4 -4,4"/>
<!-- Node1 -->
<g id="node1" class="node"><title>Node1</title>
<g id="a_node1"><a xlink:href="classlibsc_1_1_encoder.xhtml" target="_top" xlink:title="libsc::Encoder">
<polygon fill="white" stroke="black" points="0,-20.5 0,-41.5 101,-41.5 101,-20.5 0,-20.5"/>
<text text-anchor="middle" x="50.5" y="-27.9" font-family="Inconsolata" font-size="12.00">libsc::Encoder</text>
</a>
</g>
</g>
<!-- Node2 -->
<g id="node2" class="node"><title>Node2</title>
<g id="a_node2"><a xlink:href="classlibsc_1_1_ab_encoder.xhtml" target="_top" xlink:title="Phase A/B encoder. ">
<polygon fill="white" stroke="black" points="140,-40.5 140,-61.5 253,-61.5 253,-40.5 140,-40.5"/>
<text text-anchor="middle" x="196.5" y="-47.9" font-family="Inconsolata" font-size="12.00">libsc::AbEncoder</text>
</a>
</g>
</g>
<!-- Node1&#45;&gt;Node2 -->
<g id="edge1" class="edge"><title>Node1&#45;&gt;Node2</title>
<path fill="none" stroke="midnightblue" d="M111.221,-39.2946C120.725,-40.6146 130.523,-41.9754 139.926,-43.2813"/>
<polygon fill="midnightblue" stroke="midnightblue" points="111.443,-35.7919 101.057,-37.8829 110.48,-42.7254 111.443,-35.7919"/>
</g>
<!-- Node3 -->
<g id="node3" class="node"><title>Node3</title>
<g id="a_node3"><a xlink:href="classlibsc_1_1_dir_encoder.xhtml" target="_top" xlink:title="libsc::DirEncoder">
<polygon fill="white" stroke="black" points="137,-0.5 137,-21.5 256,-21.5 256,-0.5 137,-0.5"/>
<text text-anchor="middle" x="196.5" y="-7.9" font-family="Inconsolata" font-size="12.00">libsc::DirEncoder</text>
</a>
</g>
</g>
<!-- Node1&#45;&gt;Node3 -->
<g id="edge2" class="edge"><title>Node1&#45;&gt;Node3</title>
<path fill="none" stroke="midnightblue" d="M110.977,-22.7393C119.549,-21.5487 128.366,-20.3242 136.92,-19.1361"/>
<polygon fill="midnightblue" stroke="midnightblue" points="110.48,-19.2746 101.057,-24.1171 111.443,-26.2081 110.48,-19.2746"/>
</g>
</g>
</svg>
