<?xml version="1.0" encoding="UTF-8" standalone="no"?>
<!DOCTYPE svg PUBLIC "-//W3C//DTD SVG 1.1//EN"
 "http://www.w3.org/Graphics/SVG/1.1/DTD/svg11.dtd">
<!-- Generated by graphviz version 2.38.0 (20140413.2041)
 -->
<!-- Title: Graphical Class Hierarchy Pages: 1 -->
<svg width="318pt" height="70pt"
 viewBox="0.00 0.00 318.00 70.00" xmlns="http://www.w3.org/2000/svg" xmlns:xlink="http://www.w3.org/1999/xlink">
<g id="graph0" class="graph" transform="scale(1 1) rotate(0) translate(4 66)">
<title>Graphical Class Hierarchy</title>
<polygon fill="white" stroke="none" points="-4,4 -4,-66 314,-66 314,4 -4,4"/>
<!-- Node1 -->
<g id="node1" class="node"><title>Node1</title>
<g id="a_node1"><a xlink:href="classlibbase_1_1kl26_1_1_pwm.xhtml" target="_top" xlink:title="libbase::kl26::Pwm">
<polygon fill="white" stroke="black" points="0,-20.5 0,-41.5 125,-41.5 125,-20.5 0,-20.5"/>
<text text-anchor="middle" x="62.5" y="-27.9" font-family="Inconsolata" font-size="12.00">libbase::kl26::Pwm</text>
</a>
</g>
</g>
<!-- Node2 -->
<g id="node2" class="node"><title>Node2</title>
<g id="a_node2"><a xlink:href="classlibbase_1_1kl26_1_1_soft_pwm.xhtml" target="_top" xlink:title="Generate PWM signal using PIT and GPIO, only guarantee precision down to us level. ">
<polygon fill="white" stroke="black" points="161,-40.5 161,-61.5 310,-61.5 310,-40.5 161,-40.5"/>
<text text-anchor="middle" x="235.5" y="-47.9" font-family="Inconsolata" font-size="12.00">libbase::kl26::SoftPwm</text>
</a>
</g>
</g>
<!-- Node1&#45;&gt;Node2 -->
<g id="edge1" class="edge"><title>Node1&#45;&gt;Node2</title>
<path fill="none" stroke="midnightblue" d="M135.409,-39.4104C143.841,-40.3967 152.455,-41.4041 160.911,-42.3931"/>
<polygon fill="midnightblue" stroke="midnightblue" points="135.574,-35.9059 125.235,-38.2205 134.761,-42.8585 135.574,-35.9059"/>
</g>
<!-- Node3 -->
<g id="node3" class="node"><title>Node3</title>
<g id="a_node3"><a xlink:href="classlibbase_1_1kl26_1_1_tpm_pwm.xhtml" target="_top" xlink:title="libbase::kl26::TpmPwm">
<polygon fill="white" stroke="black" points="164,-0.5 164,-21.5 307,-21.5 307,-0.5 164,-0.5"/>
<text text-anchor="middle" x="235.5" y="-7.9" font-family="Inconsolata" font-size="12.00">libbase::kl26::TpmPwm</text>
</a>
</g>
</g>
<!-- Node1&#45;&gt;Node3 -->
<g id="edge2" class="edge"><title>Node1&#45;&gt;Node3</title>
<path fill="none" stroke="midnightblue" d="M135.356,-22.5958C144.786,-21.4929 154.443,-20.3634 163.852,-19.2629"/>
<polygon fill="midnightblue" stroke="midnightblue" points="134.761,-19.1415 125.235,-23.7795 135.574,-26.0941 134.761,-19.1415"/>
</g>
</g>
</svg>
