<?xml version="1.0" encoding="UTF-8" standalone="no"?>
<!DOCTYPE svg PUBLIC "-//W3C//DTD SVG 1.1//EN"
 "http://www.w3.org/Graphics/SVG/1.1/DTD/svg11.dtd">
<!-- Generated by graphviz version 2.38.0 (20140413.2041)
 -->
<!-- Title: Graphical Class Hierarchy Pages: 1 -->
<svg width="306pt" height="68pt"
 viewBox="0.00 0.00 306.00 68.00" xmlns="http://www.w3.org/2000/svg" xmlns:xlink="http://www.w3.org/1999/xlink">
<g id="graph0" class="graph" transform="scale(1 1) rotate(0) translate(4 64)">
<title>Graphical Class Hierarchy</title>
<polygon fill="white" stroke="none" points="-4,4 -4,-64 302,-64 302,4 -4,4"/>
<!-- Node1 -->
<g id="node1" class="node"><title>Node1</title>
<g id="a_node1"><a xlink:href="classlibsc_1_1k60_1_1_uart_device.xhtml" target="_top" xlink:title="libsc::k60::UartDevice">
<polygon fill="white" stroke="black" points="0,-19.5 0,-39.5 128,-39.5 128,-19.5 0,-19.5"/>
<text text-anchor="middle" x="64" y="-26.7" font-family="Open Sans" font-size="11.00">libsc::k60::UartDevice</text>
</a>
</g>
</g>
<!-- Node2 -->
<g id="node2" class="node"><title>Node2</title>
<g id="a_node2"><a xlink:href="classlibsc_1_1k60_1_1_ftdi_ft232r.xhtml" target="_top" xlink:title="libsc::k60::FtdiFt232r">
<polygon fill="white" stroke="black" points="168.5,-39.5 168.5,-59.5 293.5,-59.5 293.5,-39.5 168.5,-39.5"/>
<text text-anchor="middle" x="231" y="-46.7" font-family="Open Sans" font-size="11.00">libsc::k60::FtdiFt232r</text>
</a>
</g>
</g>
<!-- Node1&#45;&gt;Node2 -->
<g id="edge1" class="edge"><title>Node1&#45;&gt;Node2</title>
<path fill="none" stroke="midnightblue" d="M138.312,-38.3863C148.386,-39.6074 158.646,-40.851 168.479,-42.043"/>
<polygon fill="midnightblue" stroke="midnightblue" points="138.67,-34.9042 128.321,-37.1753 137.828,-41.8533 138.67,-34.9042"/>
</g>
<!-- Node3 -->
<g id="node3" class="node"><title>Node3</title>
<g id="a_node3"><a xlink:href="classlibsc_1_1k60_1_1_jy_mcu_bt106.xhtml" target="_top" xlink:title="libsc::k60::JyMcuBt106">
<polygon fill="white" stroke="black" points="164,-0.5 164,-20.5 298,-20.5 298,-0.5 164,-0.5"/>
<text text-anchor="middle" x="231" y="-7.7" font-family="Open Sans" font-size="11.00">libsc::k60::JyMcuBt106</text>
</a>
</g>
</g>
<!-- Node1&#45;&gt;Node3 -->
<g id="edge2" class="edge"><title>Node1&#45;&gt;Node3</title>
<path fill="none" stroke="midnightblue" d="M138.52,-21.034C146.952,-20.0631 155.511,-19.0775 163.839,-18.1185"/>
<polygon fill="midnightblue" stroke="midnightblue" points="137.855,-17.5874 128.321,-22.2084 138.656,-24.5414 137.855,-17.5874"/>
</g>
</g>
</svg>
