<?xml version="1.0" encoding="UTF-8" standalone="no"?>
<!DOCTYPE svg PUBLIC "-//W3C//DTD SVG 1.1//EN"
 "http://www.w3.org/Graphics/SVG/1.1/DTD/svg11.dtd">
<!-- Generated by graphviz version 2.38.0 (20140413.2041)
 -->
<!-- Title: Graphical Class Hierarchy Pages: 1 -->
<svg width="432pt" height="96pt"
 viewBox="0.00 0.00 432.00 96.00" xmlns="http://www.w3.org/2000/svg" xmlns:xlink="http://www.w3.org/1999/xlink">
<g id="graph0" class="graph" transform="scale(1 1) rotate(0) translate(4 92)">
<title>Graphical Class Hierarchy</title>
<polygon fill="white" stroke="none" points="-4,4 -4,-92 428,-92 428,4 -4,4"/>
<!-- Node1 -->
<g id="node1" class="node"><title>Node1</title>
<g id="a_node1"><a xlink:href="structlibbase_1_1k60_1_1_i2c_master_interface_1_1_config.xhtml" target="_top" xlink:title="libbase::k60::I2cMasterInterface\l::Config">
<polygon fill="white" stroke="black" points="0,-26.5 0,-60.5 209,-60.5 209,-26.5 0,-26.5"/>
<text text-anchor="start" x="8" y="-46.9" font-family="Inconsolata" font-size="12.00">libbase::k60::I2cMasterInterface</text>
<text text-anchor="middle" x="104.5" y="-33.9" font-family="Inconsolata" font-size="12.00">::Config</text>
</a>
</g>
</g>
<!-- Node2 -->
<g id="node2" class="node"><title>Node2</title>
<g id="a_node2"><a xlink:href="structlibbase_1_1k60_1_1_i2c_master_1_1_config.xhtml" target="_top" xlink:title="libbase::k60::I2cMaster\l::Config">
<polygon fill="white" stroke="black" points="257,-53.5 257,-87.5 412,-87.5 412,-53.5 257,-53.5"/>
<text text-anchor="start" x="265" y="-73.9" font-family="Inconsolata" font-size="12.00">libbase::k60::I2cMaster</text>
<text text-anchor="middle" x="334.5" y="-60.9" font-family="Inconsolata" font-size="12.00">::Config</text>
</a>
</g>
</g>
<!-- Node1&#45;&gt;Node2 -->
<g id="edge1" class="edge"><title>Node1&#45;&gt;Node2</title>
<path fill="none" stroke="midnightblue" d="M219.308,-56.9772C231.978,-58.4777 244.651,-59.9785 256.702,-61.4055"/>
<polygon fill="midnightblue" stroke="midnightblue" points="219.501,-53.4758 209.159,-55.7754 218.678,-60.4272 219.501,-53.4758"/>
</g>
<!-- Node3 -->
<g id="node3" class="node"><title>Node3</title>
<g id="a_node3"><a xlink:href="structlibbase_1_1k60_1_1_soft_i2c_master_1_1_config.xhtml" target="_top" xlink:title="libbase::k60::SoftI2cMaster\l::Config">
<polygon fill="white" stroke="black" points="245,-0.5 245,-34.5 424,-34.5 424,-0.5 245,-0.5"/>
<text text-anchor="start" x="253" y="-20.9" font-family="Inconsolata" font-size="12.00">libbase::k60::SoftI2cMaster</text>
<text text-anchor="middle" x="334.5" y="-7.9" font-family="Inconsolata" font-size="12.00">::Config</text>
</a>
</g>
</g>
<!-- Node1&#45;&gt;Node3 -->
<g id="edge2" class="edge"><title>Node1&#45;&gt;Node3</title>
<path fill="none" stroke="midnightblue" d="M219.208,-30.5333C227.779,-29.5559 236.352,-28.5782 244.734,-27.6224"/>
<polygon fill="midnightblue" stroke="midnightblue" points="218.698,-27.0687 209.159,-31.6792 219.491,-34.0236 218.698,-27.0687"/>
</g>
</g>
</svg>
