<?xml version="1.0" encoding="UTF-8" standalone="no"?>
<!DOCTYPE svg PUBLIC "-//W3C//DTD SVG 1.1//EN"
 "http://www.w3.org/Graphics/SVG/1.1/DTD/svg11.dtd">
<!-- Generated by graphviz version 2.38.0 (20140413.2041)
 -->
<!-- Title: Graphical Class Hierarchy Pages: 1 -->
<svg width="378pt" height="68pt"
 viewBox="0.00 0.00 378.00 68.00" xmlns="http://www.w3.org/2000/svg" xmlns:xlink="http://www.w3.org/1999/xlink">
<g id="graph0" class="graph" transform="scale(1 1) rotate(0) translate(4 64)">
<title>Graphical Class Hierarchy</title>
<polygon fill="white" stroke="none" points="-4,4 -4,-64 374,-64 374,4 -4,4"/>
<!-- Node1 -->
<g id="node1" class="node"><title>Node1</title>
<g id="a_node1"><a xlink:href="classlibbase_1_1k60_1_1_quad_decoder_interface.xhtml" target="_top" xlink:title="libbase::k60::QuadDecoder\lInterface">
<polygon fill="white" stroke="black" points="0,-13.5 0,-45.5 157,-45.5 157,-13.5 0,-13.5"/>
<text text-anchor="start" x="8" y="-32.7" font-family="Open Sans" font-size="11.00">libbase::k60::QuadDecoder</text>
<text text-anchor="middle" x="78.5" y="-20.7" font-family="Open Sans" font-size="11.00">Interface</text>
</a>
</g>
</g>
<!-- Node2 -->
<g id="node2" class="node"><title>Node2</title>
<g id="a_node2"><a xlink:href="classlibbase_1_1k60_1_1_ftm_quad_decoder.xhtml" target="_top" xlink:title="libbase::k60::FtmQuadDecoder">
<polygon fill="white" stroke="black" points="193,-39.5 193,-59.5 370,-59.5 370,-39.5 193,-39.5"/>
<text text-anchor="middle" x="281.5" y="-46.7" font-family="Open Sans" font-size="11.00">libbase::k60::FtmQuadDecoder</text>
</a>
</g>
</g>
<!-- Node1&#45;&gt;Node2 -->
<g id="edge1" class="edge"><title>Node1&#45;&gt;Node2</title>
<path fill="none" stroke="midnightblue" d="M167.18,-38.2244C175.734,-39.0755 184.414,-39.9392 192.967,-40.7902"/>
<polygon fill="midnightblue" stroke="midnightblue" points="167.509,-34.7399 157.212,-37.2325 166.816,-41.7055 167.509,-34.7399"/>
</g>
<!-- Node3 -->
<g id="node3" class="node"><title>Node3</title>
<g id="a_node3"><a xlink:href="classlibbase_1_1k60_1_1_soft_quad_decoder.xhtml" target="_top" xlink:title="libbase::k60::SoftQuadDecoder">
<polygon fill="white" stroke="black" points="193,-0.5 193,-20.5 370,-20.5 370,-0.5 193,-0.5"/>
<text text-anchor="middle" x="281.5" y="-7.7" font-family="Open Sans" font-size="11.00">libbase::k60::SoftQuadDecoder</text>
</a>
</g>
</g>
<!-- Node1&#45;&gt;Node3 -->
<g id="edge2" class="edge"><title>Node1&#45;&gt;Node3</title>
<path fill="none" stroke="midnightblue" d="M167.18,-21.2118C175.734,-20.4032 184.414,-19.5827 192.967,-18.7743"/>
<polygon fill="midnightblue" stroke="midnightblue" points="166.838,-17.7285 157.212,-22.1541 167.497,-24.6974 166.838,-17.7285"/>
</g>
</g>
</svg>
