<?xml version="1.0" encoding="UTF-8" standalone="no"?>
<!DOCTYPE svg PUBLIC "-//W3C//DTD SVG 1.1//EN"
 "http://www.w3.org/Graphics/SVG/1.1/DTD/svg11.dtd">
<!-- Generated by graphviz version 2.38.0 (20140413.2041)
 -->
<!-- Title: Graphical Class Hierarchy Pages: 1 -->
<svg width="292pt" height="92pt"
 viewBox="0.00 0.00 292.00 92.00" xmlns="http://www.w3.org/2000/svg" xmlns:xlink="http://www.w3.org/1999/xlink">
<g id="graph0" class="graph" transform="scale(1 1) rotate(0) translate(4 88)">
<title>Graphical Class Hierarchy</title>
<polygon fill="white" stroke="none" points="-4,4 -4,-88 288,-88 288,4 -4,4"/>
<!-- Node1 -->
<g id="node1" class="node"><title>Node1</title>
<g id="a_node1"><a xlink:href="structlibbase_1_1k60_1_1_pwm_1_1_config.xhtml" target="_top" xlink:title="libbase::k60::Pwm::\lConfig">
<polygon fill="white" stroke="black" points="0,-25.5 0,-57.5 117,-57.5 117,-25.5 0,-25.5"/>
<text text-anchor="start" x="8" y="-44.7" font-family="Open Sans" font-size="11.00">libbase::k60::Pwm::</text>
<text text-anchor="middle" x="58.5" y="-32.7" font-family="Open Sans" font-size="11.00">Config</text>
</a>
</g>
</g>
<!-- Node2 -->
<g id="node2" class="node"><title>Node2</title>
<g id="a_node2"><a xlink:href="structlibbase_1_1k60_1_1_ftm_pwm_1_1_config.xhtml" target="_top" xlink:title="libbase::k60::FtmPwm\l::Config">
<polygon fill="white" stroke="black" points="153,-51.5 153,-83.5 284,-83.5 284,-51.5 153,-51.5"/>
<text text-anchor="start" x="161" y="-70.7" font-family="Open Sans" font-size="11.00">libbase::k60::FtmPwm</text>
<text text-anchor="middle" x="218.5" y="-58.7" font-family="Open Sans" font-size="11.00">::Config</text>
</a>
</g>
</g>
<!-- Node1&#45;&gt;Node2 -->
<g id="edge1" class="edge"><title>Node1&#45;&gt;Node2</title>
<path fill="none" stroke="midnightblue" d="M127.577,-52.7026C135.981,-54.0855 144.553,-55.496 152.902,-56.87"/>
<polygon fill="midnightblue" stroke="midnightblue" points="127.872,-49.2041 117.436,-51.0338 126.735,-56.1112 127.872,-49.2041"/>
</g>
<!-- Node3 -->
<g id="node3" class="node"><title>Node3</title>
<g id="a_node3"><a xlink:href="structlibbase_1_1k60_1_1_soft_pwm_1_1_config.xhtml" target="_top" xlink:title="libbase::k60::SoftPwm\l::Config">
<polygon fill="white" stroke="black" points="153,-0.5 153,-32.5 284,-32.5 284,-0.5 153,-0.5"/>
<text text-anchor="start" x="161" y="-19.7" font-family="Open Sans" font-size="11.00">libbase::k60::SoftPwm</text>
<text text-anchor="middle" x="218.5" y="-7.7" font-family="Open Sans" font-size="11.00">::Config</text>
</a>
</g>
</g>
<!-- Node1&#45;&gt;Node3 -->
<g id="edge2" class="edge"><title>Node1&#45;&gt;Node3</title>
<path fill="none" stroke="midnightblue" d="M127.577,-30.7283C135.981,-29.3986 144.553,-28.0423 152.902,-26.7211"/>
<polygon fill="midnightblue" stroke="midnightblue" points="126.766,-27.313 117.436,-32.3329 127.86,-34.227 126.766,-27.313"/>
</g>
</g>
</svg>
