<?xml version="1.0" encoding="UTF-8" standalone="no"?>
<!DOCTYPE svg PUBLIC "-//W3C//DTD SVG 1.1//EN"
 "http://www.w3.org/Graphics/SVG/1.1/DTD/svg11.dtd">
<!-- Generated by graphviz version 2.38.0 (20140413.2041)
 -->
<!-- Title: Graphical Class Hierarchy Pages: 1 -->
<svg width="286pt" height="68pt"
 viewBox="0.00 0.00 286.00 68.00" xmlns="http://www.w3.org/2000/svg" xmlns:xlink="http://www.w3.org/1999/xlink">
<g id="graph0" class="graph" transform="scale(1 1) rotate(0) translate(4 64)">
<title>Graphical Class Hierarchy</title>
<polygon fill="white" stroke="none" points="-4,4 -4,-64 282,-64 282,4 -4,4"/>
<!-- Node1 -->
<g id="node1" class="node"><title>Node1</title>
<g id="a_node1"><a xlink:href="classlibbase_1_1k60_1_1_pwm.xhtml" target="_top" xlink:title="libbase::k60::Pwm">
<polygon fill="white" stroke="black" points="0,-19.5 0,-39.5 111,-39.5 111,-19.5 0,-19.5"/>
<text text-anchor="middle" x="55.5" y="-26.7" font-family="Open Sans" font-size="11.00">libbase::k60::Pwm</text>
</a>
</g>
</g>
<!-- Node2 -->
<g id="node2" class="node"><title>Node2</title>
<g id="a_node2"><a xlink:href="classlibbase_1_1k60_1_1_ftm_pwm.xhtml" target="_top" xlink:title="libbase::k60::FtmPwm">
<polygon fill="white" stroke="black" points="147,-39.5 147,-59.5 278,-59.5 278,-39.5 147,-39.5"/>
<text text-anchor="middle" x="212.5" y="-46.7" font-family="Open Sans" font-size="11.00">libbase::k60::FtmPwm</text>
</a>
</g>
</g>
<!-- Node1&#45;&gt;Node2 -->
<g id="edge1" class="edge"><title>Node1&#45;&gt;Node2</title>
<path fill="none" stroke="midnightblue" d="M121.08,-37.8329C129.648,-38.9384 138.433,-40.072 147,-41.1774"/>
<polygon fill="midnightblue" stroke="midnightblue" points="121.513,-34.3598 111.147,-36.5513 120.617,-41.3023 121.513,-34.3598"/>
</g>
<!-- Node3 -->
<g id="node3" class="node"><title>Node3</title>
<g id="a_node3"><a xlink:href="classlibbase_1_1k60_1_1_soft_pwm.xhtml" target="_top" xlink:title="Generate PWM signal using PIT and GPIO, only guarantee precision down to us level. ">
<polygon fill="white" stroke="black" points="147,-0.5 147,-20.5 278,-20.5 278,-0.5 147,-0.5"/>
<text text-anchor="middle" x="212.5" y="-7.7" font-family="Open Sans" font-size="11.00">libbase::k60::SoftPwm</text>
</a>
</g>
</g>
<!-- Node1&#45;&gt;Node3 -->
<g id="edge2" class="edge"><title>Node1&#45;&gt;Node3</title>
<path fill="none" stroke="midnightblue" d="M121.08,-21.5838C129.648,-20.5335 138.433,-19.4566 147,-18.4065"/>
<polygon fill="midnightblue" stroke="midnightblue" points="120.647,-18.1105 111.147,-22.8013 121.499,-25.0585 120.647,-18.1105"/>
</g>
</g>
</svg>
