<?xml version="1.0" encoding="UTF-8" standalone="no"?>
<!DOCTYPE svg PUBLIC "-//W3C//DTD SVG 1.1//EN"
 "http://www.w3.org/Graphics/SVG/1.1/DTD/svg11.dtd">
<!-- Generated by graphviz version 2.38.0 (20140413.2041)
 -->
<!-- Title: Graphical Class Hierarchy Pages: 1 -->
<svg width="303pt" height="107pt"
 viewBox="0.00 0.00 303.00 107.00" xmlns="http://www.w3.org/2000/svg" xmlns:xlink="http://www.w3.org/1999/xlink">
<g id="graph0" class="graph" transform="scale(1 1) rotate(0) translate(4 103)">
<title>Graphical Class Hierarchy</title>
<polygon fill="white" stroke="none" points="-4,4 -4,-103 299,-103 299,4 -4,4"/>
<!-- Node1 -->
<g id="node1" class="node"><title>Node1</title>
<g id="a_node1"><a xlink:href="classlibsc_1_1k60_1_1_servo.xhtml" target="_top" xlink:title="libsc::k60::Servo">
<polygon fill="white" stroke="black" points="0,-39.5 0,-59.5 101,-59.5 101,-39.5 0,-39.5"/>
<text text-anchor="middle" x="50.5" y="-46.7" font-family="Open Sans" font-size="11.00">libsc::k60::Servo</text>
</a>
</g>
</g>
<!-- Node2 -->
<g id="node2" class="node"><title>Node2</title>
<g id="a_node2"><a xlink:href="classlibsc_1_1k60_1_1_futaba_s3010.xhtml" target="_top" xlink:title="libsc::k60::FutabaS3010">
<polygon fill="white" stroke="black" points="146,-78.5 146,-98.5 286,-98.5 286,-78.5 146,-78.5"/>
<text text-anchor="middle" x="216" y="-85.7" font-family="Open Sans" font-size="11.00">libsc::k60::FutabaS3010</text>
</a>
</g>
</g>
<!-- Node1&#45;&gt;Node2 -->
<g id="edge1" class="edge"><title>Node1&#45;&gt;Node2</title>
<path fill="none" stroke="midnightblue" d="M103.632,-61.9351C126.043,-67.281 151.889,-73.4461 173.037,-78.4906"/>
<polygon fill="midnightblue" stroke="midnightblue" points="104.145,-58.4593 93.6053,-59.5435 102.52,-65.2683 104.145,-58.4593"/>
</g>
<!-- Node3 -->
<g id="node3" class="node"><title>Node3</title>
<g id="a_node3"><a xlink:href="classlibsc_1_1k60_1_1_tower_pro_mg995.xhtml" target="_top" xlink:title="libsc::k60::TowerProMg995">
<polygon fill="white" stroke="black" points="137,-39.5 137,-59.5 295,-59.5 295,-39.5 137,-39.5"/>
<text text-anchor="middle" x="216" y="-46.7" font-family="Open Sans" font-size="11.00">libsc::k60::TowerProMg995</text>
</a>
</g>
</g>
<!-- Node1&#45;&gt;Node3 -->
<g id="edge2" class="edge"><title>Node1&#45;&gt;Node3</title>
<path fill="none" stroke="midnightblue" d="M111.618,-49.5C119.804,-49.5 128.301,-49.5 136.748,-49.5"/>
<polygon fill="midnightblue" stroke="midnightblue" points="111.444,-46.0001 101.444,-49.5 111.444,-53.0001 111.444,-46.0001"/>
</g>
<!-- Node4 -->
<g id="node4" class="node"><title>Node4</title>
<g id="a_node4"><a xlink:href="classlibsc_1_1k60_1_1_trs_d05.xhtml" target="_top" xlink:title="libsc::k60::TrsD05">
<polygon fill="white" stroke="black" points="161.5,-0.5 161.5,-20.5 270.5,-20.5 270.5,-0.5 161.5,-0.5"/>
<text text-anchor="middle" x="216" y="-7.7" font-family="Open Sans" font-size="11.00">libsc::k60::TrsD05</text>
</a>
</g>
</g>
<!-- Node1&#45;&gt;Node4 -->
<g id="edge3" class="edge"><title>Node1&#45;&gt;Node4</title>
<path fill="none" stroke="midnightblue" d="M103.632,-37.0649C126.043,-31.719 151.889,-25.5539 173.037,-20.5094"/>
<polygon fill="midnightblue" stroke="midnightblue" points="102.52,-33.7317 93.6053,-39.4565 104.145,-40.5407 102.52,-33.7317"/>
</g>
</g>
</svg>
