<?xml version="1.0" encoding="UTF-8" standalone="no"?>
<!DOCTYPE svg PUBLIC "-//W3C//DTD SVG 1.1//EN"
 "http://www.w3.org/Graphics/SVG/1.1/DTD/svg11.dtd">
<!-- Generated by graphviz version 2.38.0 (20140413.2041)
 -->
<!-- Title: Graphical Class Hierarchy Pages: 1 -->
<svg width="432pt" height="43pt"
 viewBox="0.00 0.00 432.00 43.00" xmlns="http://www.w3.org/2000/svg" xmlns:xlink="http://www.w3.org/1999/xlink">
<g id="graph0" class="graph" transform="scale(1 1) rotate(0) translate(4 39)">
<title>Graphical Class Hierarchy</title>
<polygon fill="white" stroke="none" points="-4,4 -4,-39 428,-39 428,4 -4,4"/>
<!-- Node1 -->
<g id="node1" class="node"><title>Node1</title>
<g id="a_node1"><a xlink:href="structlibbase_1_1k60_1_1_i2c_master_interface_1_1_config.xhtml" target="_top" xlink:title="libbase::k60::I2cMasterInterface\l::Config">
<polygon fill="white" stroke="black" points="0,-0.5 0,-34.5 209,-34.5 209,-0.5 0,-0.5"/>
<text text-anchor="start" x="8" y="-20.9" font-family="Inconsolata" font-size="12.00">libbase::k60::I2cMasterInterface</text>
<text text-anchor="middle" x="104.5" y="-7.9" font-family="Inconsolata" font-size="12.00">::Config</text>
</a>
</g>
</g>
<!-- Node2 -->
<g id="node2" class="node"><title>Node2</title>
<g id="a_node2"><a xlink:href="structlibbase_1_1k60_1_1_soft_i2c_master_1_1_config.xhtml" target="_top" xlink:title="libbase::k60::SoftI2cMaster\l::Config">
<polygon fill="white" stroke="black" points="245,-0.5 245,-34.5 424,-34.5 424,-0.5 245,-0.5"/>
<text text-anchor="start" x="253" y="-20.9" font-family="Inconsolata" font-size="12.00">libbase::k60::SoftI2cMaster</text>
<text text-anchor="middle" x="334.5" y="-7.9" font-family="Inconsolata" font-size="12.00">::Config</text>
</a>
</g>
</g>
<!-- Node1&#45;&gt;Node2 -->
<g id="edge1" class="edge"><title>Node1&#45;&gt;Node2</title>
<path fill="none" stroke="midnightblue" d="M219.208,-17.5C227.779,-17.5 236.352,-17.5 244.734,-17.5"/>
<polygon fill="midnightblue" stroke="midnightblue" points="219.159,-14.0001 209.159,-17.5 219.159,-21.0001 219.159,-14.0001"/>
</g>
</g>
</svg>
