<?xml version="1.0" encoding="UTF-8" standalone="no"?>
<!DOCTYPE svg PUBLIC "-//W3C//DTD SVG 1.1//EN"
 "http://www.w3.org/Graphics/SVG/1.1/DTD/svg11.dtd">
<!-- Generated by graphviz version 2.38.0 (20140413.2041)
 -->
<!-- Title: Graphical Class Hierarchy Pages: 1 -->
<svg width="414pt" height="96pt"
 viewBox="0.00 0.00 414.00 96.00" xmlns="http://www.w3.org/2000/svg" xmlns:xlink="http://www.w3.org/1999/xlink">
<g id="graph0" class="graph" transform="scale(1 1) rotate(0) translate(4 92)">
<title>Graphical Class Hierarchy</title>
<polygon fill="white" stroke="none" points="-4,4 -4,-92 410,-92 410,4 -4,4"/>
<!-- Node1 -->
<g id="node1" class="node"><title>Node1</title>
<g id="a_node1"><a xlink:href="structlibbase_1_1kl26_1_1_quad_decoder_interface_1_1_config.xhtml" target="_top" xlink:title="libbase::kl26::QuadDecoder\lInterface::Config">
<polygon fill="white" stroke="black" points="0,-26.5 0,-60.5 173,-60.5 173,-26.5 0,-26.5"/>
<text text-anchor="start" x="8" y="-46.9" font-family="Inconsolata" font-size="12.00">libbase::kl26::QuadDecoder</text>
<text text-anchor="middle" x="86.5" y="-33.9" font-family="Inconsolata" font-size="12.00">Interface::Config</text>
</a>
</g>
</g>
<!-- Node2 -->
<g id="node2" class="node"><title>Node2</title>
<g id="a_node2"><a xlink:href="structlibbase_1_1kl26_1_1_soft_quad_decoder_1_1_config.xhtml" target="_top" xlink:title="libbase::kl26::SoftQuadDecoder\l::Config">
<polygon fill="white" stroke="black" points="209,-53.5 209,-87.5 406,-87.5 406,-53.5 209,-53.5"/>
<text text-anchor="start" x="217" y="-73.9" font-family="Inconsolata" font-size="12.00">libbase::kl26::SoftQuadDecoder</text>
<text text-anchor="middle" x="307.5" y="-60.9" font-family="Inconsolata" font-size="12.00">::Config</text>
</a>
</g>
</g>
<!-- Node1&#45;&gt;Node2 -->
<g id="edge1" class="edge"><title>Node1&#45;&gt;Node2</title>
<path fill="none" stroke="midnightblue" d="M183.111,-55.2876C191.684,-56.3446 200.373,-57.4158 208.962,-58.4748"/>
<polygon fill="midnightblue" stroke="midnightblue" points="183.465,-51.8049 173.112,-54.0549 182.609,-58.7523 183.465,-51.8049"/>
</g>
<!-- Node3 -->
<g id="node3" class="node"><title>Node3</title>
<g id="a_node3"><a xlink:href="structlibbase_1_1kl26_1_1_tpm_quad_decoder_1_1_config.xhtml" target="_top" xlink:title="libbase::kl26::TpmQuadDecoder\l::Config">
<polygon fill="white" stroke="black" points="212,-0.5 212,-34.5 403,-34.5 403,-0.5 212,-0.5"/>
<text text-anchor="start" x="220" y="-20.9" font-family="Inconsolata" font-size="12.00">libbase::kl26::TpmQuadDecoder</text>
<text text-anchor="middle" x="307.5" y="-7.9" font-family="Inconsolata" font-size="12.00">::Config</text>
</a>
</g>
</g>
<!-- Node1&#45;&gt;Node3 -->
<g id="edge2" class="edge"><title>Node1&#45;&gt;Node3</title>
<path fill="none" stroke="midnightblue" d="M183.327,-32.1232C192.804,-30.9981 202.42,-29.8565 211.885,-28.7328"/>
<polygon fill="midnightblue" stroke="midnightblue" points="182.63,-28.6814 173.112,-33.336 183.455,-35.6326 182.63,-28.6814"/>
</g>
</g>
</svg>
