<?xml version="1.0" encoding="UTF-8" standalone="no"?>
<!DOCTYPE svg PUBLIC "-//W3C//DTD SVG 1.1//EN"
 "http://www.w3.org/Graphics/SVG/1.1/DTD/svg11.dtd">
<!-- Generated by graphviz version 2.38.0 (20140413.2041)
 -->
<!-- Title: Graphical Class Hierarchy Pages: 1 -->
<svg width="336pt" height="84pt"
 viewBox="0.00 0.00 336.00 83.50" xmlns="http://www.w3.org/2000/svg" xmlns:xlink="http://www.w3.org/1999/xlink">
<g id="graph0" class="graph" transform="scale(1 1) rotate(0) translate(4 79.5)">
<title>Graphical Class Hierarchy</title>
<polygon fill="white" stroke="none" points="-4,4 -4,-79.5 332,-79.5 332,4 -4,4"/>
<!-- Node1 -->
<g id="node1" class="node"><title>Node1</title>
<g id="a_node1"><a xlink:href="structlibsc_1_1_motor_1_1_config.xhtml" target="_top" xlink:title="libsc::Motor::Config">
<polygon fill="white" stroke="black" points="0,-23.5 0,-44.5 137,-44.5 137,-23.5 0,-23.5"/>
<text text-anchor="middle" x="68.5" y="-30.9" font-family="Inconsolata" font-size="12.00">libsc::Motor::Config</text>
</a>
</g>
</g>
<!-- Node2 -->
<g id="node2" class="node"><title>Node2</title>
<g id="a_node2"><a xlink:href="structlibsc_1_1_alternate_motor_1_1_config.xhtml" target="_top" xlink:title="libsc::AlternateMotor\l::Config">
<polygon fill="white" stroke="black" points="179,-41 179,-75 322,-75 322,-41 179,-41"/>
<text text-anchor="start" x="187" y="-61.4" font-family="Inconsolata" font-size="12.00">libsc::AlternateMotor</text>
<text text-anchor="middle" x="250.5" y="-48.4" font-family="Inconsolata" font-size="12.00">::Config</text>
</a>
</g>
</g>
<!-- Node1&#45;&gt;Node2 -->
<g id="edge1" class="edge"><title>Node1&#45;&gt;Node2</title>
<path fill="none" stroke="midnightblue" d="M147.078,-44.3437C157.644,-45.7526 168.444,-47.1925 178.879,-48.5839"/>
<polygon fill="midnightblue" stroke="midnightblue" points="147.412,-40.8574 137.037,-43.005 146.487,-47.796 147.412,-40.8574"/>
</g>
<!-- Node3 -->
<g id="node3" class="node"><title>Node3</title>
<g id="a_node3"><a xlink:href="structlibsc_1_1_dir_motor_1_1_config.xhtml" target="_top" xlink:title="libsc::DirMotor::Config">
<polygon fill="white" stroke="black" points="173,-0.5 173,-21.5 328,-21.5 328,-0.5 173,-0.5"/>
<text text-anchor="middle" x="250.5" y="-7.9" font-family="Inconsolata" font-size="12.00">libsc::DirMotor::Config</text>
</a>
</g>
</g>
<!-- Node1&#45;&gt;Node3 -->
<g id="edge2" class="edge"><title>Node1&#45;&gt;Node3</title>
<path fill="none" stroke="midnightblue" d="M146.994,-24.098C155.552,-23.0044 164.264,-21.8913 172.812,-20.799"/>
<polygon fill="midnightblue" stroke="midnightblue" points="146.513,-20.6309 137.037,-25.3702 147.4,-27.5744 146.513,-20.6309"/>
</g>
</g>
</svg>
