<?xml version="1.0" encoding="UTF-8" standalone="no"?>
<!DOCTYPE svg PUBLIC "-//W3C//DTD SVG 1.1//EN"
 "http://www.w3.org/Graphics/SVG/1.1/DTD/svg11.dtd">
<!-- Generated by graphviz version 2.38.0 (20140413.2041)
 -->
<!-- Title: Graphical Class Hierarchy Pages: 1 -->
<svg width="284pt" height="68pt"
 viewBox="0.00 0.00 284.00 68.00" xmlns="http://www.w3.org/2000/svg" xmlns:xlink="http://www.w3.org/1999/xlink">
<g id="graph0" class="graph" transform="scale(1 1) rotate(0) translate(4 64)">
<title>Graphical Class Hierarchy</title>
<polygon fill="white" stroke="none" points="-4,4 -4,-64 280,-64 280,4 -4,4"/>
<!-- Node1 -->
<g id="node1" class="node"><title>Node1</title>
<g id="a_node1"><a xlink:href="classlibsc_1_1k60_1_1_timer.xhtml" target="_top" xlink:title="libsc::k60::Timer">
<polygon fill="white" stroke="black" points="0,-19.5 0,-39.5 101,-39.5 101,-19.5 0,-19.5"/>
<text text-anchor="middle" x="50.5" y="-26.7" font-family="Open Sans" font-size="11.00">libsc::k60::Timer</text>
</a>
</g>
</g>
<!-- Node2 -->
<g id="node2" class="node"><title>Node2</title>
<g id="a_node2"><a xlink:href="classlibsc_1_1k60_1_1_pit_timer.xhtml" target="_top" xlink:title="libsc::k60::PitTimer">
<polygon fill="white" stroke="black" points="149,-39.5 149,-59.5 264,-59.5 264,-39.5 149,-39.5"/>
<text text-anchor="middle" x="206.5" y="-46.7" font-family="Open Sans" font-size="11.00">libsc::k60::PitTimer</text>
</a>
</g>
</g>
<!-- Node1&#45;&gt;Node2 -->
<g id="edge1" class="edge"><title>Node1&#45;&gt;Node2</title>
<path fill="none" stroke="midnightblue" d="M111.263,-37.2614C123.602,-38.8639 136.563,-40.5472 148.79,-42.1351"/>
<polygon fill="midnightblue" stroke="midnightblue" points="111.442,-33.7553 101.074,-35.9382 110.54,-40.697 111.442,-33.7553"/>
</g>
<!-- Node3 -->
<g id="node3" class="node"><title>Node3</title>
<g id="a_node3"><a xlink:href="classlibsc_1_1k60_1_1_sys_tick_timer.xhtml" target="_top" xlink:title="libsc::k60::SysTickTimer">
<polygon fill="white" stroke="black" points="137,-0.5 137,-20.5 276,-20.5 276,-0.5 137,-0.5"/>
<text text-anchor="middle" x="206.5" y="-7.7" font-family="Open Sans" font-size="11.00">libsc::k60::SysTickTimer</text>
</a>
</g>
</g>
<!-- Node1&#45;&gt;Node3 -->
<g id="edge2" class="edge"><title>Node1&#45;&gt;Node3</title>
<path fill="none" stroke="midnightblue" d="M111.19,-22.1356C119.626,-21.0948 128.354,-20.018 136.941,-18.9586"/>
<polygon fill="midnightblue" stroke="midnightblue" points="110.57,-18.6855 101.074,-23.3837 111.428,-25.6328 110.57,-18.6855"/>
</g>
</g>
</svg>
