<?xml version="1.0" encoding="UTF-8" standalone="no"?>
<!DOCTYPE svg PUBLIC "-//W3C//DTD SVG 1.1//EN"
 "http://www.w3.org/Graphics/SVG/1.1/DTD/svg11.dtd">
<!-- Generated by graphviz version 2.38.0 (20140413.2041)
 -->
<!-- Title: Graphical Class Hierarchy Pages: 1 -->
<svg width="276pt" height="70pt"
 viewBox="0.00 0.00 276.00 70.00" xmlns="http://www.w3.org/2000/svg" xmlns:xlink="http://www.w3.org/1999/xlink">
<g id="graph0" class="graph" transform="scale(1 1) rotate(0) translate(4 66)">
<title>Graphical Class Hierarchy</title>
<polygon fill="white" stroke="none" points="-4,4 -4,-66 272,-66 272,4 -4,4"/>
<!-- Node1 -->
<g id="node1" class="node"><title>Node1</title>
<g id="a_node1"><a xlink:href="classlibsc_1_1_motor.xhtml" target="_top" xlink:title="libsc::Motor">
<polygon fill="white" stroke="black" points="0,-20.5 0,-41.5 89,-41.5 89,-20.5 0,-20.5"/>
<text text-anchor="middle" x="44.5" y="-27.9" font-family="Inconsolata" font-size="12.00">libsc::Motor</text>
</a>
</g>
</g>
<!-- Node2 -->
<g id="node2" class="node"><title>Node2</title>
<g id="a_node2"><a xlink:href="classlibsc_1_1_alternate_motor.xhtml" target="_top" xlink:title="libsc::AlternateMotor">
<polygon fill="white" stroke="black" points="125,-40.5 125,-61.5 268,-61.5 268,-40.5 125,-40.5"/>
<text text-anchor="middle" x="196.5" y="-47.9" font-family="Inconsolata" font-size="12.00">libsc::AlternateMotor</text>
</a>
</g>
</g>
<!-- Node1&#45;&gt;Node2 -->
<g id="edge1" class="edge"><title>Node1&#45;&gt;Node2</title>
<path fill="none" stroke="midnightblue" d="M99.2133,-38.1618C107.529,-39.2705 116.226,-40.4301 124.845,-41.5794"/>
<polygon fill="midnightblue" stroke="midnightblue" points="99.6643,-34.691 89.2894,-36.8386 98.7391,-41.6296 99.6643,-34.691"/>
</g>
<!-- Node3 -->
<g id="node3" class="node"><title>Node3</title>
<g id="a_node3"><a xlink:href="classlibsc_1_1_dir_motor.xhtml" target="_top" xlink:title="libsc::DirMotor">
<polygon fill="white" stroke="black" points="143,-0.5 143,-21.5 250,-21.5 250,-0.5 143,-0.5"/>
<text text-anchor="middle" x="196.5" y="-7.9" font-family="Inconsolata" font-size="12.00">libsc::DirMotor</text>
</a>
</g>
</g>
<!-- Node1&#45;&gt;Node3 -->
<g id="edge2" class="edge"><title>Node1&#45;&gt;Node3</title>
<path fill="none" stroke="midnightblue" d="M99.377,-23.8164C113.54,-21.9279 128.798,-19.8936 142.894,-18.0141"/>
<polygon fill="midnightblue" stroke="midnightblue" points="98.7391,-20.3704 89.2894,-25.1614 99.6643,-27.309 98.7391,-20.3704"/>
</g>
</g>
</svg>
