<?xml version="1.0" encoding="UTF-8" standalone="no"?>
<!DOCTYPE svg PUBLIC "-//W3C//DTD SVG 1.1//EN"
 "http://www.w3.org/Graphics/SVG/1.1/DTD/svg11.dtd">
<!-- Generated by graphviz version 2.38.0 (20140413.2041)
 -->
<!-- Title: Graphical Class Hierarchy Pages: 1 -->
<svg width="283pt" height="107pt"
 viewBox="0.00 0.00 283.00 107.00" xmlns="http://www.w3.org/2000/svg" xmlns:xlink="http://www.w3.org/1999/xlink">
<g id="graph0" class="graph" transform="scale(1 1) rotate(0) translate(4 103)">
<title>Graphical Class Hierarchy</title>
<polygon fill="white" stroke="none" points="-4,4 -4,-103 279,-103 279,4 -4,4"/>
<!-- Node1 -->
<g id="node1" class="node"><title>Node1</title>
<g id="a_node1"><a xlink:href="classlibsc_1_1k60_1_1_delay.xhtml" target="_top" xlink:title="libsc::k60::Delay">
<polygon fill="white" stroke="black" points="0,-39.5 0,-59.5 101,-59.5 101,-39.5 0,-39.5"/>
<text text-anchor="middle" x="50.5" y="-46.7" font-family="Open Sans" font-size="11.00">libsc::k60::Delay</text>
</a>
</g>
</g>
<!-- Node2 -->
<g id="node2" class="node"><title>Node2</title>
<g id="a_node2"><a xlink:href="classlibsc_1_1k60_1_1_dwt_delay.xhtml" target="_top" xlink:title="libsc::k60::DwtDelay">
<polygon fill="white" stroke="black" points="145,-78.5 145,-98.5 267,-98.5 267,-78.5 145,-78.5"/>
<text text-anchor="middle" x="206" y="-85.7" font-family="Open Sans" font-size="11.00">libsc::k60::DwtDelay</text>
</a>
</g>
</g>
<!-- Node1&#45;&gt;Node2 -->
<g id="edge1" class="edge"><title>Node1&#45;&gt;Node2</title>
<path fill="none" stroke="midnightblue" d="M100.728,-62.0074C121.703,-67.3365 145.839,-73.4688 165.604,-78.4906"/>
<polygon fill="midnightblue" stroke="midnightblue" points="101.584,-58.6138 91.0301,-59.5435 99.8602,-65.3982 101.584,-58.6138"/>
</g>
<!-- Node3 -->
<g id="node3" class="node"><title>Node3</title>
<g id="a_node3"><a xlink:href="classlibsc_1_1k60_1_1_pit_delay.xhtml" target="_top" xlink:title="libsc::k60::PitDelay">
<polygon fill="white" stroke="black" points="149,-39.5 149,-59.5 263,-59.5 263,-39.5 149,-39.5"/>
<text text-anchor="middle" x="206" y="-46.7" font-family="Open Sans" font-size="11.00">libsc::k60::PitDelay</text>
</a>
</g>
</g>
<!-- Node1&#45;&gt;Node3 -->
<g id="edge2" class="edge"><title>Node1&#45;&gt;Node3</title>
<path fill="none" stroke="midnightblue" d="M111.476,-49.5C123.75,-49.5 136.625,-49.5 148.762,-49.5"/>
<polygon fill="midnightblue" stroke="midnightblue" points="111.337,-46.0001 101.337,-49.5 111.337,-53.0001 111.337,-46.0001"/>
</g>
<!-- Node4 -->
<g id="node4" class="node"><title>Node4</title>
<g id="a_node4"><a xlink:href="classlibsc_1_1k60_1_1_sys_tick_delay.xhtml" target="_top" xlink:title="libsc::k60::SysTickDelay">
<polygon fill="white" stroke="black" points="137,-0.5 137,-20.5 275,-20.5 275,-0.5 137,-0.5"/>
<text text-anchor="middle" x="206" y="-7.7" font-family="Open Sans" font-size="11.00">libsc::k60::SysTickDelay</text>
</a>
</g>
</g>
<!-- Node1&#45;&gt;Node4 -->
<g id="edge3" class="edge"><title>Node1&#45;&gt;Node4</title>
<path fill="none" stroke="midnightblue" d="M100.728,-36.9926C121.703,-31.6635 145.839,-25.5312 165.604,-20.5094"/>
<polygon fill="midnightblue" stroke="midnightblue" points="99.8602,-33.6018 91.0301,-39.4565 101.584,-40.3862 99.8602,-33.6018"/>
</g>
</g>
</svg>
