<?xml version="1.0" encoding="UTF-8" standalone="no"?>
<!DOCTYPE svg PUBLIC "-//W3C//DTD SVG 1.1//EN"
 "http://www.w3.org/Graphics/SVG/1.1/DTD/svg11.dtd">
<!-- Generated by graphviz version 2.38.0 (20140413.2041)
 -->
<!-- Title: Graphical Class Hierarchy Pages: 1 -->
<svg width="270pt" height="110pt"
 viewBox="0.00 0.00 270.00 110.00" xmlns="http://www.w3.org/2000/svg" xmlns:xlink="http://www.w3.org/1999/xlink">
<g id="graph0" class="graph" transform="scale(1 1) rotate(0) translate(4 106)">
<title>Graphical Class Hierarchy</title>
<polygon fill="white" stroke="none" points="-4,4 -4,-106 266,-106 266,4 -4,4"/>
<!-- Node1 -->
<g id="node1" class="node"><title>Node1</title>
<g id="a_node1"><a xlink:href="classlibsc_1_1_servo.xhtml" target="_top" xlink:title="RC servo. ">
<polygon fill="white" stroke="black" points="0,-40.5 0,-61.5 89,-61.5 89,-40.5 0,-40.5"/>
<text text-anchor="middle" x="44.5" y="-47.9" font-family="Inconsolata" font-size="12.00">libsc::Servo</text>
</a>
</g>
</g>
<!-- Node2 -->
<g id="node2" class="node"><title>Node2</title>
<g id="a_node2"><a xlink:href="classlibsc_1_1_futaba_s3010.xhtml" target="_top" xlink:title="Futaba S3010 RC servo. ">
<polygon fill="white" stroke="black" points="131,-80.5 131,-101.5 256,-101.5 256,-80.5 131,-80.5"/>
<text text-anchor="middle" x="193.5" y="-87.9" font-family="Inconsolata" font-size="12.00">libsc::FutabaS3010</text>
</a>
</g>
</g>
<!-- Node1&#45;&gt;Node2 -->
<g id="edge1" class="edge"><title>Node1&#45;&gt;Node2</title>
<path fill="none" stroke="midnightblue" d="M94.0157,-64.2015C113.461,-69.4927 135.554,-75.5045 153.88,-80.4913"/>
<polygon fill="midnightblue" stroke="midnightblue" points="94.6907,-60.758 84.1225,-61.5095 92.8527,-67.5124 94.6907,-60.758"/>
</g>
<!-- Node3 -->
<g id="node3" class="node"><title>Node3</title>
<g id="a_node3"><a xlink:href="classlibsc_1_1_tower_pro_mg995.xhtml" target="_top" xlink:title="TowerPro MG995 RC servo. ">
<polygon fill="white" stroke="black" points="125,-40.5 125,-61.5 262,-61.5 262,-40.5 125,-40.5"/>
<text text-anchor="middle" x="193.5" y="-47.9" font-family="Inconsolata" font-size="12.00">libsc::TowerProMg995</text>
</a>
</g>
</g>
<!-- Node1&#45;&gt;Node3 -->
<g id="edge2" class="edge"><title>Node1&#45;&gt;Node3</title>
<path fill="none" stroke="midnightblue" d="M99.2168,-51C107.601,-51 116.355,-51 124.999,-51"/>
<polygon fill="midnightblue" stroke="midnightblue" points="99.2069,-47.5001 89.2068,-51 99.2068,-54.5001 99.2069,-47.5001"/>
</g>
<!-- Node4 -->
<g id="node4" class="node"><title>Node4</title>
<g id="a_node4"><a xlink:href="classlibsc_1_1_trs_d05.xhtml" target="_top" xlink:title="TRS&#45;D05 RC servo. ">
<polygon fill="white" stroke="black" points="146,-0.5 146,-21.5 241,-21.5 241,-0.5 146,-0.5"/>
<text text-anchor="middle" x="193.5" y="-7.9" font-family="Inconsolata" font-size="12.00">libsc::TrsD05</text>
</a>
</g>
</g>
<!-- Node1&#45;&gt;Node4 -->
<g id="edge3" class="edge"><title>Node1&#45;&gt;Node4</title>
<path fill="none" stroke="midnightblue" d="M94.0157,-37.7985C113.461,-32.5073 135.554,-26.4955 153.88,-21.5087"/>
<polygon fill="midnightblue" stroke="midnightblue" points="92.8527,-34.4876 84.1225,-40.4905 94.6907,-41.242 92.8527,-34.4876"/>
</g>
</g>
</svg>
