<?xml version="1.0" encoding="UTF-8" standalone="no"?>
<!DOCTYPE svg PUBLIC "-//W3C//DTD SVG 1.1//EN"
 "http://www.w3.org/Graphics/SVG/1.1/DTD/svg11.dtd">
<!-- Generated by graphviz version 2.38.0 (20140413.2041)
 -->
<!-- Title: Graphical Class Hierarchy Pages: 1 -->
<svg width="432pt" height="70pt"
 viewBox="0.00 0.00 432.00 70.00" xmlns="http://www.w3.org/2000/svg" xmlns:xlink="http://www.w3.org/1999/xlink">
<g id="graph0" class="graph" transform="scale(1 1) rotate(0) translate(4 66)">
<title>Graphical Class Hierarchy</title>
<polygon fill="white" stroke="none" points="-4,4 -4,-66 428,-66 428,4 -4,4"/>
<!-- Node1 -->
<g id="node1" class="node"><title>Node1</title>
<g id="a_node1"><a xlink:href="classlibbase_1_1k60_1_1_spi_master_interface.xhtml" target="_top" xlink:title="libbase::k60::SpiMasterInterface">
<polygon fill="white" stroke="black" points="0,-20.5 0,-41.5 209,-41.5 209,-20.5 0,-20.5"/>
<text text-anchor="middle" x="104.5" y="-27.9" font-family="Inconsolata" font-size="12.00">libbase::k60::SpiMasterInterface</text>
</a>
</g>
</g>
<!-- Node2 -->
<g id="node2" class="node"><title>Node2</title>
<g id="a_node2"><a xlink:href="classlibbase_1_1k60_1_1_soft_spi_master.xhtml" target="_top" xlink:title="libbase::k60::SoftSpiMaster">
<polygon fill="white" stroke="black" points="245,-40.5 245,-61.5 424,-61.5 424,-40.5 245,-40.5"/>
<text text-anchor="middle" x="334.5" y="-47.9" font-family="Inconsolata" font-size="12.00">libbase::k60::SoftSpiMaster</text>
</a>
</g>
</g>
<!-- Node1&#45;&gt;Node2 -->
<g id="edge1" class="edge"><title>Node1&#45;&gt;Node2</title>
<path fill="none" stroke="midnightblue" d="M219.208,-40.9744C227.779,-41.7262 236.352,-42.4783 244.734,-43.2135"/>
<polygon fill="midnightblue" stroke="midnightblue" points="219.427,-37.4802 209.159,-40.0929 218.815,-44.4534 219.427,-37.4802"/>
</g>
<!-- Node3 -->
<g id="node3" class="node"><title>Node3</title>
<g id="a_node3"><a xlink:href="classlibbase_1_1k60_1_1_spi_master.xhtml" target="_top" xlink:title="libbase::k60::SpiMaster">
<polygon fill="white" stroke="black" points="257,-0.5 257,-21.5 412,-21.5 412,-0.5 257,-0.5"/>
<text text-anchor="middle" x="334.5" y="-7.9" font-family="Inconsolata" font-size="12.00">libbase::k60::SpiMaster</text>
</a>
</g>
</g>
<!-- Node1&#45;&gt;Node3 -->
<g id="edge2" class="edge"><title>Node1&#45;&gt;Node3</title>
<path fill="none" stroke="midnightblue" d="M219.308,-21.0169C231.978,-19.9054 244.651,-18.7937 256.702,-17.7367"/>
<polygon fill="midnightblue" stroke="midnightblue" points="218.815,-17.5466 209.159,-21.9071 219.427,-24.5198 218.815,-17.5466"/>
</g>
</g>
</svg>
