<?xml version="1.0" encoding="UTF-8" standalone="no"?>
<!DOCTYPE svg PUBLIC "-//W3C//DTD SVG 1.1//EN"
 "http://www.w3.org/Graphics/SVG/1.1/DTD/svg11.dtd">
<!-- Generated by graphviz version 2.38.0 (20140413.2041)
 -->
<!-- Title: Graphical Class Hierarchy Pages: 1 -->
<svg width="414pt" height="70pt"
 viewBox="0.00 0.00 414.00 70.00" xmlns="http://www.w3.org/2000/svg" xmlns:xlink="http://www.w3.org/1999/xlink">
<g id="graph0" class="graph" transform="scale(1 1) rotate(0) translate(4 66)">
<title>Graphical Class Hierarchy</title>
<polygon fill="white" stroke="none" points="-4,4 -4,-66 410,-66 410,4 -4,4"/>
<!-- Node1 -->
<g id="node1" class="node"><title>Node1</title>
<g id="a_node1"><a xlink:href="classlibbase_1_1kl26_1_1_quad_decoder_interface.xhtml" target="_top" xlink:title="Generic quadrature decoder interface. ">
<polygon fill="white" stroke="black" points="0,-14 0,-48 173,-48 173,-14 0,-14"/>
<text text-anchor="start" x="8" y="-34.4" font-family="Inconsolata" font-size="12.00">libbase::kl26::QuadDecoder</text>
<text text-anchor="middle" x="86.5" y="-21.4" font-family="Inconsolata" font-size="12.00">Interface</text>
</a>
</g>
</g>
<!-- Node2 -->
<g id="node2" class="node"><title>Node2</title>
<g id="a_node2"><a xlink:href="classlibbase_1_1kl26_1_1_soft_quad_decoder.xhtml" target="_top" xlink:title="Software emulated quadrature decoding using pin interrupt and GPIO. ">
<polygon fill="white" stroke="black" points="209,-40.5 209,-61.5 406,-61.5 406,-40.5 209,-40.5"/>
<text text-anchor="middle" x="307.5" y="-47.9" font-family="Inconsolata" font-size="12.00">libbase::kl26::SoftQuadDecoder</text>
</a>
</g>
</g>
<!-- Node1&#45;&gt;Node2 -->
<g id="edge1" class="edge"><title>Node1&#45;&gt;Node2</title>
<path fill="none" stroke="midnightblue" d="M183.111,-39.7316C191.684,-40.5145 200.373,-41.308 208.962,-42.0925"/>
<polygon fill="midnightblue" stroke="midnightblue" points="183.389,-36.2425 173.112,-38.8185 182.752,-43.2135 183.389,-36.2425"/>
</g>
<!-- Node3 -->
<g id="node3" class="node"><title>Node3</title>
<g id="a_node3"><a xlink:href="classlibbase_1_1kl26_1_1_tpm_quad_decoder.xhtml" target="_top" xlink:title="libbase::kl26::TpmQuadDecoder">
<polygon fill="white" stroke="black" points="212,-0.5 212,-21.5 403,-21.5 403,-0.5 212,-0.5"/>
<text text-anchor="middle" x="307.5" y="-7.9" font-family="Inconsolata" font-size="12.00">libbase::kl26::TpmQuadDecoder</text>
</a>
</g>
</g>
<!-- Node1&#45;&gt;Node3 -->
<g id="edge2" class="edge"><title>Node1&#45;&gt;Node3</title>
<path fill="none" stroke="midnightblue" d="M183.327,-22.2486C192.804,-21.3832 202.42,-20.505 211.885,-19.6406"/>
<polygon fill="midnightblue" stroke="midnightblue" points="182.752,-18.7865 173.112,-23.1815 183.389,-25.7575 182.752,-18.7865"/>
</g>
</g>
</svg>
