<?xml version="1.0" encoding="UTF-8" standalone="no"?>
<!DOCTYPE svg PUBLIC "-//W3C//DTD SVG 1.1//EN"
 "http://www.w3.org/Graphics/SVG/1.1/DTD/svg11.dtd">
<!-- Generated by graphviz version 2.38.0 (20140413.2041)
 -->
<!-- Title: Graphical Class Hierarchy Pages: 1 -->
<svg width="305pt" height="92pt"
 viewBox="0.00 0.00 305.00 92.00" xmlns="http://www.w3.org/2000/svg" xmlns:xlink="http://www.w3.org/1999/xlink">
<g id="graph0" class="graph" transform="scale(1 1) rotate(0) translate(4 88)">
<title>Graphical Class Hierarchy</title>
<polygon fill="white" stroke="none" points="-4,4 -4,-88 301,-88 301,4 -4,4"/>
<!-- Node1 -->
<g id="node1" class="node"><title>Node1</title>
<g id="a_node1"><a xlink:href="structlibsc_1_1k60_1_1_motor_1_1_config.xhtml" target="_top" xlink:title="libsc::k60::Motor::\lConfig">
<polygon fill="white" stroke="black" points="0,-25.5 0,-57.5 110,-57.5 110,-25.5 0,-25.5"/>
<text text-anchor="start" x="8" y="-44.7" font-family="Open Sans" font-size="11.00">libsc::k60::Motor::</text>
<text text-anchor="middle" x="55" y="-32.7" font-family="Open Sans" font-size="11.00">Config</text>
</a>
</g>
</g>
<!-- Node2 -->
<g id="node2" class="node"><title>Node2</title>
<g id="a_node2"><a xlink:href="structlibsc_1_1k60_1_1_alternate_motor_1_1_config.xhtml" target="_top" xlink:title="libsc::k60::AlternateMotor\l::Config">
<polygon fill="white" stroke="black" points="146,-51.5 146,-83.5 297,-83.5 297,-51.5 146,-51.5"/>
<text text-anchor="start" x="154" y="-70.7" font-family="Open Sans" font-size="11.00">libsc::k60::AlternateMotor</text>
<text text-anchor="middle" x="221.5" y="-58.7" font-family="Open Sans" font-size="11.00">::Config</text>
</a>
</g>
</g>
<!-- Node1&#45;&gt;Node2 -->
<g id="edge1" class="edge"><title>Node1&#45;&gt;Node2</title>
<path fill="none" stroke="midnightblue" d="M120.399,-51.6786C128.79,-53.0048 137.44,-54.372 145.979,-55.7216"/>
<polygon fill="midnightblue" stroke="midnightblue" points="120.743,-48.1896 110.319,-50.0854 119.65,-55.1038 120.743,-48.1896"/>
</g>
<!-- Node3 -->
<g id="node3" class="node"><title>Node3</title>
<g id="a_node3"><a xlink:href="structlibsc_1_1k60_1_1_dir_motor_1_1_config.xhtml" target="_top" xlink:title="libsc::k60::DirMotor\l::Config">
<polygon fill="white" stroke="black" points="162,-0.5 162,-32.5 281,-32.5 281,-0.5 162,-0.5"/>
<text text-anchor="start" x="170" y="-19.7" font-family="Open Sans" font-size="11.00">libsc::k60::DirMotor</text>
<text text-anchor="middle" x="221.5" y="-7.7" font-family="Open Sans" font-size="11.00">::Config</text>
</a>
</g>
</g>
<!-- Node1&#45;&gt;Node3 -->
<g id="edge2" class="edge"><title>Node1&#45;&gt;Node3</title>
<path fill="none" stroke="midnightblue" d="M120.599,-31.6825C134.25,-29.6079 148.582,-27.4298 161.992,-25.3917"/>
<polygon fill="midnightblue" stroke="midnightblue" points="119.68,-28.2819 110.319,-33.2448 120.732,-35.2025 119.68,-28.2819"/>
</g>
</g>
</svg>
