<?xml version="1.0" encoding="UTF-8" standalone="no"?>
<!DOCTYPE svg PUBLIC "-//W3C//DTD SVG 1.1//EN"
 "http://www.w3.org/Graphics/SVG/1.1/DTD/svg11.dtd">
<!-- Generated by graphviz version 2.38.0 (20140413.2041)
 -->
<!-- Title: Graphical Class Hierarchy Pages: 1 -->
<svg width="286pt" height="92pt"
 viewBox="0.00 0.00 286.00 92.00" xmlns="http://www.w3.org/2000/svg" xmlns:xlink="http://www.w3.org/1999/xlink">
<g id="graph0" class="graph" transform="scale(1 1) rotate(0) translate(4 88)">
<title>Graphical Class Hierarchy</title>
<polygon fill="white" stroke="none" points="-4,4 -4,-88 282,-88 282,4 -4,4"/>
<!-- Node1 -->
<g id="node1" class="node"><title>Node1</title>
<g id="a_node1"><a xlink:href="structlibsc_1_1k60_1_1_encoder_1_1_initializer.xhtml" target="_top" xlink:title="Use to initialize the encoder in possibly a polymorphic way, notice that Initializer::config is store...">
<polygon fill="white" stroke="black" points="0,-25.5 0,-57.5 113,-57.5 113,-25.5 0,-25.5"/>
<text text-anchor="start" x="8" y="-44.7" font-family="Open Sans" font-size="11.00">libsc::k60::Encoder</text>
<text text-anchor="middle" x="56.5" y="-32.7" font-family="Open Sans" font-size="11.00">::Initializer</text>
</a>
</g>
</g>
<!-- Node2 -->
<g id="node2" class="node"><title>Node2</title>
<g id="a_node2"><a xlink:href="structlibsc_1_1k60_1_1_ab_encoder_1_1_initializer.xhtml" target="_top" xlink:title="libsc::k60::AbEncoder\l::Initializer">
<polygon fill="white" stroke="black" points="149.5,-51.5 149.5,-83.5 277.5,-83.5 277.5,-51.5 149.5,-51.5"/>
<text text-anchor="start" x="157.5" y="-70.7" font-family="Open Sans" font-size="11.00">libsc::k60::AbEncoder</text>
<text text-anchor="middle" x="213.5" y="-58.7" font-family="Open Sans" font-size="11.00">::Initializer</text>
</a>
</g>
</g>
<!-- Node1&#45;&gt;Node2 -->
<g id="edge1" class="edge"><title>Node1&#45;&gt;Node2</title>
<path fill="none" stroke="midnightblue" d="M123.138,-52.5102C131.859,-53.9732 140.786,-55.4706 149.463,-56.926"/>
<polygon fill="midnightblue" stroke="midnightblue" points="123.462,-49.0158 113.021,-50.8132 122.304,-55.9193 123.462,-49.0158"/>
</g>
<!-- Node3 -->
<g id="node3" class="node"><title>Node3</title>
<g id="a_node3"><a xlink:href="structlibsc_1_1k60_1_1_dir_encoder_1_1_initializer.xhtml" target="_top" xlink:title="libsc::k60::DirEncoder\l::Initializer">
<polygon fill="white" stroke="black" points="149,-0.5 149,-32.5 278,-32.5 278,-0.5 149,-0.5"/>
<text text-anchor="start" x="157" y="-19.7" font-family="Open Sans" font-size="11.00">libsc::k60::DirEncoder</text>
<text text-anchor="middle" x="213.5" y="-7.7" font-family="Open Sans" font-size="11.00">::Initializer</text>
</a>
</g>
</g>
<!-- Node1&#45;&gt;Node3 -->
<g id="edge2" class="edge"><title>Node1&#45;&gt;Node3</title>
<path fill="none" stroke="midnightblue" d="M122.987,-30.9376C131.578,-29.5519 140.371,-28.1337 148.93,-26.7533"/>
<polygon fill="midnightblue" stroke="midnightblue" points="122.336,-27.4973 113.021,-32.545 123.451,-34.408 122.336,-27.4973"/>
</g>
</g>
</svg>
