<?xml version="1.0" encoding="UTF-8" standalone="no"?>
<!DOCTYPE svg PUBLIC "-//W3C//DTD SVG 1.1//EN"
 "http://www.w3.org/Graphics/SVG/1.1/DTD/svg11.dtd">
<!-- Generated by graphviz version 2.38.0 (20140413.2041)
 -->
<!-- Title: Graphical Class Hierarchy Pages: 1 -->
<svg width="390pt" height="70pt"
 viewBox="0.00 0.00 390.00 70.00" xmlns="http://www.w3.org/2000/svg" xmlns:xlink="http://www.w3.org/1999/xlink">
<g id="graph0" class="graph" transform="scale(1 1) rotate(0) translate(4 66)">
<title>Graphical Class Hierarchy</title>
<polygon fill="white" stroke="none" points="-4,4 -4,-66 386,-66 386,4 -4,4"/>
<!-- Node1 -->
<g id="node1" class="node"><title>Node1</title>
<g id="a_node1"><a xlink:href="classlibbase_1_1kl26_1_1_i2c_master_interface.xhtml" target="_top" xlink:title="libbase::kl26::I2cMaster\lInterface">
<polygon fill="white" stroke="black" points="0,-14 0,-48 161,-48 161,-14 0,-14"/>
<text text-anchor="start" x="8" y="-34.4" font-family="Inconsolata" font-size="12.00">libbase::kl26::I2cMaster</text>
<text text-anchor="middle" x="80.5" y="-21.4" font-family="Inconsolata" font-size="12.00">Interface</text>
</a>
</g>
</g>
<!-- Node2 -->
<g id="node2" class="node"><title>Node2</title>
<g id="a_node2"><a xlink:href="classlibbase_1_1kl26_1_1_i2c_master.xhtml" target="_top" xlink:title="libbase::kl26::I2cMaster">
<polygon fill="white" stroke="black" points="209,-40.5 209,-61.5 370,-61.5 370,-40.5 209,-40.5"/>
<text text-anchor="middle" x="289.5" y="-47.9" font-family="Inconsolata" font-size="12.00">libbase::kl26::I2cMaster</text>
</a>
</g>
</g>
<!-- Node1&#45;&gt;Node2 -->
<g id="edge1" class="edge"><title>Node1&#45;&gt;Node2</title>
<path fill="none" stroke="midnightblue" d="M171.197,-39.6664C183.709,-40.8752 196.495,-42.1106 208.806,-43.3001"/>
<polygon fill="midnightblue" stroke="midnightblue" points="171.526,-36.1819 161.236,-38.7039 170.853,-43.1495 171.526,-36.1819"/>
</g>
<!-- Node3 -->
<g id="node3" class="node"><title>Node3</title>
<g id="a_node3"><a xlink:href="classlibbase_1_1kl26_1_1_soft_i2c_master.xhtml" target="_top" xlink:title="libbase::kl26::SoftI2cMaster">
<polygon fill="white" stroke="black" points="197,-0.5 197,-21.5 382,-21.5 382,-0.5 197,-0.5"/>
<text text-anchor="middle" x="289.5" y="-7.9" font-family="Inconsolata" font-size="12.00">libbase::kl26::SoftI2cMaster</text>
</a>
</g>
</g>
<!-- Node1&#45;&gt;Node3 -->
<g id="edge2" class="edge"><title>Node1&#45;&gt;Node3</title>
<path fill="none" stroke="midnightblue" d="M171.4,-22.314C179.795,-21.5029 188.312,-20.68 196.724,-19.8673"/>
<polygon fill="midnightblue" stroke="midnightblue" points="170.853,-18.8505 161.236,-23.2961 171.526,-25.8181 170.853,-18.8505"/>
</g>
</g>
</svg>
