<?xml version="1.0" encoding="UTF-8" standalone="no"?>
<!DOCTYPE svg PUBLIC "-//W3C//DTD SVG 1.1//EN"
 "http://www.w3.org/Graphics/SVG/1.1/DTD/svg11.dtd">
<!-- Generated by graphviz version 2.38.0 (20140413.2041)
 -->
<!-- Title: Graphical Class Hierarchy Pages: 1 -->
<svg width="288pt" height="110pt"
 viewBox="0.00 0.00 288.00 110.00" xmlns="http://www.w3.org/2000/svg" xmlns:xlink="http://www.w3.org/1999/xlink">
<g id="graph0" class="graph" transform="scale(1 1) rotate(0) translate(4 106)">
<title>Graphical Class Hierarchy</title>
<polygon fill="white" stroke="none" points="-4,4 -4,-106 284,-106 284,4 -4,4"/>
<!-- Node1 -->
<g id="node1" class="node"><title>Node1</title>
<g id="a_node1"><a xlink:href="classlibsc_1_1_timer.xhtml" target="_top" xlink:title="libsc::Timer">
<polygon fill="white" stroke="black" points="0,-40.5 0,-61.5 89,-61.5 89,-40.5 0,-40.5"/>
<text text-anchor="middle" x="44.5" y="-47.9" font-family="Inconsolata" font-size="12.00">libsc::Timer</text>
</a>
</g>
</g>
<!-- Node2 -->
<g id="node2" class="node"><title>Node2</title>
<g id="a_node2"><a xlink:href="classlibsc_1_1kl26_1_1_lptmr_timer.xhtml" target="_top" xlink:title="libsc::kl26::LptmrTimer">
<polygon fill="white" stroke="black" points="125,-80.5 125,-101.5 280,-101.5 280,-80.5 125,-80.5"/>
<text text-anchor="middle" x="202.5" y="-87.9" font-family="Inconsolata" font-size="12.00">libsc::kl26::LptmrTimer</text>
</a>
</g>
</g>
<!-- Node1&#45;&gt;Node2 -->
<g id="edge1" class="edge"><title>Node1&#45;&gt;Node2</title>
<path fill="none" stroke="midnightblue" d="M96.4188,-64.0561C117.191,-69.3823 140.889,-75.4587 160.516,-80.4913"/>
<polygon fill="midnightblue" stroke="midnightblue" points="97.0431,-60.603 86.4872,-61.5095 95.3045,-67.3837 97.0431,-60.603"/>
</g>
<!-- Node3 -->
<g id="node3" class="node"><title>Node3</title>
<g id="a_node3"><a xlink:href="classlibsc_1_1_pit_timer.xhtml" target="_top" xlink:title="libsc::PitTimer">
<polygon fill="white" stroke="black" points="149,-40.5 149,-61.5 256,-61.5 256,-40.5 149,-40.5"/>
<text text-anchor="middle" x="202.5" y="-47.9" font-family="Inconsolata" font-size="12.00">libsc::PitTimer</text>
</a>
</g>
</g>
<!-- Node1&#45;&gt;Node3 -->
<g id="edge2" class="edge"><title>Node1&#45;&gt;Node3</title>
<path fill="none" stroke="midnightblue" d="M99.6049,-51C115.552,-51 132.974,-51 148.829,-51"/>
<polygon fill="midnightblue" stroke="midnightblue" points="99.3699,-47.5001 89.3698,-51 99.3698,-54.5001 99.3699,-47.5001"/>
</g>
<!-- Node4 -->
<g id="node4" class="node"><title>Node4</title>
<g id="a_node4"><a xlink:href="classlibsc_1_1_sys_tick_timer.xhtml" target="_top" xlink:title="libsc::SysTickTimer">
<polygon fill="white" stroke="black" points="137,-0.5 137,-21.5 268,-21.5 268,-0.5 137,-0.5"/>
<text text-anchor="middle" x="202.5" y="-7.9" font-family="Inconsolata" font-size="12.00">libsc::SysTickTimer</text>
</a>
</g>
</g>
<!-- Node1&#45;&gt;Node4 -->
<g id="edge3" class="edge"><title>Node1&#45;&gt;Node4</title>
<path fill="none" stroke="midnightblue" d="M96.4188,-37.9439C117.191,-32.6177 140.889,-26.5413 160.516,-21.5087"/>
<polygon fill="midnightblue" stroke="midnightblue" points="95.3045,-34.6163 86.4872,-40.4905 97.0431,-41.397 95.3045,-34.6163"/>
</g>
</g>
</svg>
