<?xml version="1.0" encoding="UTF-8" standalone="no"?>
<!DOCTYPE svg PUBLIC "-//W3C//DTD SVG 1.1//EN"
 "http://www.w3.org/Graphics/SVG/1.1/DTD/svg11.dtd">
<!-- Generated by graphviz version 2.38.0 (20140413.2041)
 -->
<!-- Title: Graphical Class Hierarchy Pages: 1 -->
<svg width="342pt" height="43pt"
 viewBox="0.00 0.00 342.00 43.00" xmlns="http://www.w3.org/2000/svg" xmlns:xlink="http://www.w3.org/1999/xlink">
<g id="graph0" class="graph" transform="scale(1 1) rotate(0) translate(4 39)">
<title>Graphical Class Hierarchy</title>
<polygon fill="white" stroke="none" points="-4,4 -4,-39 338,-39 338,4 -4,4"/>
<!-- Node1 -->
<g id="node1" class="node"><title>Node1</title>
<g id="a_node1"><a xlink:href="structlibsc_1_1k60_1_1_uart_device_1_1_initializer.xhtml" target="_top" xlink:title="Use to initialize the UartDevice in possibly a polymorphic way, notice that Initializer::config is st...">
<polygon fill="white" stroke="black" points="0,-0.5 0,-34.5 149,-34.5 149,-0.5 0,-0.5"/>
<text text-anchor="start" x="8" y="-20.9" font-family="Inconsolata" font-size="12.00">libsc::k60::UartDevice</text>
<text text-anchor="middle" x="74.5" y="-7.9" font-family="Inconsolata" font-size="12.00">::Initializer</text>
</a>
</g>
</g>
<!-- Node2 -->
<g id="node2" class="node"><title>Node2</title>
<g id="a_node2"><a xlink:href="structlibsc_1_1k60_1_1_jy_mcu_bt106_1_1_initializer.xhtml" target="_top" xlink:title="libsc::k60::JyMcuBt106\l::Initializer">
<polygon fill="white" stroke="black" points="185,-0.5 185,-34.5 334,-34.5 334,-0.5 185,-0.5"/>
<text text-anchor="start" x="193" y="-20.9" font-family="Inconsolata" font-size="12.00">libsc::k60::JyMcuBt106</text>
<text text-anchor="middle" x="259.5" y="-7.9" font-family="Inconsolata" font-size="12.00">::Initializer</text>
</a>
</g>
</g>
<!-- Node1&#45;&gt;Node2 -->
<g id="edge1" class="edge"><title>Node1&#45;&gt;Node2</title>
<path fill="none" stroke="midnightblue" d="M159.387,-17.5C167.838,-17.5 176.376,-17.5 184.711,-17.5"/>
<polygon fill="midnightblue" stroke="midnightblue" points="159.142,-14.0001 149.142,-17.5 159.142,-21.0001 159.142,-14.0001"/>
</g>
</g>
</svg>
