<?xml version="1.0" encoding="UTF-8" standalone="no"?>
<!DOCTYPE svg PUBLIC "-//W3C//DTD SVG 1.1//EN"
 "http://www.w3.org/Graphics/SVG/1.1/DTD/svg11.dtd">
<!-- Generated by graphviz version 2.38.0 (20140413.2041)
 -->
<!-- Title: Graphical Class Hierarchy Pages: 1 -->
<svg width="390pt" height="96pt"
 viewBox="0.00 0.00 390.00 96.00" xmlns="http://www.w3.org/2000/svg" xmlns:xlink="http://www.w3.org/1999/xlink">
<g id="graph0" class="graph" transform="scale(1 1) rotate(0) translate(4 92)">
<title>Graphical Class Hierarchy</title>
<polygon fill="white" stroke="none" points="-4,4 -4,-92 386,-92 386,4 -4,4"/>
<!-- Node1 -->
<g id="node1" class="node"><title>Node1</title>
<g id="a_node1"><a xlink:href="structlibbase_1_1kl26_1_1_i2c_master_interface_1_1_config.xhtml" target="_top" xlink:title="libbase::kl26::I2cMaster\lInterface::Config">
<polygon fill="white" stroke="black" points="0,-26.5 0,-60.5 161,-60.5 161,-26.5 0,-26.5"/>
<text text-anchor="start" x="8" y="-46.9" font-family="Inconsolata" font-size="12.00">libbase::kl26::I2cMaster</text>
<text text-anchor="middle" x="80.5" y="-33.9" font-family="Inconsolata" font-size="12.00">Interface::Config</text>
</a>
</g>
</g>
<!-- Node2 -->
<g id="node2" class="node"><title>Node2</title>
<g id="a_node2"><a xlink:href="structlibbase_1_1kl26_1_1_i2c_master_1_1_config.xhtml" target="_top" xlink:title="libbase::kl26::I2cMaster\l::Config">
<polygon fill="white" stroke="black" points="209,-53.5 209,-87.5 370,-87.5 370,-53.5 209,-53.5"/>
<text text-anchor="start" x="217" y="-73.9" font-family="Inconsolata" font-size="12.00">libbase::kl26::I2cMaster</text>
<text text-anchor="middle" x="289.5" y="-60.9" font-family="Inconsolata" font-size="12.00">::Config</text>
</a>
</g>
</g>
<!-- Node1&#45;&gt;Node2 -->
<g id="edge1" class="edge"><title>Node1&#45;&gt;Node2</title>
<path fill="none" stroke="midnightblue" d="M171.197,-55.1996C183.709,-56.8316 196.495,-58.4993 208.806,-60.1051"/>
<polygon fill="midnightblue" stroke="midnightblue" points="171.604,-51.7232 161.236,-53.9003 170.699,-58.6644 171.604,-51.7232"/>
</g>
<!-- Node3 -->
<g id="node3" class="node"><title>Node3</title>
<g id="a_node3"><a xlink:href="structlibbase_1_1kl26_1_1_soft_i2c_master_1_1_config.xhtml" target="_top" xlink:title="libbase::kl26::SoftI2cMaster\l::Config">
<polygon fill="white" stroke="black" points="197,-0.5 197,-34.5 382,-34.5 382,-0.5 197,-0.5"/>
<text text-anchor="start" x="205" y="-20.9" font-family="Inconsolata" font-size="12.00">libbase::kl26::SoftI2cMaster</text>
<text text-anchor="middle" x="289.5" y="-7.9" font-family="Inconsolata" font-size="12.00">::Config</text>
</a>
</g>
</g>
<!-- Node1&#45;&gt;Node3 -->
<g id="edge2" class="edge"><title>Node1&#45;&gt;Node3</title>
<path fill="none" stroke="midnightblue" d="M171.4,-32.2082C179.795,-31.1537 188.312,-30.084 196.724,-29.0274"/>
<polygon fill="midnightblue" stroke="midnightblue" points="170.721,-28.7659 161.236,-33.4849 171.594,-35.7113 170.721,-28.7659"/>
</g>
</g>
</svg>
