<?xml version="1.0" encoding="UTF-8" standalone="no"?>
<!DOCTYPE svg PUBLIC "-//W3C//DTD SVG 1.1//EN"
 "http://www.w3.org/Graphics/SVG/1.1/DTD/svg11.dtd">
<!-- Generated by graphviz version 2.38.0 (20140413.2041)
 -->
<!-- Title: Graphical Class Hierarchy Pages: 1 -->
<svg width="286pt" height="68pt"
 viewBox="0.00 0.00 286.00 68.00" xmlns="http://www.w3.org/2000/svg" xmlns:xlink="http://www.w3.org/1999/xlink">
<g id="graph0" class="graph" transform="scale(1 1) rotate(0) translate(4 64)">
<title>Graphical Class Hierarchy</title>
<polygon fill="white" stroke="none" points="-4,4 -4,-64 282,-64 282,4 -4,4"/>
<!-- Node1 -->
<g id="node1" class="node"><title>Node1</title>
<g id="a_node1"><a xlink:href="classlibsc_1_1k60_1_1_encoder.xhtml" target="_top" xlink:title="libsc::k60::Encoder">
<polygon fill="white" stroke="black" points="0,-19.5 0,-39.5 113,-39.5 113,-19.5 0,-19.5"/>
<text text-anchor="middle" x="56.5" y="-26.7" font-family="Open Sans" font-size="11.00">libsc::k60::Encoder</text>
</a>
</g>
</g>
<!-- Node2 -->
<g id="node2" class="node"><title>Node2</title>
<g id="a_node2"><a xlink:href="classlibsc_1_1k60_1_1_ab_encoder.xhtml" target="_top" xlink:title="libsc::k60::AbEncoder">
<polygon fill="white" stroke="black" points="149.5,-39.5 149.5,-59.5 277.5,-59.5 277.5,-39.5 149.5,-39.5"/>
<text text-anchor="middle" x="213.5" y="-46.7" font-family="Open Sans" font-size="11.00">libsc::k60::AbEncoder</text>
</a>
</g>
</g>
<!-- Node1&#45;&gt;Node2 -->
<g id="edge1" class="edge"><title>Node1&#45;&gt;Node2</title>
<path fill="none" stroke="midnightblue" d="M123.138,-37.9694C131.859,-39.0948 140.786,-40.2466 149.463,-41.3661"/>
<polygon fill="midnightblue" stroke="midnightblue" points="123.386,-34.4725 113.021,-36.664 122.491,-41.415 123.386,-34.4725"/>
</g>
<!-- Node3 -->
<g id="node3" class="node"><title>Node3</title>
<g id="a_node3"><a xlink:href="classlibsc_1_1k60_1_1_dir_encoder.xhtml" target="_top" xlink:title="libsc::k60::DirEncoder">
<polygon fill="white" stroke="black" points="149,-0.5 149,-20.5 278,-20.5 278,-0.5 149,-0.5"/>
<text text-anchor="middle" x="213.5" y="-7.7" font-family="Open Sans" font-size="11.00">libsc::k60::DirEncoder</text>
</a>
</g>
</g>
<!-- Node1&#45;&gt;Node3 -->
<g id="edge2" class="edge"><title>Node1&#45;&gt;Node3</title>
<path fill="none" stroke="midnightblue" d="M122.987,-21.4726C131.578,-20.4195 140.371,-19.3416 148.93,-18.2925"/>
<polygon fill="midnightblue" stroke="midnightblue" points="122.521,-18.0034 113.021,-22.6942 123.372,-24.9514 122.521,-18.0034"/>
</g>
</g>
</svg>
