<?xml version="1.0" encoding="UTF-8" standalone="no"?>
<!DOCTYPE svg PUBLIC "-//W3C//DTD SVG 1.1//EN"
 "http://www.w3.org/Graphics/SVG/1.1/DTD/svg11.dtd">
<!-- Generated by graphviz version 2.38.0 (20140413.2041)
 -->
<!-- Title: Graphical Class Hierarchy Pages: 1 -->
<svg width="354pt" height="43pt"
 viewBox="0.00 0.00 354.00 43.00" xmlns="http://www.w3.org/2000/svg" xmlns:xlink="http://www.w3.org/1999/xlink">
<g id="graph0" class="graph" transform="scale(1 1) rotate(0) translate(4 39)">
<title>Graphical Class Hierarchy</title>
<polygon fill="white" stroke="none" points="-4,4 -4,-39 350,-39 350,4 -4,4"/>
<!-- Node1 -->
<g id="node1" class="node"><title>Node1</title>
<g id="a_node1"><a xlink:href="structlibsc_1_1kl26_1_1_uart_device_1_1_initializer.xhtml" target="_top" xlink:title="Use to initialize the UartDevice in possibly a polymorphic way, notice that Initializer::config is st...">
<polygon fill="white" stroke="black" points="0,-0.5 0,-34.5 155,-34.5 155,-0.5 0,-0.5"/>
<text text-anchor="start" x="8" y="-20.9" font-family="Inconsolata" font-size="12.00">libsc::kl26::UartDevice</text>
<text text-anchor="middle" x="77.5" y="-7.9" font-family="Inconsolata" font-size="12.00">::Initializer</text>
</a>
</g>
</g>
<!-- Node2 -->
<g id="node2" class="node"><title>Node2</title>
<g id="a_node2"><a xlink:href="structlibsc_1_1kl26_1_1_jy_mcu_bt106_1_1_initializer.xhtml" target="_top" xlink:title="libsc::kl26::JyMcuBt106\l::Initializer">
<polygon fill="white" stroke="black" points="191,-0.5 191,-34.5 346,-34.5 346,-0.5 191,-0.5"/>
<text text-anchor="start" x="199" y="-20.9" font-family="Inconsolata" font-size="12.00">libsc::kl26::JyMcuBt106</text>
<text text-anchor="middle" x="268.5" y="-7.9" font-family="Inconsolata" font-size="12.00">::Initializer</text>
</a>
</g>
</g>
<!-- Node1&#45;&gt;Node2 -->
<g id="edge1" class="edge"><title>Node1&#45;&gt;Node2</title>
<path fill="none" stroke="midnightblue" d="M165.104,-17.5C173.674,-17.5 182.33,-17.5 190.79,-17.5"/>
<polygon fill="midnightblue" stroke="midnightblue" points="165.101,-14.0001 155.101,-17.5 165.101,-21.0001 165.101,-14.0001"/>
</g>
</g>
</svg>
