<?xml version="1.0" encoding="UTF-8" standalone="no"?>
<!DOCTYPE svg PUBLIC "-//W3C//DTD SVG 1.1//EN"
 "http://www.w3.org/Graphics/SVG/1.1/DTD/svg11.dtd">
<!-- Generated by graphviz version 2.38.0 (20140413.2041)
 -->
<!-- Title: Graphical Class Hierarchy Pages: 1 -->
<svg width="414pt" height="84pt"
 viewBox="0.00 0.00 414.00 83.50" xmlns="http://www.w3.org/2000/svg" xmlns:xlink="http://www.w3.org/1999/xlink">
<g id="graph0" class="graph" transform="scale(1 1) rotate(0) translate(4 79.5)">
<title>Graphical Class Hierarchy</title>
<polygon fill="white" stroke="none" points="-4,4 -4,-79.5 410,-79.5 410,4 -4,4"/>
<!-- Node1 -->
<g id="node1" class="node"><title>Node1</title>
<g id="a_node1"><a xlink:href="structlibsc_1_1_encoder_1_1_initializer.xhtml" target="_top" xlink:title="Use to initialize the encoder in possibly a polymorphic way, notice that Initializer::config is store...">
<polygon fill="white" stroke="black" points="0,-30 0,-51 179,-51 179,-30 0,-30"/>
<text text-anchor="middle" x="89.5" y="-37.4" font-family="Inconsolata" font-size="12.00">libsc::Encoder::Initializer</text>
</a>
</g>
</g>
<!-- Node2 -->
<g id="node2" class="node"><title>Node2</title>
<g id="a_node2"><a xlink:href="structlibsc_1_1_ab_encoder_1_1_initializer.xhtml" target="_top" xlink:title="libsc::AbEncoder::Initializer">
<polygon fill="white" stroke="black" points="215,-54 215,-75 406,-75 406,-54 215,-54"/>
<text text-anchor="middle" x="310.5" y="-61.4" font-family="Inconsolata" font-size="12.00">libsc::AbEncoder::Initializer</text>
</a>
</g>
</g>
<!-- Node1&#45;&gt;Node2 -->
<g id="edge1" class="edge"><title>Node1&#45;&gt;Node2</title>
<path fill="none" stroke="midnightblue" d="M189.23,-51.3197C197.768,-52.2554 206.394,-53.2007 214.898,-54.1327"/>
<polygon fill="midnightblue" stroke="midnightblue" points="189.582,-47.8374 179.26,-50.2271 188.819,-54.7957 189.582,-47.8374"/>
</g>
<!-- Node3 -->
<g id="node3" class="node"><title>Node3</title>
<g id="a_node3"><a xlink:href="structlibsc_1_1_dir_encoder_1_1_initializer.xhtml" target="_top" xlink:title="libsc::DirEncoder::\lInitializer">
<polygon fill="white" stroke="black" points="245,-0.5 245,-34.5 376,-34.5 376,-0.5 245,-0.5"/>
<text text-anchor="start" x="253" y="-20.9" font-family="Inconsolata" font-size="12.00">libsc::DirEncoder::</text>
<text text-anchor="middle" x="310.5" y="-7.9" font-family="Inconsolata" font-size="12.00">Initializer</text>
</a>
</g>
</g>
<!-- Node1&#45;&gt;Node3 -->
<g id="edge2" class="edge"><title>Node1&#45;&gt;Node3</title>
<path fill="none" stroke="midnightblue" d="M189.352,-30.1183C208.17,-28.1419 227.412,-26.1211 244.825,-24.2923"/>
<polygon fill="midnightblue" stroke="midnightblue" points="188.84,-26.6527 179.26,-31.1782 189.571,-33.6145 188.84,-26.6527"/>
</g>
</g>
</svg>
