<?xml version="1.0" encoding="UTF-8" standalone="no"?>
<!DOCTYPE svg PUBLIC "-//W3C//DTD SVG 1.1//EN"
 "http://www.w3.org/Graphics/SVG/1.1/DTD/svg11.dtd">
<!-- Generated by graphviz version 2.38.0 (20140413.2041)
 -->
<!-- Title: Graphical Class Hierarchy Pages: 1 -->
<svg width="306pt" height="41pt"
 viewBox="0.00 0.00 306.00 41.00" xmlns="http://www.w3.org/2000/svg" xmlns:xlink="http://www.w3.org/1999/xlink">
<g id="graph0" class="graph" transform="scale(1 1) rotate(0) translate(4 37)">
<title>Graphical Class Hierarchy</title>
<polygon fill="white" stroke="none" points="-4,4 -4,-37 302,-37 302,4 -4,4"/>
<!-- Node1 -->
<g id="node1" class="node"><title>Node1</title>
<g id="a_node1"><a xlink:href="structlibsc_1_1k60_1_1_uart_device_1_1_initializer.xhtml" target="_top" xlink:title="Use to initialize the UartDevice in possibly a polymorphic way, notice that Initializer::config is st...">
<polygon fill="white" stroke="black" points="0,-0.5 0,-32.5 128,-32.5 128,-0.5 0,-0.5"/>
<text text-anchor="start" x="8" y="-19.7" font-family="Open Sans" font-size="11.00">libsc::k60::UartDevice</text>
<text text-anchor="middle" x="64" y="-7.7" font-family="Open Sans" font-size="11.00">::Initializer</text>
</a>
</g>
</g>
<!-- Node2 -->
<g id="node2" class="node"><title>Node2</title>
<g id="a_node2"><a xlink:href="structlibsc_1_1k60_1_1_jy_mcu_bt106_1_1_initializer.xhtml" target="_top" xlink:title="libsc::k60::JyMcuBt106\l::Initializer">
<polygon fill="white" stroke="black" points="164,-0.5 164,-32.5 298,-32.5 298,-0.5 164,-0.5"/>
<text text-anchor="start" x="172" y="-19.7" font-family="Open Sans" font-size="11.00">libsc::k60::JyMcuBt106</text>
<text text-anchor="middle" x="231" y="-7.7" font-family="Open Sans" font-size="11.00">::Initializer</text>
</a>
</g>
</g>
<!-- Node1&#45;&gt;Node2 -->
<g id="edge1" class="edge"><title>Node1&#45;&gt;Node2</title>
<path fill="none" stroke="midnightblue" d="M138.52,-16.5C146.952,-16.5 155.511,-16.5 163.839,-16.5"/>
<polygon fill="midnightblue" stroke="midnightblue" points="138.321,-13.0001 128.321,-16.5 138.321,-20.0001 138.321,-13.0001"/>
</g>
</g>
</svg>
