<?xml version="1.0" encoding="UTF-8" standalone="no"?>
<!DOCTYPE svg PUBLIC "-//W3C//DTD SVG 1.1//EN"
 "http://www.w3.org/Graphics/SVG/1.1/DTD/svg11.dtd">
<!-- Generated by graphviz version 2.38.0 (20140413.2041)
 -->
<!-- Title: Graphical Class Hierarchy Pages: 1 -->
<svg width="378pt" height="41pt"
 viewBox="0.00 0.00 378.00 41.00" xmlns="http://www.w3.org/2000/svg" xmlns:xlink="http://www.w3.org/1999/xlink">
<g id="graph0" class="graph" transform="scale(1 1) rotate(0) translate(4 37)">
<title>Graphical Class Hierarchy</title>
<polygon fill="white" stroke="none" points="-4,4 -4,-37 374,-37 374,4 -4,4"/>
<!-- Node1 -->
<g id="node1" class="node"><title>Node1</title>
<g id="a_node1"><a xlink:href="structlibbase_1_1k60_1_1_quad_decoder_interface_1_1_config.xhtml" target="_top" xlink:title="libbase::k60::QuadDecoder\lInterface::Config">
<polygon fill="white" stroke="black" points="0,-0.5 0,-32.5 157,-32.5 157,-0.5 0,-0.5"/>
<text text-anchor="start" x="8" y="-19.7" font-family="Open Sans" font-size="11.00">libbase::k60::QuadDecoder</text>
<text text-anchor="middle" x="78.5" y="-7.7" font-family="Open Sans" font-size="11.00">Interface::Config</text>
</a>
</g>
</g>
<!-- Node2 -->
<g id="node2" class="node"><title>Node2</title>
<g id="a_node2"><a xlink:href="structlibbase_1_1k60_1_1_ftm_quad_decoder_1_1_config.xhtml" target="_top" xlink:title="libbase::k60::FtmQuadDecoder\l::Config">
<polygon fill="white" stroke="black" points="193,-0.5 193,-32.5 370,-32.5 370,-0.5 193,-0.5"/>
<text text-anchor="start" x="201" y="-19.7" font-family="Open Sans" font-size="11.00">libbase::k60::FtmQuadDecoder</text>
<text text-anchor="middle" x="281.5" y="-7.7" font-family="Open Sans" font-size="11.00">::Config</text>
</a>
</g>
</g>
<!-- Node1&#45;&gt;Node2 -->
<g id="edge1" class="edge"><title>Node1&#45;&gt;Node2</title>
<path fill="none" stroke="midnightblue" d="M167.459,-16.5C175.923,-16.5 184.507,-16.5 192.967,-16.5"/>
<polygon fill="midnightblue" stroke="midnightblue" points="167.212,-13.0001 157.212,-16.5 167.212,-20.0001 167.212,-13.0001"/>
</g>
</g>
</svg>
