<?xml version="1.0" encoding="UTF-8" standalone="no"?>
<!DOCTYPE svg PUBLIC "-//W3C//DTD SVG 1.1//EN"
 "http://www.w3.org/Graphics/SVG/1.1/DTD/svg11.dtd">
<!-- Generated by graphviz version 2.38.0 (20140413.2041)
 -->
<!-- Title: Graphical Class Hierarchy Pages: 1 -->
<svg width="354pt" height="70pt"
 viewBox="0.00 0.00 354.00 70.00" xmlns="http://www.w3.org/2000/svg" xmlns:xlink="http://www.w3.org/1999/xlink">
<g id="graph0" class="graph" transform="scale(1 1) rotate(0) translate(4 66)">
<title>Graphical Class Hierarchy</title>
<polygon fill="white" stroke="none" points="-4,4 -4,-66 350,-66 350,4 -4,4"/>
<!-- Node1 -->
<g id="node1" class="node"><title>Node1</title>
<g id="a_node1"><a xlink:href="classlibsc_1_1kl26_1_1_uart_device.xhtml" target="_top" xlink:title="libsc::kl26::UartDevice">
<polygon fill="white" stroke="black" points="0,-20.5 0,-41.5 155,-41.5 155,-20.5 0,-20.5"/>
<text text-anchor="middle" x="77.5" y="-27.9" font-family="Inconsolata" font-size="12.00">libsc::kl26::UartDevice</text>
</a>
</g>
</g>
<!-- Node2 -->
<g id="node2" class="node"><title>Node2</title>
<g id="a_node2"><a xlink:href="classlibsc_1_1kl26_1_1_ftdi_ft232r.xhtml" target="_top" xlink:title="libsc::kl26::FtdiFt232r">
<polygon fill="white" stroke="black" points="191,-40.5 191,-61.5 346,-61.5 346,-40.5 191,-40.5"/>
<text text-anchor="middle" x="268.5" y="-47.9" font-family="Inconsolata" font-size="12.00">libsc::kl26::FtdiFt232r</text>
</a>
</g>
</g>
<!-- Node1&#45;&gt;Node2 -->
<g id="edge1" class="edge"><title>Node1&#45;&gt;Node2</title>
<path fill="none" stroke="midnightblue" d="M165.104,-40.1644C173.674,-41.0713 182.33,-41.9873 190.79,-42.8825"/>
<polygon fill="midnightblue" stroke="midnightblue" points="165.414,-36.6778 155.101,-39.1059 164.677,-43.6389 165.414,-36.6778"/>
</g>
<!-- Node3 -->
<g id="node3" class="node"><title>Node3</title>
<g id="a_node3"><a xlink:href="classlibsc_1_1kl26_1_1_jy_mcu_bt106.xhtml" target="_top" xlink:title="libsc::kl26::JyMcuBt106">
<polygon fill="white" stroke="black" points="191,-0.5 191,-21.5 346,-21.5 346,-0.5 191,-0.5"/>
<text text-anchor="middle" x="268.5" y="-7.9" font-family="Inconsolata" font-size="12.00">libsc::kl26::JyMcuBt106</text>
</a>
</g>
</g>
<!-- Node1&#45;&gt;Node3 -->
<g id="edge2" class="edge"><title>Node1&#45;&gt;Node3</title>
<path fill="none" stroke="midnightblue" d="M165.104,-21.8356C173.674,-20.9287 182.33,-20.0127 190.79,-19.1175"/>
<polygon fill="midnightblue" stroke="midnightblue" points="164.677,-18.3611 155.101,-22.8941 165.414,-25.3222 164.677,-18.3611"/>
</g>
</g>
</svg>
