<?xml version="1.0" encoding="UTF-8" standalone="no"?>
<!DOCTYPE svg PUBLIC "-//W3C//DTD SVG 1.1//EN"
 "http://www.w3.org/Graphics/SVG/1.1/DTD/svg11.dtd">
<!-- Generated by graphviz version 2.38.0 (20140413.2041)
 -->
<!-- Title: Graphical Class Hierarchy Pages: 1 -->
<svg width="402pt" height="96pt"
 viewBox="0.00 0.00 402.00 96.00" xmlns="http://www.w3.org/2000/svg" xmlns:xlink="http://www.w3.org/1999/xlink">
<g id="graph0" class="graph" transform="scale(1 1) rotate(0) translate(4 92)">
<title>Graphical Class Hierarchy</title>
<polygon fill="white" stroke="none" points="-4,4 -4,-92 398,-92 398,4 -4,4"/>
<!-- Node1 -->
<g id="node1" class="node"><title>Node1</title>
<g id="a_node1"><a xlink:href="structlibbase_1_1k60_1_1_quad_decoder_interface_1_1_config.xhtml" target="_top" xlink:title="libbase::k60::QuadDecoder\lInterface::Config">
<polygon fill="white" stroke="black" points="0,-26.5 0,-60.5 167,-60.5 167,-26.5 0,-26.5"/>
<text text-anchor="start" x="8" y="-46.9" font-family="Inconsolata" font-size="12.00">libbase::k60::QuadDecoder</text>
<text text-anchor="middle" x="83.5" y="-33.9" font-family="Inconsolata" font-size="12.00">Interface::Config</text>
</a>
</g>
</g>
<!-- Node2 -->
<g id="node2" class="node"><title>Node2</title>
<g id="a_node2"><a xlink:href="structlibbase_1_1k60_1_1_ftm_quad_decoder_1_1_config.xhtml" target="_top" xlink:title="libbase::k60::FtmQuadDecoder\l::Config">
<polygon fill="white" stroke="black" points="206,-53.5 206,-87.5 391,-87.5 391,-53.5 206,-53.5"/>
<text text-anchor="start" x="214" y="-73.9" font-family="Inconsolata" font-size="12.00">libbase::k60::FtmQuadDecoder</text>
<text text-anchor="middle" x="298.5" y="-60.9" font-family="Inconsolata" font-size="12.00">::Config</text>
</a>
</g>
</g>
<!-- Node1&#45;&gt;Node2 -->
<g id="edge1" class="edge"><title>Node1&#45;&gt;Node2</title>
<path fill="none" stroke="midnightblue" d="M177.306,-55.2641C186.725,-56.4581 196.29,-57.6705 205.698,-58.8632"/>
<polygon fill="midnightblue" stroke="midnightblue" points="177.517,-51.763 167.156,-53.9775 176.637,-58.7074 177.517,-51.763"/>
</g>
<!-- Node3 -->
<g id="node3" class="node"><title>Node3</title>
<g id="a_node3"><a xlink:href="structlibbase_1_1k60_1_1_soft_quad_decoder_1_1_config.xhtml" target="_top" xlink:title="libbase::k60::SoftQuadDecoder\l::Config">
<polygon fill="white" stroke="black" points="203,-0.5 203,-34.5 394,-34.5 394,-0.5 203,-0.5"/>
<text text-anchor="start" x="211" y="-20.9" font-family="Inconsolata" font-size="12.00">libbase::k60::SoftQuadDecoder</text>
<text text-anchor="middle" x="298.5" y="-7.9" font-family="Inconsolata" font-size="12.00">::Config</text>
</a>
</g>
</g>
<!-- Node1&#45;&gt;Node3 -->
<g id="edge2" class="edge"><title>Node1&#45;&gt;Node3</title>
<path fill="none" stroke="midnightblue" d="M177.105,-32.196C185.64,-31.1543 194.295,-30.0978 202.847,-29.0539"/>
<polygon fill="midnightblue" stroke="midnightblue" points="176.658,-28.7245 167.156,-33.4105 177.507,-35.673 176.658,-28.7245"/>
</g>
</g>
</svg>
