<?xml version="1.0" encoding="UTF-8" standalone="no"?>
<!DOCTYPE svg PUBLIC "-//W3C//DTD SVG 1.1//EN"
 "http://www.w3.org/Graphics/SVG/1.1/DTD/svg11.dtd">
<!-- Generated by graphviz version 2.38.0 (20140413.2041)
 -->
<!-- Title: Graphical Class Hierarchy Pages: 1 -->
<svg width="402pt" height="70pt"
 viewBox="0.00 0.00 402.00 70.00" xmlns="http://www.w3.org/2000/svg" xmlns:xlink="http://www.w3.org/1999/xlink">
<g id="graph0" class="graph" transform="scale(1 1) rotate(0) translate(4 66)">
<title>Graphical Class Hierarchy</title>
<polygon fill="white" stroke="none" points="-4,4 -4,-66 398,-66 398,4 -4,4"/>
<!-- Node1 -->
<g id="node1" class="node"><title>Node1</title>
<g id="a_node1"><a xlink:href="classlibbase_1_1k60_1_1_quad_decoder_interface.xhtml" target="_top" xlink:title="libbase::k60::QuadDecoder\lInterface">
<polygon fill="white" stroke="black" points="0,-14 0,-48 167,-48 167,-14 0,-14"/>
<text text-anchor="start" x="8" y="-34.4" font-family="Inconsolata" font-size="12.00">libbase::k60::QuadDecoder</text>
<text text-anchor="middle" x="83.5" y="-21.4" font-family="Inconsolata" font-size="12.00">Interface</text>
</a>
</g>
</g>
<!-- Node2 -->
<g id="node2" class="node"><title>Node2</title>
<g id="a_node2"><a xlink:href="classlibbase_1_1k60_1_1_ftm_quad_decoder.xhtml" target="_top" xlink:title="libbase::k60::FtmQuadDecoder">
<polygon fill="white" stroke="black" points="206,-40.5 206,-61.5 391,-61.5 391,-40.5 206,-40.5"/>
<text text-anchor="middle" x="298.5" y="-47.9" font-family="Inconsolata" font-size="12.00">libbase::k60::FtmQuadDecoder</text>
</a>
</g>
</g>
<!-- Node1&#45;&gt;Node2 -->
<g id="edge1" class="edge"><title>Node1&#45;&gt;Node2</title>
<path fill="none" stroke="midnightblue" d="M177.306,-39.7142C186.725,-40.5986 196.29,-41.4967 205.698,-42.3801"/>
<polygon fill="midnightblue" stroke="midnightblue" points="177.44,-36.2114 167.156,-38.7611 176.785,-43.1808 177.44,-36.2114"/>
</g>
<!-- Node3 -->
<g id="node3" class="node"><title>Node3</title>
<g id="a_node3"><a xlink:href="classlibbase_1_1k60_1_1_soft_quad_decoder.xhtml" target="_top" xlink:title="Software emulated quadrature decoding using pin interrupt and GPIO. ">
<polygon fill="white" stroke="black" points="203,-0.5 203,-21.5 394,-21.5 394,-0.5 203,-0.5"/>
<text text-anchor="middle" x="298.5" y="-7.9" font-family="Inconsolata" font-size="12.00">libbase::k60::SoftQuadDecoder</text>
</a>
</g>
</g>
<!-- Node1&#45;&gt;Node3 -->
<g id="edge2" class="edge"><title>Node1&#45;&gt;Node3</title>
<path fill="none" stroke="midnightblue" d="M177.384,-22.2785C185.828,-21.4857 194.388,-20.6819 202.847,-19.8876"/>
<polygon fill="midnightblue" stroke="midnightblue" points="176.785,-18.8192 167.156,-23.2389 177.44,-25.7886 176.785,-18.8192"/>
</g>
</g>
</svg>
