<?xml version="1.0" encoding="UTF-8" standalone="no"?>
<!DOCTYPE svg PUBLIC "-//W3C//DTD SVG 1.1//EN"
 "http://www.w3.org/Graphics/SVG/1.1/DTD/svg11.dtd">
<!-- Generated by graphviz version 2.38.0 (20140413.2041)
 -->
<!-- Title: Graphical Class Hierarchy Pages: 1 -->
<svg width="342pt" height="70pt"
 viewBox="0.00 0.00 342.00 70.00" xmlns="http://www.w3.org/2000/svg" xmlns:xlink="http://www.w3.org/1999/xlink">
<g id="graph0" class="graph" transform="scale(1 1) rotate(0) translate(4 66)">
<title>Graphical Class Hierarchy</title>
<polygon fill="white" stroke="none" points="-4,4 -4,-66 338,-66 338,4 -4,4"/>
<!-- Node1 -->
<g id="node1" class="node"><title>Node1</title>
<g id="a_node1"><a xlink:href="classlibsc_1_1k60_1_1_uart_device.xhtml" target="_top" xlink:title="libsc::k60::UartDevice">
<polygon fill="white" stroke="black" points="0,-20.5 0,-41.5 149,-41.5 149,-20.5 0,-20.5"/>
<text text-anchor="middle" x="74.5" y="-27.9" font-family="Inconsolata" font-size="12.00">libsc::k60::UartDevice</text>
</a>
</g>
</g>
<!-- Node2 -->
<g id="node2" class="node"><title>Node2</title>
<g id="a_node2"><a xlink:href="classlibsc_1_1k60_1_1_ftdi_ft232r.xhtml" target="_top" xlink:title="libsc::k60::FtdiFt232r">
<polygon fill="white" stroke="black" points="185,-40.5 185,-61.5 334,-61.5 334,-40.5 185,-40.5"/>
<text text-anchor="middle" x="259.5" y="-47.9" font-family="Inconsolata" font-size="12.00">libsc::k60::FtdiFt232r</text>
</a>
</g>
</g>
<!-- Node1&#45;&gt;Node2 -->
<g id="edge1" class="edge"><title>Node1&#45;&gt;Node2</title>
<path fill="none" stroke="midnightblue" d="M159.109,-40.1376C167.651,-41.0711 176.285,-42.0147 184.711,-42.9356"/>
<polygon fill="midnightblue" stroke="midnightblue" points="159.463,-36.6555 149.142,-39.0483 158.703,-43.6141 159.463,-36.6555"/>
</g>
<!-- Node3 -->
<g id="node3" class="node"><title>Node3</title>
<g id="a_node3"><a xlink:href="classlibsc_1_1k60_1_1_jy_mcu_bt106.xhtml" target="_top" xlink:title="libsc::k60::JyMcuBt106">
<polygon fill="white" stroke="black" points="185,-0.5 185,-21.5 334,-21.5 334,-0.5 185,-0.5"/>
<text text-anchor="middle" x="259.5" y="-7.9" font-family="Inconsolata" font-size="12.00">libsc::k60::JyMcuBt106</text>
</a>
</g>
</g>
<!-- Node1&#45;&gt;Node3 -->
<g id="edge2" class="edge"><title>Node1&#45;&gt;Node3</title>
<path fill="none" stroke="midnightblue" d="M159.109,-21.8624C167.651,-20.9289 176.285,-19.9853 184.711,-19.0644"/>
<polygon fill="midnightblue" stroke="midnightblue" points="158.703,-18.3859 149.142,-22.9517 159.463,-25.3445 158.703,-18.3859"/>
</g>
</g>
</svg>
