<?xml version="1.0" encoding="UTF-8" standalone="no"?>
<!DOCTYPE svg PUBLIC "-//W3C//DTD SVG 1.1//EN"
 "http://www.w3.org/Graphics/SVG/1.1/DTD/svg11.dtd">
<!-- Generated by graphviz version 2.38.0 (20140413.2041)
 -->
<!-- Title: Graphical Class Hierarchy Pages: 1 -->
<svg width="306pt" height="70pt"
 viewBox="0.00 0.00 306.00 70.00" xmlns="http://www.w3.org/2000/svg" xmlns:xlink="http://www.w3.org/1999/xlink">
<g id="graph0" class="graph" transform="scale(1 1) rotate(0) translate(4 66)">
<title>Graphical Class Hierarchy</title>
<polygon fill="white" stroke="none" points="-4,4 -4,-66 302,-66 302,4 -4,4"/>
<!-- Node1 -->
<g id="node1" class="node"><title>Node1</title>
<g id="a_node1"><a xlink:href="classlibbase_1_1k60_1_1_pwm.xhtml" target="_top" xlink:title="libbase::k60::Pwm">
<polygon fill="white" stroke="black" points="0,-20.5 0,-41.5 119,-41.5 119,-20.5 0,-20.5"/>
<text text-anchor="middle" x="59.5" y="-27.9" font-family="Inconsolata" font-size="12.00">libbase::k60::Pwm</text>
</a>
</g>
</g>
<!-- Node2 -->
<g id="node2" class="node"><title>Node2</title>
<g id="a_node2"><a xlink:href="classlibbase_1_1k60_1_1_ftm_pwm.xhtml" target="_top" xlink:title="libbase::k60::FtmPwm">
<polygon fill="white" stroke="black" points="158,-40.5 158,-61.5 295,-61.5 295,-40.5 158,-40.5"/>
<text text-anchor="middle" x="226.5" y="-47.9" font-family="Inconsolata" font-size="12.00">libbase::k60::FtmPwm</text>
</a>
</g>
</g>
<!-- Node1&#45;&gt;Node2 -->
<g id="edge1" class="edge"><title>Node1&#45;&gt;Node2</title>
<path fill="none" stroke="midnightblue" d="M129.247,-39.333C138.676,-40.4759 148.351,-41.6486 157.761,-42.7893"/>
<polygon fill="midnightblue" stroke="midnightblue" points="129.486,-35.8364 119.137,-38.1076 128.644,-42.7855 129.486,-35.8364"/>
</g>
<!-- Node3 -->
<g id="node3" class="node"><title>Node3</title>
<g id="a_node3"><a xlink:href="classlibbase_1_1k60_1_1_soft_pwm.xhtml" target="_top" xlink:title="Generate PWM signal using PIT and GPIO, only guarantee precision down to us level. ">
<polygon fill="white" stroke="black" points="155,-0.5 155,-21.5 298,-21.5 298,-0.5 155,-0.5"/>
<text text-anchor="middle" x="226.5" y="-7.9" font-family="Inconsolata" font-size="12.00">libbase::k60::SoftPwm</text>
</a>
</g>
</g>
<!-- Node1&#45;&gt;Node3 -->
<g id="edge2" class="edge"><title>Node1&#45;&gt;Node3</title>
<path fill="none" stroke="midnightblue" d="M129.325,-22.6575C137.778,-21.633 146.428,-20.5845 154.906,-19.5568"/>
<polygon fill="midnightblue" stroke="midnightblue" points="128.644,-19.2145 119.137,-23.8924 129.486,-26.1636 128.644,-19.2145"/>
</g>
</g>
</svg>
