<?xml version="1.0" encoding="UTF-8" standalone="no"?>
<!DOCTYPE svg PUBLIC "-//W3C//DTD SVG 1.1//EN"
 "http://www.w3.org/Graphics/SVG/1.1/DTD/svg11.dtd">
<!-- Generated by graphviz version 2.38.0 (20140413.2041)
 -->
<!-- Title: Graphical Class Hierarchy Pages: 1 -->
<svg width="318pt" height="96pt"
 viewBox="0.00 0.00 318.00 96.00" xmlns="http://www.w3.org/2000/svg" xmlns:xlink="http://www.w3.org/1999/xlink">
<g id="graph0" class="graph" transform="scale(1 1) rotate(0) translate(4 92)">
<title>Graphical Class Hierarchy</title>
<polygon fill="white" stroke="none" points="-4,4 -4,-92 314,-92 314,4 -4,4"/>
<!-- Node1 -->
<g id="node1" class="node"><title>Node1</title>
<g id="a_node1"><a xlink:href="structlibbase_1_1k60_1_1_pwm_1_1_config.xhtml" target="_top" xlink:title="libbase::k60::Pwm::\lConfig">
<polygon fill="white" stroke="black" points="0,-26.5 0,-60.5 131,-60.5 131,-26.5 0,-26.5"/>
<text text-anchor="start" x="8" y="-46.9" font-family="Inconsolata" font-size="12.00">libbase::k60::Pwm::</text>
<text text-anchor="middle" x="65.5" y="-33.9" font-family="Inconsolata" font-size="12.00">Config</text>
</a>
</g>
</g>
<!-- Node2 -->
<g id="node2" class="node"><title>Node2</title>
<g id="a_node2"><a xlink:href="structlibbase_1_1k60_1_1_ftm_pwm_1_1_config.xhtml" target="_top" xlink:title="libbase::k60::FtmPwm\l::Config">
<polygon fill="white" stroke="black" points="170,-53.5 170,-87.5 307,-87.5 307,-53.5 170,-53.5"/>
<text text-anchor="start" x="178" y="-73.9" font-family="Inconsolata" font-size="12.00">libbase::k60::FtmPwm</text>
<text text-anchor="middle" x="238.5" y="-60.9" font-family="Inconsolata" font-size="12.00">::Config</text>
</a>
</g>
</g>
<!-- Node1&#45;&gt;Node2 -->
<g id="edge1" class="edge"><title>Node1&#45;&gt;Node2</title>
<path fill="none" stroke="midnightblue" d="M141.059,-55.2725C150.655,-56.7876 160.437,-58.3322 169.912,-59.8283"/>
<polygon fill="midnightblue" stroke="midnightblue" points="141.571,-51.8101 131.148,-53.7075 140.48,-58.7244 141.571,-51.8101"/>
</g>
<!-- Node3 -->
<g id="node3" class="node"><title>Node3</title>
<g id="a_node3"><a xlink:href="structlibbase_1_1k60_1_1_soft_pwm_1_1_config.xhtml" target="_top" xlink:title="libbase::k60::SoftPwm\l::Config">
<polygon fill="white" stroke="black" points="167,-0.5 167,-34.5 310,-34.5 310,-0.5 167,-0.5"/>
<text text-anchor="start" x="175" y="-20.9" font-family="Inconsolata" font-size="12.00">libbase::k60::SoftPwm</text>
<text text-anchor="middle" x="238.5" y="-7.9" font-family="Inconsolata" font-size="12.00">::Config</text>
</a>
</g>
</g>
<!-- Node1&#45;&gt;Node3 -->
<g id="edge2" class="edge"><title>Node1&#45;&gt;Node3</title>
<path fill="none" stroke="midnightblue" d="M141.073,-32.1615C149.603,-30.8645 158.28,-29.5451 166.758,-28.2561"/>
<polygon fill="midnightblue" stroke="midnightblue" points="140.508,-28.707 131.148,-33.6705 141.56,-35.6275 140.508,-28.707"/>
</g>
</g>
</svg>
