<?xml version="1.0" encoding="UTF-8" standalone="no"?>
<!DOCTYPE svg PUBLIC "-//W3C//DTD SVG 1.1//EN"
 "http://www.w3.org/Graphics/SVG/1.1/DTD/svg11.dtd">
<!-- Generated by graphviz version 2.38.0 (20140413.2041)
 -->
<!-- Title: libsc::Encoder::Initializer Pages: 1 -->
<svg width="348pt" height="101pt"
 viewBox="0.00 0.00 348.00 101.00" xmlns="http://www.w3.org/2000/svg" xmlns:xlink="http://www.w3.org/1999/xlink">
<g id="graph0" class="graph" transform="scale(1 1) rotate(0) translate(4 97)">
<title>libsc::Encoder::Initializer</title>
<polygon fill="white" stroke="none" points="-4,4 -4,-97 344,-97 344,4 -4,4"/>
<!-- Node1 -->
<g id="node1" class="node"><title>Node1</title>
<polygon fill="#bfbfbf" stroke="black" points="95,-71.5 95,-92.5 274,-92.5 274,-71.5 95,-71.5"/>
<text text-anchor="middle" x="184.5" y="-78.9" font-family="Inconsolata" font-size="12.00">libsc::Encoder::Initializer</text>
</g>
<!-- Node2 -->
<g id="node2" class="node"><title>Node2</title>
<g id="a_node2"><a xlink:href="structlibsc_1_1_ab_encoder_1_1_initializer.xhtml" target="_top" xlink:title="libsc::AbEncoder::Initializer">
<polygon fill="white" stroke="black" points="0,-7 0,-28 191,-28 191,-7 0,-7"/>
<text text-anchor="middle" x="95.5" y="-14.4" font-family="Inconsolata" font-size="12.00">libsc::AbEncoder::Initializer</text>
</a>
</g>
</g>
<!-- Node1&#45;&gt;Node2 -->
<g id="edge1" class="edge"><title>Node1&#45;&gt;Node2</title>
<path fill="none" stroke="midnightblue" d="M162.024,-65.216C145.432,-53.5648 123.379,-38.0782 109.309,-28.197"/>
<polygon fill="midnightblue" stroke="midnightblue" points="160.399,-68.3517 170.594,-71.2344 164.422,-62.6231 160.399,-68.3517"/>
</g>
<!-- Node3 -->
<g id="node3" class="node"><title>Node3</title>
<g id="a_node3"><a xlink:href="structlibsc_1_1_dir_encoder_1_1_initializer.xhtml" target="_top" xlink:title="libsc::DirEncoder::\lInitializer">
<polygon fill="white" stroke="black" points="209,-0.5 209,-34.5 340,-34.5 340,-0.5 209,-0.5"/>
<text text-anchor="start" x="217" y="-20.9" font-family="Inconsolata" font-size="12.00">libsc::DirEncoder::</text>
<text text-anchor="middle" x="274.5" y="-7.9" font-family="Inconsolata" font-size="12.00">Initializer</text>
</a>
</g>
</g>
<!-- Node1&#45;&gt;Node3 -->
<g id="edge2" class="edge"><title>Node1&#45;&gt;Node3</title>
<path fill="none" stroke="midnightblue" d="M206.873,-65.4634C220.449,-56.0352 237.74,-44.0276 251.44,-34.5141"/>
<polygon fill="midnightblue" stroke="midnightblue" points="204.78,-62.6556 198.562,-71.2344 208.773,-68.4052 204.78,-62.6556"/>
</g>
</g>
</svg>
