<?xml version="1.0" encoding="UTF-8" standalone="no"?>
<!DOCTYPE svg PUBLIC "-//W3C//DTD SVG 1.1//EN"
 "http://www.w3.org/Graphics/SVG/1.1/DTD/svg11.dtd">
<!-- Generated by graphviz version 2.38.0 (20140413.2041)
 -->
<!-- Title: libsc::k60::Motor::Config Pages: 1 -->
<svg width="296pt" height="110pt"
 viewBox="0.00 0.00 296.00 110.00" xmlns="http://www.w3.org/2000/svg" xmlns:xlink="http://www.w3.org/1999/xlink">
<g id="graph0" class="graph" transform="scale(1 1) rotate(0) translate(4 106)">
<title>libsc::k60::Motor::Config</title>
<polygon fill="white" stroke="none" points="-4,4 -4,-106 292,-106 292,4 -4,4"/>
<!-- Node1 -->
<g id="node1" class="node"><title>Node1</title>
<polygon fill="#bfbfbf" stroke="black" points="96.5,-69.5 96.5,-101.5 206.5,-101.5 206.5,-69.5 96.5,-69.5"/>
<text text-anchor="start" x="104.5" y="-88.7" font-family="Open Sans" font-size="11.00">libsc::k60::Motor::</text>
<text text-anchor="middle" x="151.5" y="-76.7" font-family="Open Sans" font-size="11.00">Config</text>
</g>
<!-- Node2 -->
<g id="node2" class="node"><title>Node2</title>
<g id="a_node2"><a xlink:href="structlibsc_1_1k60_1_1_alternate_motor_1_1_config.xhtml" target="_top" xlink:title="libsc::k60::AlternateMotor\l::Config">
<polygon fill="white" stroke="black" points="0,-0.5 0,-32.5 151,-32.5 151,-0.5 0,-0.5"/>
<text text-anchor="start" x="8" y="-19.7" font-family="Open Sans" font-size="11.00">libsc::k60::AlternateMotor</text>
<text text-anchor="middle" x="75.5" y="-7.7" font-family="Open Sans" font-size="11.00">::Config</text>
</a>
</g>
</g>
<!-- Node1&#45;&gt;Node2 -->
<g id="edge1" class="edge"><title>Node1&#45;&gt;Node2</title>
<path fill="none" stroke="midnightblue" d="M126.541,-62.4965C115.45,-52.7193 102.673,-41.4554 92.6773,-32.6432"/>
<polygon fill="midnightblue" stroke="midnightblue" points="124.439,-65.3091 134.254,-69.2967 129.068,-60.0582 124.439,-65.3091"/>
</g>
<!-- Node3 -->
<g id="node3" class="node"><title>Node3</title>
<g id="a_node3"><a xlink:href="structlibsc_1_1k60_1_1_dir_motor_1_1_config.xhtml" target="_top" xlink:title="libsc::k60::DirMotor\l::Config">
<polygon fill="white" stroke="black" points="169,-0.5 169,-32.5 288,-32.5 288,-0.5 169,-0.5"/>
<text text-anchor="start" x="177" y="-19.7" font-family="Open Sans" font-size="11.00">libsc::k60::DirMotor</text>
<text text-anchor="middle" x="228.5" y="-7.7" font-family="Open Sans" font-size="11.00">::Config</text>
</a>
</g>
</g>
<!-- Node1&#45;&gt;Node3 -->
<g id="edge2" class="edge"><title>Node1&#45;&gt;Node3</title>
<path fill="none" stroke="midnightblue" d="M176.788,-62.4965C188.024,-52.7193 200.969,-41.4554 211.097,-32.6432"/>
<polygon fill="midnightblue" stroke="midnightblue" points="174.219,-60.092 168.972,-69.2967 178.814,-65.3728 174.219,-60.092"/>
</g>
</g>
</svg>
