<?xml version="1.0" encoding="UTF-8" standalone="no"?>
<!DOCTYPE svg PUBLIC "-//W3C//DTD SVG 1.1//EN"
 "http://www.w3.org/Graphics/SVG/1.1/DTD/svg11.dtd">
<!-- Generated by graphviz version 2.38.0 (20140413.2041)
 -->
<!-- Title: libsc::k60::DirMotor::Config Pages: 1 -->
<svg width="127pt" height="110pt"
 viewBox="0.00 0.00 127.00 110.00" xmlns="http://www.w3.org/2000/svg" xmlns:xlink="http://www.w3.org/1999/xlink">
<g id="graph0" class="graph" transform="scale(1 1) rotate(0) translate(4 106)">
<title>libsc::k60::DirMotor::Config</title>
<polygon fill="white" stroke="none" points="-4,4 -4,-106 123,-106 123,4 -4,4"/>
<!-- Node1 -->
<g id="node1" class="node"><title>Node1</title>
<polygon fill="#bfbfbf" stroke="black" points="0,-0.5 0,-32.5 119,-32.5 119,-0.5 0,-0.5"/>
<text text-anchor="start" x="8" y="-19.7" font-family="Open Sans" font-size="11.00">libsc::k60::DirMotor</text>
<text text-anchor="middle" x="59.5" y="-7.7" font-family="Open Sans" font-size="11.00">::Config</text>
</g>
<!-- Node2 -->
<g id="node2" class="node"><title>Node2</title>
<g id="a_node2"><a xlink:href="structlibsc_1_1k60_1_1_motor_1_1_config.xhtml" target="_top" xlink:title="libsc::k60::Motor::\lConfig">
<polygon fill="white" stroke="black" points="4.5,-69.5 4.5,-101.5 114.5,-101.5 114.5,-69.5 4.5,-69.5"/>
<text text-anchor="start" x="12.5" y="-88.7" font-family="Open Sans" font-size="11.00">libsc::k60::Motor::</text>
<text text-anchor="middle" x="59.5" y="-76.7" font-family="Open Sans" font-size="11.00">Config</text>
</a>
</g>
</g>
<!-- Node2&#45;&gt;Node1 -->
<g id="edge1" class="edge"><title>Node2&#45;&gt;Node1</title>
<path fill="none" stroke="midnightblue" d="M59.5,-59.0249C59.5,-50.128 59.5,-40.4287 59.5,-32.6432"/>
<polygon fill="midnightblue" stroke="midnightblue" points="56.0001,-59.2966 59.5,-69.2967 63.0001,-59.2967 56.0001,-59.2966"/>
</g>
</g>
</svg>
