<?xml version="1.0" encoding="UTF-8" standalone="no"?>
<!DOCTYPE svg PUBLIC "-//W3C//DTD SVG 1.1//EN"
 "http://www.w3.org/Graphics/SVG/1.1/DTD/svg11.dtd">
<!-- Generated by graphviz version 2.38.0 (20140413.2041)
 -->
<!-- Title: libbase::kl26::I2cMasterInterface::Config Pages: 1 -->
<svg width="372pt" height="114pt"
 viewBox="0.00 0.00 372.00 114.00" xmlns="http://www.w3.org/2000/svg" xmlns:xlink="http://www.w3.org/1999/xlink">
<g id="graph0" class="graph" transform="scale(1 1) rotate(0) translate(4 110)">
<title>libbase::kl26::I2cMasterInterface::Config</title>
<polygon fill="white" stroke="none" points="-4,4 -4,-110 368,-110 368,4 -4,4"/>
<!-- Node1 -->
<g id="node1" class="node"><title>Node1</title>
<polygon fill="#bfbfbf" stroke="black" points="95,-71.5 95,-105.5 256,-105.5 256,-71.5 95,-71.5"/>
<text text-anchor="start" x="103" y="-91.9" font-family="Inconsolata" font-size="12.00">libbase::kl26::I2cMaster</text>
<text text-anchor="middle" x="175.5" y="-78.9" font-family="Inconsolata" font-size="12.00">Interface::Config</text>
</g>
<!-- Node2 -->
<g id="node2" class="node"><title>Node2</title>
<g id="a_node2"><a xlink:href="structlibbase_1_1kl26_1_1_i2c_master_1_1_config.xhtml" target="_top" xlink:title="libbase::kl26::I2cMaster\l::Config">
<polygon fill="white" stroke="black" points="0,-0.5 0,-34.5 161,-34.5 161,-0.5 0,-0.5"/>
<text text-anchor="start" x="8" y="-20.9" font-family="Inconsolata" font-size="12.00">libbase::kl26::I2cMaster</text>
<text text-anchor="middle" x="80.5" y="-7.9" font-family="Inconsolata" font-size="12.00">::Config</text>
</a>
</g>
</g>
<!-- Node1&#45;&gt;Node2 -->
<g id="edge1" class="edge"><title>Node1&#45;&gt;Node2</title>
<path fill="none" stroke="midnightblue" d="M145.22,-65.5068C131.429,-55.4908 115.4,-43.8481 102.743,-34.6557"/>
<polygon fill="midnightblue" stroke="midnightblue" points="143.318,-68.4518 153.466,-71.4966 147.432,-62.788 143.318,-68.4518"/>
</g>
<!-- Node3 -->
<g id="node3" class="node"><title>Node3</title>
<g id="a_node3"><a xlink:href="structlibbase_1_1kl26_1_1_soft_i2c_master_1_1_config.xhtml" target="_top" xlink:title="libbase::kl26::SoftI2cMaster\l::Config">
<polygon fill="white" stroke="black" points="179,-0.5 179,-34.5 364,-34.5 364,-0.5 179,-0.5"/>
<text text-anchor="start" x="187" y="-20.9" font-family="Inconsolata" font-size="12.00">libbase::kl26::SoftI2cMaster</text>
<text text-anchor="middle" x="271.5" y="-7.9" font-family="Inconsolata" font-size="12.00">::Config</text>
</a>
</g>
</g>
<!-- Node1&#45;&gt;Node3 -->
<g id="edge2" class="edge"><title>Node1&#45;&gt;Node3</title>
<path fill="none" stroke="midnightblue" d="M206.099,-65.5068C220.035,-55.4908 236.233,-43.8481 249.023,-34.6557"/>
<polygon fill="midnightblue" stroke="midnightblue" points="203.843,-62.8181 197.766,-71.4966 207.929,-68.5022 203.843,-62.8181"/>
</g>
</g>
</svg>
