<?xml version="1.0" encoding="UTF-8" standalone="no"?>
<!DOCTYPE svg PUBLIC "-//W3C//DTD SVG 1.1//EN"
 "http://www.w3.org/Graphics/SVG/1.1/DTD/svg11.dtd">
<!-- Generated by graphviz version 2.38.0 (20140413.2041)
 -->
<!-- Title: libbase::k60::SoftI2cMaster::Config Pages: 1 -->
<svg width="189pt" height="110pt"
 viewBox="0.00 0.00 189.00 110.00" xmlns="http://www.w3.org/2000/svg" xmlns:xlink="http://www.w3.org/1999/xlink">
<g id="graph0" class="graph" transform="scale(1 1) rotate(0) translate(4 106)">
<title>libbase::k60::SoftI2cMaster::Config</title>
<polygon fill="white" stroke="none" points="-4,4 -4,-106 185,-106 185,4 -4,4"/>
<!-- Node1 -->
<g id="node1" class="node"><title>Node1</title>
<polygon fill="#bfbfbf" stroke="black" points="12.5,-0.5 12.5,-32.5 168.5,-32.5 168.5,-0.5 12.5,-0.5"/>
<text text-anchor="start" x="20.5" y="-19.7" font-family="Open Sans" font-size="11.00">libbase::k60::SoftI2cMaster</text>
<text text-anchor="middle" x="90.5" y="-7.7" font-family="Open Sans" font-size="11.00">::Config</text>
</g>
<!-- Node2 -->
<g id="node2" class="node"><title>Node2</title>
<g id="a_node2"><a xlink:href="structlibbase_1_1k60_1_1_i2c_master_interface_1_1_config.xhtml" target="_top" xlink:title="libbase::k60::I2cMasterInterface\l::Config">
<polygon fill="white" stroke="black" points="0,-69.5 0,-101.5 181,-101.5 181,-69.5 0,-69.5"/>
<text text-anchor="start" x="8" y="-88.7" font-family="Open Sans" font-size="11.00">libbase::k60::I2cMasterInterface</text>
<text text-anchor="middle" x="90.5" y="-76.7" font-family="Open Sans" font-size="11.00">::Config</text>
</a>
</g>
</g>
<!-- Node2&#45;&gt;Node1 -->
<g id="edge1" class="edge"><title>Node2&#45;&gt;Node1</title>
<path fill="none" stroke="midnightblue" d="M90.5,-59.0249C90.5,-50.128 90.5,-40.4287 90.5,-32.6432"/>
<polygon fill="midnightblue" stroke="midnightblue" points="87.0001,-59.2966 90.5,-69.2967 94.0001,-59.2967 87.0001,-59.2966"/>
</g>
</g>
</svg>
