<?xml version="1.0" encoding="UTF-8" standalone="no"?>
<!DOCTYPE svg PUBLIC "-//W3C//DTD SVG 1.1//EN"
 "http://www.w3.org/Graphics/SVG/1.1/DTD/svg11.dtd">
<!-- Generated by graphviz version 2.38.0 (20140413.2041)
 -->
<!-- Title: libbase::kl26::I2cMaster::Config Pages: 1 -->
<svg width="169pt" height="114pt"
 viewBox="0.00 0.00 169.00 114.00" xmlns="http://www.w3.org/2000/svg" xmlns:xlink="http://www.w3.org/1999/xlink">
<g id="graph0" class="graph" transform="scale(1 1) rotate(0) translate(4 110)">
<title>libbase::kl26::I2cMaster::Config</title>
<polygon fill="white" stroke="none" points="-4,4 -4,-110 165,-110 165,4 -4,4"/>
<!-- Node1 -->
<g id="node1" class="node"><title>Node1</title>
<polygon fill="#bfbfbf" stroke="black" points="0,-0.5 0,-34.5 161,-34.5 161,-0.5 0,-0.5"/>
<text text-anchor="start" x="8" y="-20.9" font-family="Inconsolata" font-size="12.00">libbase::kl26::I2cMaster</text>
<text text-anchor="middle" x="80.5" y="-7.9" font-family="Inconsolata" font-size="12.00">::Config</text>
</g>
<!-- Node2 -->
<g id="node2" class="node"><title>Node2</title>
<g id="a_node2"><a xlink:href="structlibbase_1_1kl26_1_1_i2c_master_interface_1_1_config.xhtml" target="_top" xlink:title="libbase::kl26::I2cMaster\lInterface::Config">
<polygon fill="white" stroke="black" points="0,-71.5 0,-105.5 161,-105.5 161,-71.5 0,-71.5"/>
<text text-anchor="start" x="8" y="-91.9" font-family="Inconsolata" font-size="12.00">libbase::kl26::I2cMaster</text>
<text text-anchor="middle" x="80.5" y="-78.9" font-family="Inconsolata" font-size="12.00">Interface::Config</text>
</a>
</g>
</g>
<!-- Node2&#45;&gt;Node1 -->
<g id="edge1" class="edge"><title>Node2&#45;&gt;Node1</title>
<path fill="none" stroke="midnightblue" d="M80.5,-61.2468C80.5,-52.3917 80.5,-42.7667 80.5,-34.8958"/>
<polygon fill="midnightblue" stroke="midnightblue" points="77.0001,-61.4965 80.5,-71.4966 84.0001,-61.4966 77.0001,-61.4965"/>
</g>
</g>
</svg>
