<?xml version="1.0" encoding="UTF-8" standalone="no"?>
<!DOCTYPE svg PUBLIC "-//W3C//DTD SVG 1.1//EN"
 "http://www.w3.org/Graphics/SVG/1.1/DTD/svg11.dtd">
<!-- Generated by graphviz version 2.38.0 (20140413.2041)
 -->
<!-- Title: libsc::k60::Encoder::Initializer Pages: 1 -->
<svg width="284pt" height="110pt"
 viewBox="0.00 0.00 283.50 110.00" xmlns="http://www.w3.org/2000/svg" xmlns:xlink="http://www.w3.org/1999/xlink">
<g id="graph0" class="graph" transform="scale(1 1) rotate(0) translate(4 106)">
<title>libsc::k60::Encoder::Initializer</title>
<polygon fill="white" stroke="none" points="-4,4 -4,-106 279.5,-106 279.5,4 -4,4"/>
<!-- Node1 -->
<g id="node1" class="node"><title>Node1</title>
<polygon fill="#bfbfbf" stroke="black" points="80.5,-69.5 80.5,-101.5 193.5,-101.5 193.5,-69.5 80.5,-69.5"/>
<text text-anchor="start" x="88.5" y="-88.7" font-family="Open Sans" font-size="11.00">libsc::k60::Encoder</text>
<text text-anchor="middle" x="137" y="-76.7" font-family="Open Sans" font-size="11.00">::Initializer</text>
</g>
<!-- Node2 -->
<g id="node2" class="node"><title>Node2</title>
<g id="a_node2"><a xlink:href="structlibsc_1_1k60_1_1_ab_encoder_1_1_initializer.xhtml" target="_top" xlink:title="libsc::k60::AbEncoder\l::Initializer">
<polygon fill="white" stroke="black" points="0,-0.5 0,-32.5 128,-32.5 128,-0.5 0,-0.5"/>
<text text-anchor="start" x="8" y="-19.7" font-family="Open Sans" font-size="11.00">libsc::k60::AbEncoder</text>
<text text-anchor="middle" x="64" y="-7.7" font-family="Open Sans" font-size="11.00">::Initializer</text>
</a>
</g>
</g>
<!-- Node1&#45;&gt;Node2 -->
<g id="edge1" class="edge"><title>Node1&#45;&gt;Node2</title>
<path fill="none" stroke="midnightblue" d="M113.026,-62.4965C102.373,-52.7193 90.1007,-41.4554 80.4993,-32.6432"/>
<polygon fill="midnightblue" stroke="midnightblue" points="110.701,-65.1134 120.435,-69.2967 115.434,-59.9562 110.701,-65.1134"/>
</g>
<!-- Node3 -->
<g id="node3" class="node"><title>Node3</title>
<g id="a_node3"><a xlink:href="structlibsc_1_1k60_1_1_dir_encoder_1_1_initializer.xhtml" target="_top" xlink:title="libsc::k60::DirEncoder\l::Initializer">
<polygon fill="white" stroke="black" points="146.5,-0.5 146.5,-32.5 275.5,-32.5 275.5,-0.5 146.5,-0.5"/>
<text text-anchor="start" x="154.5" y="-19.7" font-family="Open Sans" font-size="11.00">libsc::k60::DirEncoder</text>
<text text-anchor="middle" x="211" y="-7.7" font-family="Open Sans" font-size="11.00">::Initializer</text>
</a>
</g>
</g>
<!-- Node1&#45;&gt;Node3 -->
<g id="edge2" class="edge"><title>Node1&#45;&gt;Node3</title>
<path fill="none" stroke="midnightblue" d="M161.302,-62.4965C172.101,-52.7193 184.542,-41.4554 194.275,-32.6432"/>
<polygon fill="midnightblue" stroke="midnightblue" points="158.856,-59.9903 153.792,-69.2967 163.554,-65.1794 158.856,-59.9903"/>
</g>
</g>
</svg>
