<?xml version="1.0" encoding="UTF-8" standalone="no"?>
<!DOCTYPE svg PUBLIC "-//W3C//DTD SVG 1.1//EN"
 "http://www.w3.org/Graphics/SVG/1.1/DTD/svg11.dtd">
<!-- Generated by graphviz version 2.38.0 (20140413.2041)
 -->
<!-- Title: libbase::k60::I2cMasterInterface::Config Pages: 1 -->
<svg width="360pt" height="114pt"
 viewBox="0.00 0.00 360.00 114.00" xmlns="http://www.w3.org/2000/svg" xmlns:xlink="http://www.w3.org/1999/xlink">
<g id="graph0" class="graph" transform="scale(1 1) rotate(0) translate(4 110)">
<title>libbase::k60::I2cMasterInterface::Config</title>
<polygon fill="white" stroke="none" points="-4,4 -4,-110 356,-110 356,4 -4,4"/>
<!-- Node1 -->
<g id="node1" class="node"><title>Node1</title>
<polygon fill="#bfbfbf" stroke="black" points="65,-71.5 65,-105.5 274,-105.5 274,-71.5 65,-71.5"/>
<text text-anchor="start" x="73" y="-91.9" font-family="Inconsolata" font-size="12.00">libbase::k60::I2cMasterInterface</text>
<text text-anchor="middle" x="169.5" y="-78.9" font-family="Inconsolata" font-size="12.00">::Config</text>
</g>
<!-- Node2 -->
<g id="node2" class="node"><title>Node2</title>
<g id="a_node2"><a xlink:href="structlibbase_1_1k60_1_1_i2c_master_1_1_config.xhtml" target="_top" xlink:title="libbase::k60::I2cMaster\l::Config">
<polygon fill="white" stroke="black" points="0,-0.5 0,-34.5 155,-34.5 155,-0.5 0,-0.5"/>
<text text-anchor="start" x="8" y="-20.9" font-family="Inconsolata" font-size="12.00">libbase::k60::I2cMaster</text>
<text text-anchor="middle" x="77.5" y="-7.9" font-family="Inconsolata" font-size="12.00">::Config</text>
</a>
</g>
</g>
<!-- Node1&#45;&gt;Node2 -->
<g id="edge1" class="edge"><title>Node1&#45;&gt;Node2</title>
<path fill="none" stroke="midnightblue" d="M139.797,-65.2229C126.528,-55.2713 111.182,-43.7614 99.0409,-34.6557"/>
<polygon fill="midnightblue" stroke="midnightblue" points="138.062,-68.2966 148.162,-71.4966 142.262,-62.6965 138.062,-68.2966"/>
</g>
<!-- Node3 -->
<g id="node3" class="node"><title>Node3</title>
<g id="a_node3"><a xlink:href="structlibbase_1_1k60_1_1_soft_i2c_master_1_1_config.xhtml" target="_top" xlink:title="libbase::k60::SoftI2cMaster\l::Config">
<polygon fill="white" stroke="black" points="173,-0.5 173,-34.5 352,-34.5 352,-0.5 173,-0.5"/>
<text text-anchor="start" x="181" y="-20.9" font-family="Inconsolata" font-size="12.00">libbase::k60::SoftI2cMaster</text>
<text text-anchor="middle" x="262.5" y="-7.9" font-family="Inconsolata" font-size="12.00">::Config</text>
</a>
</g>
</g>
<!-- Node1&#45;&gt;Node3 -->
<g id="edge2" class="edge"><title>Node1&#45;&gt;Node3</title>
<path fill="none" stroke="midnightblue" d="M199.143,-65.5068C212.643,-55.4908 228.335,-43.8481 240.725,-34.6557"/>
<polygon fill="midnightblue" stroke="midnightblue" points="197.015,-62.7272 191.07,-71.4966 201.186,-68.3489 197.015,-62.7272"/>
</g>
</g>
</svg>
