<?xml version="1.0" encoding="UTF-8" standalone="no"?>
<!DOCTYPE svg PUBLIC "-//W3C//DTD SVG 1.1//EN"
 "http://www.w3.org/Graphics/SVG/1.1/DTD/svg11.dtd">
<!-- Generated by graphviz version 2.38.0 (20140413.2041)
 -->
<!-- Title: libbase::k60::QuadDecoderInterface::Config Pages: 1 -->
<svg width="402pt" height="114pt"
 viewBox="0.00 0.00 402.00 114.00" xmlns="http://www.w3.org/2000/svg" xmlns:xlink="http://www.w3.org/1999/xlink">
<g id="graph0" class="graph" transform="scale(1 1) rotate(0) translate(4 110)">
<title>libbase::k60::QuadDecoderInterface::Config</title>
<polygon fill="white" stroke="none" points="-4,4 -4,-110 398,-110 398,4 -4,4"/>
<!-- Node1 -->
<g id="node1" class="node"><title>Node1</title>
<polygon fill="#bfbfbf" stroke="black" points="112,-71.5 112,-105.5 279,-105.5 279,-71.5 112,-71.5"/>
<text text-anchor="start" x="120" y="-91.9" font-family="Inconsolata" font-size="12.00">libbase::k60::QuadDecoder</text>
<text text-anchor="middle" x="195.5" y="-78.9" font-family="Inconsolata" font-size="12.00">Interface::Config</text>
</g>
<!-- Node2 -->
<g id="node2" class="node"><title>Node2</title>
<g id="a_node2"><a xlink:href="structlibbase_1_1k60_1_1_ftm_quad_decoder_1_1_config.xhtml" target="_top" xlink:title="libbase::k60::FtmQuadDecoder\l::Config">
<polygon fill="white" stroke="black" points="0,-0.5 0,-34.5 185,-34.5 185,-0.5 0,-0.5"/>
<text text-anchor="start" x="8" y="-20.9" font-family="Inconsolata" font-size="12.00">libbase::k60::FtmQuadDecoder</text>
<text text-anchor="middle" x="92.5" y="-7.9" font-family="Inconsolata" font-size="12.00">::Config</text>
</a>
</g>
</g>
<!-- Node1&#45;&gt;Node2 -->
<g id="edge1" class="edge"><title>Node1&#45;&gt;Node2</title>
<path fill="none" stroke="midnightblue" d="M163.092,-65.7898C148.046,-55.7106 130.468,-43.9349 116.616,-34.6557"/>
<polygon fill="midnightblue" stroke="midnightblue" points="161.355,-68.8388 171.611,-71.4966 165.251,-63.0231 161.355,-68.8388"/>
</g>
<!-- Node3 -->
<g id="node3" class="node"><title>Node3</title>
<g id="a_node3"><a xlink:href="structlibbase_1_1k60_1_1_soft_quad_decoder_1_1_config.xhtml" target="_top" xlink:title="libbase::k60::SoftQuadDecoder\l::Config">
<polygon fill="white" stroke="black" points="203,-0.5 203,-34.5 394,-34.5 394,-0.5 203,-0.5"/>
<text text-anchor="start" x="211" y="-20.9" font-family="Inconsolata" font-size="12.00">libbase::k60::SoftQuadDecoder</text>
<text text-anchor="middle" x="298.5" y="-7.9" font-family="Inconsolata" font-size="12.00">::Config</text>
</a>
</g>
</g>
<!-- Node1&#45;&gt;Node3 -->
<g id="edge2" class="edge"><title>Node1&#45;&gt;Node3</title>
<path fill="none" stroke="midnightblue" d="M227.908,-65.7898C242.954,-55.7106 260.532,-43.9349 274.384,-34.6557"/>
<polygon fill="midnightblue" stroke="midnightblue" points="225.749,-63.0231 219.389,-71.4966 229.645,-68.8388 225.749,-63.0231"/>
</g>
</g>
</svg>
