<?xml version="1.0" encoding="UTF-8" standalone="no"?>
<!DOCTYPE svg PUBLIC "-//W3C//DTD SVG 1.1//EN"
 "http://www.w3.org/Graphics/SVG/1.1/DTD/svg11.dtd">
<!-- Generated by graphviz version 2.38.0 (20140413.2041)
 -->
<!-- Title: libsc::kl26::UartDevice::Initializer Pages: 1 -->
<svg width="163pt" height="114pt"
 viewBox="0.00 0.00 163.00 114.00" xmlns="http://www.w3.org/2000/svg" xmlns:xlink="http://www.w3.org/1999/xlink">
<g id="graph0" class="graph" transform="scale(1 1) rotate(0) translate(4 110)">
<title>libsc::kl26::UartDevice::Initializer</title>
<polygon fill="white" stroke="none" points="-4,4 -4,-110 159,-110 159,4 -4,4"/>
<!-- Node1 -->
<g id="node1" class="node"><title>Node1</title>
<polygon fill="#bfbfbf" stroke="black" points="0,-71.5 0,-105.5 155,-105.5 155,-71.5 0,-71.5"/>
<text text-anchor="start" x="8" y="-91.9" font-family="Inconsolata" font-size="12.00">libsc::kl26::UartDevice</text>
<text text-anchor="middle" x="77.5" y="-78.9" font-family="Inconsolata" font-size="12.00">::Initializer</text>
</g>
<!-- Node2 -->
<g id="node2" class="node"><title>Node2</title>
<g id="a_node2"><a xlink:href="structlibsc_1_1kl26_1_1_jy_mcu_bt106_1_1_initializer.xhtml" target="_top" xlink:title="libsc::kl26::JyMcuBt106\l::Initializer">
<polygon fill="white" stroke="black" points="0,-0.5 0,-34.5 155,-34.5 155,-0.5 0,-0.5"/>
<text text-anchor="start" x="8" y="-20.9" font-family="Inconsolata" font-size="12.00">libsc::kl26::JyMcuBt106</text>
<text text-anchor="middle" x="77.5" y="-7.9" font-family="Inconsolata" font-size="12.00">::Initializer</text>
</a>
</g>
</g>
<!-- Node1&#45;&gt;Node2 -->
<g id="edge1" class="edge"><title>Node1&#45;&gt;Node2</title>
<path fill="none" stroke="midnightblue" d="M77.5,-61.2468C77.5,-52.3917 77.5,-42.7667 77.5,-34.8958"/>
<polygon fill="midnightblue" stroke="midnightblue" points="74.0001,-61.4965 77.5,-71.4966 81.0001,-61.4966 74.0001,-61.4965"/>
</g>
</g>
</svg>
