<?xml version="1.0" encoding="UTF-8" standalone="no"?>
<!DOCTYPE svg PUBLIC "-//W3C//DTD SVG 1.1//EN"
 "http://www.w3.org/Graphics/SVG/1.1/DTD/svg11.dtd">
<!-- Generated by graphviz version 2.38.0 (20140413.2041)
 -->
<!-- Title: libbase::k60::SoftPwm::Config Pages: 1 -->
<svg width="139pt" height="110pt"
 viewBox="0.00 0.00 139.00 110.00" xmlns="http://www.w3.org/2000/svg" xmlns:xlink="http://www.w3.org/1999/xlink">
<g id="graph0" class="graph" transform="scale(1 1) rotate(0) translate(4 106)">
<title>libbase::k60::SoftPwm::Config</title>
<polygon fill="white" stroke="none" points="-4,4 -4,-106 135,-106 135,4 -4,4"/>
<!-- Node1 -->
<g id="node1" class="node"><title>Node1</title>
<polygon fill="#bfbfbf" stroke="black" points="0,-0.5 0,-32.5 131,-32.5 131,-0.5 0,-0.5"/>
<text text-anchor="start" x="8" y="-19.7" font-family="Open Sans" font-size="11.00">libbase::k60::SoftPwm</text>
<text text-anchor="middle" x="65.5" y="-7.7" font-family="Open Sans" font-size="11.00">::Config</text>
</g>
<!-- Node2 -->
<g id="node2" class="node"><title>Node2</title>
<g id="a_node2"><a xlink:href="structlibbase_1_1k60_1_1_pwm_1_1_config.xhtml" target="_top" xlink:title="libbase::k60::Pwm::\lConfig">
<polygon fill="white" stroke="black" points="7,-69.5 7,-101.5 124,-101.5 124,-69.5 7,-69.5"/>
<text text-anchor="start" x="15" y="-88.7" font-family="Open Sans" font-size="11.00">libbase::k60::Pwm::</text>
<text text-anchor="middle" x="65.5" y="-76.7" font-family="Open Sans" font-size="11.00">Config</text>
</a>
</g>
</g>
<!-- Node2&#45;&gt;Node1 -->
<g id="edge1" class="edge"><title>Node2&#45;&gt;Node1</title>
<path fill="none" stroke="midnightblue" d="M65.5,-59.0249C65.5,-50.128 65.5,-40.4287 65.5,-32.6432"/>
<polygon fill="midnightblue" stroke="midnightblue" points="62.0001,-59.2966 65.5,-69.2967 69.0001,-59.2967 62.0001,-59.2966"/>
</g>
</g>
</svg>
