<?xml version="1.0" encoding="UTF-8" standalone="no"?>
<!DOCTYPE svg PUBLIC "-//W3C//DTD SVG 1.1//EN"
 "http://www.w3.org/Graphics/SVG/1.1/DTD/svg11.dtd">
<!-- Generated by graphviz version 2.38.0 (20140413.2041)
 -->
<!-- Title: libsc::Motor::Config Pages: 1 -->
<svg width="324pt" height="101pt"
 viewBox="0.00 0.00 324.00 101.00" xmlns="http://www.w3.org/2000/svg" xmlns:xlink="http://www.w3.org/1999/xlink">
<g id="graph0" class="graph" transform="scale(1 1) rotate(0) translate(4 97)">
<title>libsc::Motor::Config</title>
<polygon fill="white" stroke="none" points="-4,4 -4,-97 320,-97 320,4 -4,4"/>
<!-- Node1 -->
<g id="node1" class="node"><title>Node1</title>
<polygon fill="#bfbfbf" stroke="black" points="86,-71.5 86,-92.5 223,-92.5 223,-71.5 86,-71.5"/>
<text text-anchor="middle" x="154.5" y="-78.9" font-family="Inconsolata" font-size="12.00">libsc::Motor::Config</text>
</g>
<!-- Node2 -->
<g id="node2" class="node"><title>Node2</title>
<g id="a_node2"><a xlink:href="structlibsc_1_1_alternate_motor_1_1_config.xhtml" target="_top" xlink:title="libsc::AlternateMotor\l::Config">
<polygon fill="white" stroke="black" points="0,-0.5 0,-34.5 143,-34.5 143,-0.5 0,-0.5"/>
<text text-anchor="start" x="8" y="-20.9" font-family="Inconsolata" font-size="12.00">libsc::AlternateMotor</text>
<text text-anchor="middle" x="71.5" y="-7.9" font-family="Inconsolata" font-size="12.00">::Config</text>
</a>
</g>
</g>
<!-- Node1&#45;&gt;Node2 -->
<g id="edge1" class="edge"><title>Node1&#45;&gt;Node2</title>
<path fill="none" stroke="midnightblue" d="M133.509,-65.1933C121.043,-55.8067 105.28,-43.937 92.7668,-34.5141"/>
<polygon fill="midnightblue" stroke="midnightblue" points="131.437,-68.0149 141.531,-71.2344 135.648,-62.423 131.437,-68.0149"/>
</g>
<!-- Node3 -->
<g id="node3" class="node"><title>Node3</title>
<g id="a_node3"><a xlink:href="structlibsc_1_1_dir_motor_1_1_config.xhtml" target="_top" xlink:title="libsc::DirMotor::Config">
<polygon fill="white" stroke="black" points="161,-7 161,-28 316,-28 316,-7 161,-7"/>
<text text-anchor="middle" x="238.5" y="-14.4" font-family="Inconsolata" font-size="12.00">libsc::DirMotor::Config</text>
</a>
</g>
</g>
<!-- Node1&#45;&gt;Node3 -->
<g id="edge2" class="edge"><title>Node1&#45;&gt;Node3</title>
<path fill="none" stroke="midnightblue" d="M175.714,-65.216C191.373,-53.5648 212.187,-38.0782 225.467,-28.197"/>
<polygon fill="midnightblue" stroke="midnightblue" points="173.559,-62.4569 167.625,-71.2344 177.737,-68.073 173.559,-62.4569"/>
</g>
</g>
</svg>
