<?xml version="1.0" encoding="UTF-8" standalone="no"?>
<!DOCTYPE svg PUBLIC "-//W3C//DTD SVG 1.1//EN"
 "http://www.w3.org/Graphics/SVG/1.1/DTD/svg11.dtd">
<!-- Generated by graphviz version 2.38.0 (20140413.2041)
 -->
<!-- Title: libbase::k60::FtmPwm::Config Pages: 1 -->
<svg width="145pt" height="114pt"
 viewBox="0.00 0.00 145.00 114.00" xmlns="http://www.w3.org/2000/svg" xmlns:xlink="http://www.w3.org/1999/xlink">
<g id="graph0" class="graph" transform="scale(1 1) rotate(0) translate(4 110)">
<title>libbase::k60::FtmPwm::Config</title>
<polygon fill="white" stroke="none" points="-4,4 -4,-110 141,-110 141,4 -4,4"/>
<!-- Node1 -->
<g id="node1" class="node"><title>Node1</title>
<polygon fill="#bfbfbf" stroke="black" points="0,-0.5 0,-34.5 137,-34.5 137,-0.5 0,-0.5"/>
<text text-anchor="start" x="8" y="-20.9" font-family="Inconsolata" font-size="12.00">libbase::k60::FtmPwm</text>
<text text-anchor="middle" x="68.5" y="-7.9" font-family="Inconsolata" font-size="12.00">::Config</text>
</g>
<!-- Node2 -->
<g id="node2" class="node"><title>Node2</title>
<g id="a_node2"><a xlink:href="structlibbase_1_1k60_1_1_pwm_1_1_config.xhtml" target="_top" xlink:title="libbase::k60::Pwm::\lConfig">
<polygon fill="white" stroke="black" points="3,-71.5 3,-105.5 134,-105.5 134,-71.5 3,-71.5"/>
<text text-anchor="start" x="11" y="-91.9" font-family="Inconsolata" font-size="12.00">libbase::k60::Pwm::</text>
<text text-anchor="middle" x="68.5" y="-78.9" font-family="Inconsolata" font-size="12.00">Config</text>
</a>
</g>
</g>
<!-- Node2&#45;&gt;Node1 -->
<g id="edge1" class="edge"><title>Node2&#45;&gt;Node1</title>
<path fill="none" stroke="midnightblue" d="M68.5,-61.2468C68.5,-52.3917 68.5,-42.7667 68.5,-34.8958"/>
<polygon fill="midnightblue" stroke="midnightblue" points="65.0001,-61.4965 68.5,-71.4966 72.0001,-61.4966 65.0001,-61.4965"/>
</g>
</g>
</svg>
