<?xml version="1.0" encoding="UTF-8" standalone="no"?>
<!DOCTYPE svg PUBLIC "-//W3C//DTD SVG 1.1//EN"
 "http://www.w3.org/Graphics/SVG/1.1/DTD/svg11.dtd">
<!-- Generated by graphviz version 2.38.0 (20140413.2041)
 -->
<!-- Title: libbase::k60::Pwm::Config Pages: 1 -->
<svg width="288pt" height="110pt"
 viewBox="0.00 0.00 288.00 110.00" xmlns="http://www.w3.org/2000/svg" xmlns:xlink="http://www.w3.org/1999/xlink">
<g id="graph0" class="graph" transform="scale(1 1) rotate(0) translate(4 106)">
<title>libbase::k60::Pwm::Config</title>
<polygon fill="white" stroke="none" points="-4,4 -4,-106 284,-106 284,4 -4,4"/>
<!-- Node1 -->
<g id="node1" class="node"><title>Node1</title>
<polygon fill="#bfbfbf" stroke="black" points="81,-69.5 81,-101.5 198,-101.5 198,-69.5 81,-69.5"/>
<text text-anchor="start" x="89" y="-88.7" font-family="Open Sans" font-size="11.00">libbase::k60::Pwm::</text>
<text text-anchor="middle" x="139.5" y="-76.7" font-family="Open Sans" font-size="11.00">Config</text>
</g>
<!-- Node2 -->
<g id="node2" class="node"><title>Node2</title>
<g id="a_node2"><a xlink:href="structlibbase_1_1k60_1_1_ftm_pwm_1_1_config.xhtml" target="_top" xlink:title="libbase::k60::FtmPwm\l::Config">
<polygon fill="white" stroke="black" points="0,-0.5 0,-32.5 131,-32.5 131,-0.5 0,-0.5"/>
<text text-anchor="start" x="8" y="-19.7" font-family="Open Sans" font-size="11.00">libbase::k60::FtmPwm</text>
<text text-anchor="middle" x="65.5" y="-7.7" font-family="Open Sans" font-size="11.00">::Config</text>
</a>
</g>
</g>
<!-- Node1&#45;&gt;Node2 -->
<g id="edge1" class="edge"><title>Node1&#45;&gt;Node2</title>
<path fill="none" stroke="midnightblue" d="M115.198,-62.4965C104.399,-52.7193 91.9582,-41.4554 82.2253,-32.6432"/>
<polygon fill="midnightblue" stroke="midnightblue" points="112.946,-65.1794 122.708,-69.2967 117.644,-59.9903 112.946,-65.1794"/>
</g>
<!-- Node3 -->
<g id="node3" class="node"><title>Node3</title>
<g id="a_node3"><a xlink:href="structlibbase_1_1k60_1_1_soft_pwm_1_1_config.xhtml" target="_top" xlink:title="libbase::k60::SoftPwm\l::Config">
<polygon fill="white" stroke="black" points="149,-0.5 149,-32.5 280,-32.5 280,-0.5 149,-0.5"/>
<text text-anchor="start" x="157" y="-19.7" font-family="Open Sans" font-size="11.00">libbase::k60::SoftPwm</text>
<text text-anchor="middle" x="214.5" y="-7.7" font-family="Open Sans" font-size="11.00">::Config</text>
</a>
</g>
</g>
<!-- Node1&#45;&gt;Node3 -->
<g id="edge2" class="edge"><title>Node1&#45;&gt;Node3</title>
<path fill="none" stroke="midnightblue" d="M164.131,-62.4965C175.075,-52.7193 187.684,-41.4554 197.549,-32.6432"/>
<polygon fill="midnightblue" stroke="midnightblue" points="161.645,-60.0243 156.519,-69.2967 166.308,-65.2447 161.645,-60.0243"/>
</g>
</g>
</svg>
