<?xml version="1.0" encoding="UTF-8" standalone="no"?>
<!DOCTYPE svg PUBLIC "-//W3C//DTD SVG 1.1//EN"
 "http://www.w3.org/Graphics/SVG/1.1/DTD/svg11.dtd">
<!-- Generated by graphviz version 2.38.0 (20140413.2041)
 -->
<!-- Title: libsc::k60::AbEncoder::Initializer Pages: 1 -->
<svg width="136pt" height="110pt"
 viewBox="0.00 0.00 136.00 110.00" xmlns="http://www.w3.org/2000/svg" xmlns:xlink="http://www.w3.org/1999/xlink">
<g id="graph0" class="graph" transform="scale(1 1) rotate(0) translate(4 106)">
<title>libsc::k60::AbEncoder::Initializer</title>
<polygon fill="white" stroke="none" points="-4,4 -4,-106 132,-106 132,4 -4,4"/>
<!-- Node1 -->
<g id="node1" class="node"><title>Node1</title>
<polygon fill="#bfbfbf" stroke="black" points="0,-0.5 0,-32.5 128,-32.5 128,-0.5 0,-0.5"/>
<text text-anchor="start" x="8" y="-19.7" font-family="Open Sans" font-size="11.00">libsc::k60::AbEncoder</text>
<text text-anchor="middle" x="64" y="-7.7" font-family="Open Sans" font-size="11.00">::Initializer</text>
</g>
<!-- Node2 -->
<g id="node2" class="node"><title>Node2</title>
<g id="a_node2"><a xlink:href="structlibsc_1_1k60_1_1_encoder_1_1_initializer.xhtml" target="_top" xlink:title="Use to initialize the encoder in possibly a polymorphic way, notice that Initializer::config is store...">
<polygon fill="white" stroke="black" points="7.5,-69.5 7.5,-101.5 120.5,-101.5 120.5,-69.5 7.5,-69.5"/>
<text text-anchor="start" x="15.5" y="-88.7" font-family="Open Sans" font-size="11.00">libsc::k60::Encoder</text>
<text text-anchor="middle" x="64" y="-76.7" font-family="Open Sans" font-size="11.00">::Initializer</text>
</a>
</g>
</g>
<!-- Node2&#45;&gt;Node1 -->
<g id="edge1" class="edge"><title>Node2&#45;&gt;Node1</title>
<path fill="none" stroke="midnightblue" d="M64,-59.0249C64,-50.128 64,-40.4287 64,-32.6432"/>
<polygon fill="midnightblue" stroke="midnightblue" points="60.5001,-59.2966 64,-69.2967 67.5001,-59.2967 60.5001,-59.2966"/>
</g>
</g>
</svg>
