<?xml version="1.0" encoding="UTF-8" standalone="no"?>
<!DOCTYPE svg PUBLIC "-//W3C//DTD SVG 1.1//EN"
 "http://www.w3.org/Graphics/SVG/1.1/DTD/svg11.dtd">
<!-- Generated by graphviz version 2.38.0 (20140413.2041)
 -->
<!-- Title: libbase::kl26::Pwm::Config Pages: 1 -->
<svg width="318pt" height="114pt"
 viewBox="0.00 0.00 318.00 114.00" xmlns="http://www.w3.org/2000/svg" xmlns:xlink="http://www.w3.org/1999/xlink">
<g id="graph0" class="graph" transform="scale(1 1) rotate(0) translate(4 110)">
<title>libbase::kl26::Pwm::Config</title>
<polygon fill="white" stroke="none" points="-4,4 -4,-110 314,-110 314,4 -4,4"/>
<!-- Node1 -->
<g id="node1" class="node"><title>Node1</title>
<polygon fill="#bfbfbf" stroke="black" points="94,-71.5 94,-105.5 219,-105.5 219,-71.5 94,-71.5"/>
<text text-anchor="start" x="102" y="-91.9" font-family="Inconsolata" font-size="12.00">libbase::kl26::Pwm</text>
<text text-anchor="middle" x="156.5" y="-78.9" font-family="Inconsolata" font-size="12.00">::Config</text>
</g>
<!-- Node2 -->
<g id="node2" class="node"><title>Node2</title>
<g id="a_node2"><a xlink:href="structlibbase_1_1kl26_1_1_soft_pwm_1_1_config.xhtml" target="_top" xlink:title="libbase::kl26::SoftPwm\l::Config">
<polygon fill="white" stroke="black" points="0,-0.5 0,-34.5 149,-34.5 149,-0.5 0,-0.5"/>
<text text-anchor="start" x="8" y="-20.9" font-family="Inconsolata" font-size="12.00">libbase::kl26::SoftPwm</text>
<text text-anchor="middle" x="74.5" y="-7.9" font-family="Inconsolata" font-size="12.00">::Config</text>
</a>
</g>
</g>
<!-- Node1&#45;&gt;Node2 -->
<g id="edge1" class="edge"><title>Node1&#45;&gt;Node2</title>
<path fill="none" stroke="midnightblue" d="M129.687,-64.9382C117.939,-55.0523 104.418,-43.6747 93.6995,-34.6557"/>
<polygon fill="midnightblue" stroke="midnightblue" points="127.576,-67.7361 137.481,-71.4966 132.083,-62.38 127.576,-67.7361"/>
</g>
<!-- Node3 -->
<g id="node3" class="node"><title>Node3</title>
<g id="a_node3"><a xlink:href="structlibbase_1_1kl26_1_1_tpm_pwm_1_1_config.xhtml" target="_top" xlink:title="libbase::kl26::TpmPwm\l::Config">
<polygon fill="white" stroke="black" points="167,-0.5 167,-34.5 310,-34.5 310,-0.5 167,-0.5"/>
<text text-anchor="start" x="175" y="-20.9" font-family="Inconsolata" font-size="12.00">libbase::kl26::TpmPwm</text>
<text text-anchor="middle" x="238.5" y="-7.9" font-family="Inconsolata" font-size="12.00">::Config</text>
</a>
</g>
</g>
<!-- Node1&#45;&gt;Node3 -->
<g id="edge2" class="edge"><title>Node1&#45;&gt;Node3</title>
<path fill="none" stroke="midnightblue" d="M183.313,-64.9382C195.061,-55.0523 208.582,-43.6747 219.301,-34.6557"/>
<polygon fill="midnightblue" stroke="midnightblue" points="180.917,-62.38 175.519,-71.4966 185.424,-67.7361 180.917,-62.38"/>
</g>
</g>
</svg>
